<svg width="150" height="45" viewBox="0 0 150 45" fill="none" xmlns="http://www.w3.org/2000/svg">
<path d="M144.664 44.5946H5.25445C2.35778 44.5946 0 42.2222 0 39.318V5.26885C0 2.36351 2.35778 0 5.25445 0H144.664C147.559 0 150 2.36351 150 5.26885V39.318C150 42.2222 147.559 44.5946 144.664 44.5946Z" fill="#A6A6A6"/>
<path d="M148.924 39.319C148.924 41.6781 147.02 43.589 144.664 43.589H5.25384C2.89939 43.589 0.988281 41.6781 0.988281 39.319V5.2677C0.988281 2.90975 2.89939 0.992188 5.25384 0.992188H144.663C147.02 0.992188 148.922 2.90975 148.922 5.2677L148.924 39.319Z" fill="black"/>
<path d="M33.4752 22.0615C33.443 18.4682 36.4074 16.7201 36.543 16.6388C34.8641 14.1827 32.2618 13.8472 31.3474 13.8204C29.1618 13.5896 27.0418 15.1326 25.9286 15.1326C24.793 15.1326 23.0786 13.8427 21.2307 13.8807C18.853 13.9174 16.6286 15.2988 15.4086 17.4438C12.8908 21.8173 14.7686 28.2446 17.1807 31.7797C18.3874 33.5112 19.7974 35.4443 21.643 35.3764C23.4486 35.3016 24.123 34.2214 26.3018 34.2214C28.4607 34.2214 29.0941 35.3764 30.9763 35.3328C32.9141 35.3016 34.1341 33.5936 35.2986 31.8466C36.693 29.8622 37.253 27.9078 37.2752 27.8076C37.2297 27.7919 33.5118 26.3682 33.4752 22.0615Z" fill="white"/>
<path d="M29.9206 11.4884C30.8916 10.2698 31.5561 8.61201 31.3716 6.92969C29.9661 6.99212 28.2084 7.90519 27.1961 9.09698C26.3006 10.1472 25.5006 11.8685 25.7072 13.4873C27.2861 13.6055 28.9072 12.688 29.9206 11.4884Z" fill="white"/>
<path d="M59.6048 35.1257H57.0816L55.6993 30.7677H50.8948L49.5782 35.1257H47.1216L51.8816 20.2891H54.8216L59.6048 35.1257ZM55.2827 28.9393L54.0327 25.0651C53.9004 24.6693 53.6527 23.7373 53.2871 22.2701H53.2427C53.0971 22.9012 52.8627 23.8333 52.5404 25.0651L51.3127 28.9393H55.2827Z" fill="white"/>
<path d="M71.8468 29.6403C71.8468 31.4597 71.3568 32.8979 70.3768 33.9537C69.4991 34.8935 68.4091 35.3629 67.108 35.3629C65.7036 35.3629 64.6946 34.8568 64.0802 33.8445H64.0357V39.48H61.6668V27.9446C61.6668 26.8007 61.6368 25.6268 61.5791 24.4227H63.6625L63.7946 26.1184H63.8391C64.6291 24.8408 65.828 24.2031 67.4368 24.2031C68.6946 24.2031 69.7446 24.7014 70.5846 25.6992C71.4268 26.6981 71.8468 28.0115 71.8468 29.6403ZM69.4336 29.7272C69.4336 28.686 69.2002 27.8276 68.7313 27.1519C68.2191 26.4473 67.5313 26.095 66.6691 26.095C66.0846 26.095 65.5536 26.2912 65.0791 26.6781C64.6036 27.0683 64.2925 27.5779 64.1468 28.2088C64.0736 28.5031 64.0368 28.7439 64.0368 28.9334V30.7172C64.0368 31.4954 64.2746 32.152 64.7502 32.6883C65.2257 33.2246 65.8436 33.4922 66.6036 33.4922C67.4957 33.4922 68.1902 33.1465 68.6868 32.4576C69.1846 31.7674 69.4336 30.8577 69.4336 29.7272Z" fill="white"/>
<path d="M84.1104 29.6403C84.1104 31.4597 83.6204 32.8979 82.6393 33.9537C81.7625 34.8935 80.6725 35.3629 79.3715 35.3629C77.967 35.3629 76.9581 34.8568 76.3448 33.8445H76.3004V39.48H73.9315V27.9446C73.9315 26.8007 73.9015 25.6268 73.8438 24.4227H75.927L76.0593 26.1184H76.1038C76.8925 24.8408 78.0915 24.2031 79.7015 24.2031C80.9582 24.2031 82.0082 24.7014 82.8504 25.6992C83.6893 26.6981 84.1104 28.0115 84.1104 29.6403ZM81.697 29.7272C81.697 28.686 81.4625 27.8276 80.9938 27.1519C80.4815 26.4473 79.7959 26.095 78.9325 26.095C78.347 26.095 77.817 26.2912 77.3415 26.6781C76.8659 27.0683 76.5559 27.5779 76.4104 28.2088C76.3381 28.5031 76.3004 28.7439 76.3004 28.9334V30.7172C76.3004 31.4954 76.5381 32.152 77.0115 32.6883C77.487 33.2234 78.1048 33.4922 78.867 33.4922C79.7593 33.4922 80.4537 33.1465 80.9504 32.4576C81.4482 31.7674 81.697 30.8577 81.697 29.7272Z" fill="white"/>
<path d="M97.8213 30.9637C97.8213 32.2257 97.3847 33.2525 96.5081 34.0452C95.5447 34.9114 94.2036 35.344 92.4803 35.344C90.8892 35.344 89.6136 35.0363 88.6479 34.4198L89.1969 32.4387C90.2369 33.0696 91.3781 33.3863 92.6213 33.3863C93.5136 33.3863 94.2081 33.1834 94.7069 32.7798C95.2036 32.3763 95.4513 31.8344 95.4513 31.1588C95.4513 30.5568 95.2469 30.0495 94.8369 29.6382C94.4292 29.2268 93.7481 28.8444 92.7969 28.491C90.2081 27.5221 88.9147 26.1029 88.9147 24.2367C88.9147 23.0169 89.3681 22.0169 90.2758 21.2387C91.1803 20.4595 92.3869 20.0703 93.8958 20.0703C95.2413 20.0703 96.3592 20.3056 97.2513 20.7749L96.6592 22.7126C95.8258 22.2577 94.8836 22.0303 93.8292 22.0303C92.9958 22.0303 92.3447 22.2365 91.8781 22.6468C91.4836 23.0136 91.2858 23.4607 91.2858 23.9902C91.2858 24.5767 91.5113 25.0617 91.9647 25.4429C92.3592 25.7952 93.0758 26.1765 94.1158 26.5879C95.3881 27.1018 96.3224 27.7027 96.9236 28.3917C97.5224 29.0784 97.8213 29.938 97.8213 30.9637Z" fill="white"/>
<path d="M105.653 26.2073H103.041V31.4015C103.041 32.7225 103.501 33.3825 104.424 33.3825C104.847 33.3825 105.198 33.3458 105.476 33.2721L105.541 35.0771C105.075 35.2521 104.46 35.3402 103.699 35.3402C102.764 35.3402 102.033 35.0538 101.505 34.4819C100.979 33.9088 100.715 32.9478 100.715 31.5977V26.2051H99.1592V24.4213H100.715V22.4624L103.041 21.7578V24.4213H105.653V26.2073Z" fill="white"/>
<path d="M117.435 29.6905C117.435 31.335 116.966 32.685 116.031 33.7408C115.05 34.8278 113.747 35.3696 112.124 35.3696C110.56 35.3696 109.314 34.849 108.385 33.8077C107.456 32.7665 106.992 31.452 106.992 29.8677C106.992 28.21 107.47 26.852 108.428 25.7963C109.385 24.7395 110.676 24.2109 112.3 24.2109C113.864 24.2109 115.123 24.7316 116.073 25.7739C116.982 26.7851 117.435 28.0907 117.435 29.6905ZM114.977 29.7674C114.977 28.7808 114.767 27.9346 114.342 27.2289C113.845 26.3749 113.135 25.949 112.215 25.949C111.263 25.949 110.54 26.3761 110.043 27.2289C109.617 27.9357 109.407 28.7953 109.407 29.812C109.407 30.7986 109.617 31.6449 110.043 32.3495C110.555 33.2035 111.271 33.6293 112.194 33.6293C113.098 33.6293 113.808 33.1946 114.321 32.3272C114.757 31.6081 114.977 30.753 114.977 29.7674Z" fill="white"/>
<path d="M125.134 26.5131C124.9 26.4696 124.65 26.4473 124.388 26.4473C123.554 26.4473 122.91 26.7629 122.456 27.3949C122.062 27.9523 121.864 28.6569 121.864 29.5076V35.121H119.496L119.519 27.7919C119.519 26.5588 119.489 25.4361 119.43 24.4238H121.493L121.58 26.4707H121.645C121.895 25.7673 122.29 25.201 122.83 24.7761C123.358 24.3938 123.928 24.2031 124.542 24.2031C124.761 24.2031 124.959 24.2187 125.134 24.2465V26.5131Z" fill="white"/>
<path d="M135.729 29.2702C135.729 29.6961 135.702 30.0551 135.642 30.3483H128.536C128.564 31.4052 128.907 32.2134 129.567 32.7709C130.166 33.2693 130.941 33.519 131.892 33.519C132.944 33.519 133.904 33.3506 134.767 33.0128L135.138 34.6628C134.129 35.1043 132.938 35.324 131.564 35.324C129.911 35.324 128.613 34.8356 127.668 33.8601C126.726 32.8847 126.254 31.5747 126.254 29.9313C126.254 28.3182 126.693 26.9747 127.572 25.9033C128.492 24.7595 129.735 24.1875 131.299 24.1875C132.836 24.1875 133.999 24.7595 134.789 25.9033C135.415 26.812 135.729 27.9357 135.729 29.2702ZM133.471 28.6537C133.486 27.9491 133.332 27.3403 133.011 26.8264C132.601 26.1653 131.971 25.8353 131.123 25.8353C130.348 25.8353 129.718 26.1575 129.237 26.8041C128.843 27.318 128.608 27.9347 128.536 28.6526H133.471V28.6537Z" fill="white"/>
<path d="M54.4994 11.1591C54.4994 12.4713 54.1072 13.4591 53.3239 14.1225C52.5983 14.7345 51.5672 15.0411 50.2316 15.0411C49.5694 15.0411 49.0028 15.0121 48.5283 14.9541V7.78443C49.1472 7.6841 49.8139 7.63281 50.5339 7.63281C51.806 7.63281 52.7649 7.91041 53.4116 8.46561C54.136 9.09329 54.4994 9.99074 54.4994 11.1591ZM53.2716 11.1915C53.2716 10.3408 53.0472 9.68862 52.5983 9.23376C52.1494 8.78 51.4939 8.55257 50.6305 8.55257C50.2639 8.55257 49.9516 8.5771 49.6928 8.62838V14.079C49.836 14.1013 50.0983 14.1113 50.4794 14.1113C51.3705 14.1113 52.0583 13.8626 52.5428 13.3654C53.0272 12.8681 53.2716 12.1436 53.2716 11.1915Z" fill="white"/>
<path d="M61.0104 12.3007C61.0104 13.109 60.7804 13.7712 60.3204 14.2908C59.8381 14.8247 59.1993 15.0912 58.4015 15.0912C57.6325 15.0912 57.0204 14.8359 56.5637 14.3231C56.1082 13.8113 55.8804 13.1658 55.8804 12.3876C55.8804 11.5738 56.1148 10.906 56.5859 10.3876C57.057 9.86915 57.6904 9.60938 58.4882 9.60938C59.257 9.60938 59.8748 9.86469 60.3425 10.3764C60.787 10.8736 61.0104 11.5158 61.0104 12.3007ZM59.8025 12.3386C59.8025 11.8536 59.6982 11.4378 59.4904 11.091C59.2459 10.6718 58.8982 10.4623 58.4459 10.4623C57.9782 10.4623 57.6225 10.6718 57.3782 11.091C57.1693 11.4378 57.0659 11.8603 57.0659 12.3598C57.0659 12.8447 57.1704 13.2606 57.3782 13.6072C57.6304 14.0264 57.9815 14.236 58.4348 14.236C58.8793 14.236 59.2282 14.0232 59.4793 13.5962C59.6948 13.2428 59.8025 12.8235 59.8025 12.3386Z" fill="white"/>
<path d="M69.7393 9.71875L68.1004 14.9742H67.0338L66.3548 12.6921C66.1825 12.1224 66.0426 11.556 65.9338 10.9942H65.9126C65.8115 11.5717 65.6715 12.1369 65.4915 12.6921L64.7704 14.9742H63.6915L62.1504 9.71875H63.347L63.9393 12.2172C64.0826 12.808 64.2004 13.3711 64.2948 13.9039H64.3159C64.4025 13.4647 64.5459 12.905 64.7482 12.2283L65.4915 9.71986H66.4404L67.1526 12.1748C67.3248 12.7735 67.4648 13.3499 67.5725 13.9051H67.6049C67.6838 13.3643 67.8026 12.788 67.9604 12.1748L68.5959 9.71986H69.7393V9.71875Z" fill="white"/>
<path d="M75.7757 14.9752H74.6112V11.9651C74.6112 11.0375 74.2601 10.5737 73.5557 10.5737C73.2101 10.5737 72.9312 10.7008 72.7146 10.9561C72.5001 11.2114 72.3912 11.5125 72.3912 11.8569V14.9741H71.2269V11.2215C71.2269 10.7599 71.2124 10.2593 71.1846 9.71752H72.208L72.2624 10.5392H72.2946C72.4301 10.2839 72.6324 10.0732 72.898 9.90482C73.2135 9.70861 73.5669 9.60938 73.9535 9.60938C74.4424 9.60938 74.849 9.76769 75.1724 10.0854C75.5746 10.4745 75.7757 11.0554 75.7757 11.8268V14.9752Z" fill="white"/>
<path d="M78.986 14.9794H77.8228V7.3125H78.986V14.9794Z" fill="white"/>
<path d="M85.8414 12.3007C85.8414 13.109 85.6114 13.7712 85.1514 14.2908C84.6693 14.8247 84.0293 15.0912 83.2325 15.0912C82.4625 15.0912 81.8503 14.8359 81.3948 14.3231C80.9393 13.8113 80.7114 13.1658 80.7114 12.3876C80.7114 11.5738 80.9459 10.906 81.417 10.3876C81.8882 9.86915 82.5214 9.60938 83.3182 9.60938C84.0882 9.60938 84.7048 9.86469 85.1737 10.3764C85.6182 10.8736 85.8414 11.5158 85.8414 12.3007ZM84.6325 12.3386C84.6325 11.8536 84.5282 11.4378 84.3203 11.091C84.077 10.6718 83.7282 10.4623 83.277 10.4623C82.8082 10.4623 82.4525 10.6718 82.2093 11.091C82.0003 11.4378 81.897 11.8603 81.897 12.3598C81.897 12.8447 82.0014 13.2606 82.2093 13.6072C82.4614 14.0264 82.8125 14.236 83.2659 14.236C83.7103 14.236 84.0582 14.0232 84.3093 13.5962C84.5259 13.2428 84.6325 12.8235 84.6325 12.3386Z" fill="white"/>
<path d="M91.4782 14.9718H90.4327L90.3459 14.3666H90.3138C89.9559 14.8493 89.4459 15.0912 88.7838 15.0912C88.2893 15.0912 87.8893 14.9317 87.5882 14.6151C87.3149 14.3275 87.1782 13.9697 87.1782 13.5448C87.1782 12.9026 87.4449 12.4133 87.9815 12.0743C88.517 11.7354 89.2704 11.5693 90.2404 11.5771V11.479C90.2404 10.7867 89.8782 10.4411 89.1527 10.4411C88.6359 10.4411 88.1804 10.5715 87.787 10.8302L87.5504 10.0631C88.037 9.761 88.6382 9.60938 89.347 9.60938C90.7159 9.60938 91.4027 10.334 91.4027 11.7834V13.7187C91.4027 14.2439 91.4282 14.662 91.4782 14.9718ZM90.2693 13.1658V12.3553C88.9849 12.333 88.3427 12.6864 88.3427 13.4144C88.3427 13.6887 88.4159 13.8939 88.5659 14.0309C88.7159 14.168 88.907 14.236 89.1349 14.236C89.3904 14.236 89.6293 14.1547 89.847 13.9931C90.0659 13.8302 90.2004 13.624 90.2504 13.3709C90.2627 13.3141 90.2693 13.2449 90.2693 13.1658Z" fill="white"/>
<path d="M98.0942 14.9794H97.0609L97.0064 14.1355H96.9742C96.6442 14.7776 96.0821 15.0987 95.2921 15.0987C94.6609 15.0987 94.1353 14.8501 93.7187 14.3529C93.3021 13.8556 93.0942 13.2102 93.0942 12.4175C93.0942 11.5668 93.3198 10.8778 93.7732 10.3516C94.2121 9.86108 94.7498 9.61581 95.3898 9.61581C96.0932 9.61581 96.5853 9.85327 96.8653 10.3293H96.8876V7.3125H98.0532V13.5636C98.0532 14.0753 98.0664 14.5468 98.0942 14.9794ZM96.8876 12.7631V11.8868C96.8876 11.7352 96.8764 11.6125 96.8553 11.5189C96.7898 11.2379 96.6487 11.0016 96.4342 10.8109C96.2176 10.6203 95.9564 10.5244 95.6553 10.5244C95.2209 10.5244 94.8809 10.6972 94.6309 11.0439C94.3832 11.3907 94.2576 11.8333 94.2576 12.374C94.2576 12.8936 94.3764 13.3149 94.6153 13.6394C94.8676 13.9849 95.2076 14.1578 95.6332 14.1578C96.0153 14.1578 96.3209 14.014 96.5532 13.7252C96.7776 13.4587 96.8876 13.1376 96.8876 12.7631Z" fill="white"/>
<path d="M108.053 12.3007C108.053 13.109 107.823 13.7712 107.363 14.2908C106.881 14.8247 106.243 15.0912 105.444 15.0912C104.676 15.0912 104.064 14.8359 103.606 14.3231C103.151 13.8113 102.923 13.1658 102.923 12.3876C102.923 11.5738 103.157 10.906 103.628 10.3876C104.099 9.86915 104.733 9.60938 105.532 9.60938C106.299 9.60938 106.918 9.86469 107.385 10.3764C107.829 10.8736 108.053 11.5158 108.053 12.3007ZM106.846 12.3386C106.846 11.8536 106.742 11.4378 106.534 11.091C106.288 10.6718 105.942 10.4623 105.488 10.4623C105.022 10.4623 104.666 10.6718 104.421 11.091C104.212 11.4378 104.108 11.8603 104.108 12.3598C104.108 12.8447 104.213 13.2606 104.421 13.6072C104.673 14.0264 105.024 14.236 105.477 14.236C105.922 14.236 106.272 14.0232 106.523 13.5962C106.737 13.2428 106.846 12.8235 106.846 12.3386Z" fill="white"/>
<path d="M114.315 14.9752H113.151V11.9651C113.151 11.0375 112.8 10.5737 112.095 10.5737C111.749 10.5737 111.47 10.7008 111.255 10.9561C111.039 11.2114 110.931 11.5125 110.931 11.8569V14.9741H109.766V11.2215C109.766 10.7599 109.752 10.2593 109.725 9.71752H110.747L110.801 10.5392H110.834C110.97 10.2839 111.172 10.0732 111.437 9.90482C111.754 9.70861 112.106 9.60938 112.494 9.60938C112.981 9.60938 113.388 9.76769 113.711 10.0854C114.115 10.4745 114.315 11.0554 114.315 11.8268V14.9752Z" fill="white"/>
<path d="M122.151 10.5981H120.869V13.1511C120.869 13.8 121.096 14.1244 121.548 14.1244C121.756 14.1244 121.93 14.1066 122.066 14.0697L122.096 14.9561C121.866 15.0431 121.564 15.0865 121.192 15.0865C120.732 15.0865 120.374 14.9461 120.115 14.6651C119.855 14.3842 119.726 13.9115 119.726 13.2481V10.5981H118.961V9.72291H119.726V8.75967L120.868 8.41406V9.72181H122.15V10.5981H122.151Z" fill="white"/>
<path d="M128.315 14.9794H127.149V11.9916C127.149 11.0495 126.798 10.5779 126.095 10.5779C125.555 10.5779 125.186 10.8511 124.984 11.3974C124.949 11.5122 124.929 11.6527 124.929 11.8177V14.9783H123.766V7.3125H124.929V10.4798H124.952C125.318 9.90345 125.844 9.61581 126.525 9.61581C127.007 9.61581 127.406 9.77412 127.723 10.0919C128.117 10.4876 128.315 11.0763 128.315 11.8545V14.9794Z" fill="white"/>
<path d="M134.674 12.0978C134.674 12.3073 134.659 12.4835 134.631 12.6273H131.139C131.154 13.1469 131.321 13.5426 131.644 13.8169C131.94 14.0622 132.321 14.1847 132.788 14.1847C133.304 14.1847 133.775 14.1023 134.2 13.9362L134.382 14.7478C133.885 14.9641 133.301 15.0722 132.624 15.0722C131.813 15.0722 131.174 14.8326 130.712 14.3531C130.248 13.8738 130.018 13.2304 130.018 12.4233C130.018 11.6306 130.232 10.9706 130.664 10.4444C131.115 9.88251 131.725 9.60156 132.495 9.60156C133.249 9.60156 133.821 9.88251 134.208 10.4444C134.52 10.8903 134.674 11.4422 134.674 12.0978ZM133.563 11.7956C133.572 11.4489 133.495 11.1501 133.338 10.8982C133.135 10.5737 132.828 10.411 132.411 10.411C132.031 10.411 131.721 10.5693 131.484 10.887C131.291 11.1401 131.177 11.4422 131.139 11.7956H133.563Z" fill="white"/>
</svg>
