<svg viewBox="0 0 170 80" fill="none" xmlns="http://www.w3.org/2000/svg">
<rect x="1" y="1" width="168" height="77.02" rx="6" fill="#26304E"/>
<rect x="1" y="1" width="168" height="77.02" rx="6" stroke="#5275EC" stroke-width="2"/>
<path d="M30.8875 23.8146C32.0749 22.3303 32.8616 20.3562 32.6687 18.3672C30.932 18.4562 28.8391 19.5101 27.6072 20.9647C26.5088 22.2116 25.5291 24.2896 25.8111 26.2044C27.7407 26.3973 29.6852 25.2544 30.8875 23.8146ZM35.1623 36.4759C35.1178 32.1565 38.695 30.123 38.8583 29.9894C36.8544 27.0059 33.7077 26.6645 32.639 26.6052C29.8336 26.4419 27.4736 28.1934 26.1228 28.1934C24.7721 28.1934 22.7386 26.6942 20.527 26.7091C17.6325 26.7536 14.8717 28.4012 13.4022 30.9987C10.3742 36.1938 12.7046 43.9123 15.6435 48.1129C17.0833 50.2058 18.7903 52.5362 21.0316 52.4323C23.169 52.3432 24.0151 51.037 26.583 51.037C29.1508 51.037 29.9227 52.4323 32.1788 52.3878C34.5241 52.3432 36.0084 50.2949 37.3888 48.202C39.0216 45.8122 39.6895 43.5412 39.734 43.3928C39.6895 43.3334 35.2069 41.5968 35.1623 36.4759ZM84.1597 28.8316C78.5192 28.8316 74.9866 31.83 74.7194 35.9564H79.1427C79.5583 33.908 81.2652 32.6463 83.9667 32.6463C86.8314 32.6463 88.5681 34.1752 88.5681 36.7134V38.4945L82.3043 38.8508C76.8717 39.1476 73.7843 41.6265 73.7843 45.6193C73.7843 49.7457 76.931 52.5213 81.384 52.5213C84.3823 52.5213 87.3064 50.9034 88.6275 48.3504H88.7759V52.1354H93.2288V36.3868C93.2437 31.7854 89.711 28.8316 84.1597 28.8316ZM88.5681 43.5857C88.5681 46.5692 86.0002 48.8254 82.7199 48.8254C80.1965 48.8254 78.5341 47.534 78.5341 45.5005C78.5341 43.5412 80.1223 42.2944 82.9574 42.1014L88.5829 41.76V43.5857H88.5681ZM127.235 20.6679V33.0619H127.175C125.884 30.5386 123.242 28.8762 119.961 28.8762C114.217 28.8762 110.373 33.4775 110.373 40.6913C110.373 47.9051 114.217 52.5362 120.006 52.5362C123.346 52.5362 125.958 50.8441 127.309 48.2317L127.383 48.291V52.1503H131.984V20.6679H127.235ZM121.238 48.5434C117.497 48.5434 115.212 45.5154 115.212 40.6913C115.212 35.8821 117.557 32.8393 121.238 32.8393C124.86 32.8393 127.249 35.9564 127.249 40.6913C127.264 45.4857 124.86 48.5434 121.238 48.5434ZM102.387 33.151H102.298V29.1285H97.8451V52.1354H102.595V38.4352C102.595 35.1845 104.346 33.1807 107.374 33.1807C108.28 33.1807 109.2 33.2994 109.571 33.433V29.0543C109.23 28.9801 108.562 28.8762 107.879 28.8762C105.192 28.8762 103.144 30.4644 102.387 33.151ZM58.2286 48.4098C52.4695 48.4098 48.8032 43.7936 48.8032 36.4313C48.8032 29.173 52.514 24.4826 58.1989 24.4826C62.4738 24.4826 65.7986 27.1989 66.6892 31.2065H71.5133C70.6969 24.6755 65.3237 20.2077 58.1989 20.2077C49.4266 20.2077 43.8307 26.4716 43.8307 36.4165C43.8307 46.4356 49.3821 52.6401 58.1989 52.6401C65.4127 52.6401 70.3555 48.7957 71.5429 42.3389H66.6892C65.7096 46.1685 62.6222 48.4098 58.2286 48.4098Z" fill="#F6F7FF"/>
</svg>
