<svg width="165" height="165" viewBox="0 0 165 165" fill="none" xmlns="http://www.w3.org/2000/svg">
<g clip-path="url(#clip0_652_2836)">
<path fill-rule="evenodd" clip-rule="evenodd" d="M48.6472 116.237C53.7567 103.663 63.7854 94.0831 75.9287 87.0847C94.2678 76.5162 117.432 71.8303 135.993 71.698C147.658 71.6137 155.578 75.4562 166.932 77.8794C167.392 77.9774 167.844 77.6844 167.942 77.2245C168.041 76.7667 167.747 76.3124 167.288 76.2165C155.801 73.7648 147.782 69.9116 135.98 69.9961C117.161 70.1304 93.6758 74.8948 75.079 85.6106C62.6006 92.8017 52.3219 102.674 47.0706 115.596C46.8935 116.032 47.1017 116.527 47.537 116.704C47.9723 116.882 48.4701 116.673 48.6472 116.237Z" fill="white"/>
<path d="M42 94L46.5 116H68" stroke="white" stroke-width="2"/>
</g>
<defs>
<clipPath id="clip0_652_2836">
<rect width="130" height="130" fill="white" transform="translate(123.284) rotate(71.5029)"/>
</clipPath>
</defs>
</svg>
