<svg  viewBox="0 0 67 67" fill="none" xmlns="http://www.w3.org/2000/svg">
<g clip-path="url(#clip0_1109_8237)">
<path d="M15.0032 25.5344L11.5391 27.5344L9.53906 24.0703L37.2519 8.07031L39.2519 11.5344L35.7878 13.5344L37.7878 16.9985C39.4028 19.7958 39.2894 22.8634 38.5709 25.7309C38.0792 27.6914 37.2673 29.7051 36.3936 31.6598C38.5233 31.8805 40.6732 32.1843 42.6169 32.7388C45.4594 33.5502 48.1728 34.9859 49.7878 37.7831L51.7878 41.2472L55.2519 39.2472L57.2519 42.7113L29.5391 58.7113L27.5391 55.2472L31.0032 53.2472L29.0032 49.7831C27.3882 46.9859 27.5015 43.9182 28.2201 41.0508C28.7117 39.0903 29.5236 37.0765 30.3973 35.1218C28.2676 34.9011 26.1177 34.5974 24.1741 34.0429C21.3315 33.2314 18.6182 31.7958 17.0032 28.9985L15.0032 25.5344ZM18.4673 23.5344L20.4673 26.9985C21.1523 28.185 22.2526 29.0508 23.8027 29.6916L34.9883 23.2336C35.2066 21.5718 35.0087 20.185 34.3237 18.9985L32.3237 15.5344L18.4673 23.5344ZM34.6175 35.5074C33.5455 37.8306 32.6082 39.9953 32.1 42.023C31.9721 42.5253 31.8728 43.0345 31.8027 43.548L42.9883 37.09C42.5084 36.894 42.0179 36.7254 41.5189 36.585C39.5087 36.0113 37.1655 35.7406 34.6175 35.5074Z" fill="#5275EC"/>
</g>
<defs>
<clipPath id="clip0_1109_8237">
<rect width="48" height="48" fill="white" transform="translate(0.609375 24.6094) rotate(-30)"/>
</clipPath>
</defs>
</svg>
