<svg  viewBox="0 0 54 54" fill="none" xmlns="http://www.w3.org/2000/svg">
<path d="M27 54C41.9117 54 54 41.9117 54 27C54 12.0883 41.9117 0 27 0C12.0883 0 0 12.0883 0 27C0 41.9117 12.0883 54 27 54Z" fill="#F7931A"/>
<path d="M39.1311 23.6588C39.661 20.1218 36.9661 18.2199 33.284 16.9509L34.4787 12.1584L31.5627 11.4328L30.3983 16.0988C29.6322 15.9064 28.8458 15.7275 28.0611 15.5486L29.234 10.8523L26.318 10.125L25.1232 14.9158C24.4887 14.7707 23.8643 14.6289 23.2602 14.4771L23.2636 14.4619L19.2406 13.4578L18.4643 16.5729C18.4643 16.5729 20.6294 17.0691 20.5838 17.0994C21.7651 17.3948 21.9777 18.1761 21.9423 18.7971L20.5821 24.2561C20.6631 24.2764 20.7678 24.3067 20.8859 24.3523L20.5771 24.2764L18.6702 31.9241C18.5251 32.2819 18.1589 32.8202 17.332 32.616C17.3624 32.6582 15.2125 32.0878 15.2125 32.0878L13.7646 35.4257L17.5615 36.3724C18.2669 36.5496 18.9588 36.7352 19.6388 36.909L18.4323 41.7555L21.3466 42.4811L22.5413 37.6886C23.3378 37.9029 24.1107 38.1021 24.8667 38.2911L23.6753 43.0633L26.5913 43.7889L27.7979 38.9526C32.7726 39.8942 36.5121 39.5145 38.0866 35.0156C39.3556 31.3943 38.0241 29.3034 35.4068 27.9416C37.3137 27.5029 38.7481 26.2491 39.1311 23.6588ZM32.4655 33.0041C31.5661 36.6272 25.4658 34.668 23.488 34.1769L25.0911 27.756C27.0689 28.2504 33.4088 29.2275 32.4655 33.0041ZM33.3683 23.6064C32.5465 26.9021 27.4705 25.2264 25.8252 24.8164L27.2765 18.9945C28.9218 19.4046 34.2256 20.169 33.3683 23.6064Z" fill="white"/>
</svg>
