<svg  viewBox="0 0 48 48" fill="none" xmlns="http://www.w3.org/2000/svg">
<rect x="0.25" y="0.25" width="47.5" height="47.5" rx="23.75" fill="url(#paint0_linear_3408_15592)" fill-opacity="0.5"/>
<rect x="0.25" y="0.25" width="47.5" height="47.5" rx="23.75" stroke="white" stroke-width="0.5"/>
<path d="M9 15C8.73478 15 8.48043 15.1054 8.29289 15.2929C8.10536 15.4805 8 15.7348 8 16C8 16.2653 8.10536 16.5196 8.29289 16.7071C8.48043 16.8947 8.73478 17 9 17H11.22L13.844 27.5C14.067 28.39 14.864 29 15.781 29H28.251C29.154 29 29.921 28.4 30.158 27.53L32.75 18H30.656L28.25 27H15.78L13.157 16.5C13.0486 16.0693 12.7989 15.6873 12.4477 15.4154C12.0965 15.1434 11.6642 14.9971 11.22 15H9ZM27 29C25.355 29 24 30.355 24 32C24 33.645 25.355 35 27 35C28.645 35 30 33.645 30 32C30 30.355 28.645 29 27 29ZM18 29C16.355 29 15 30.355 15 32C15 33.645 16.355 35 18 35C19.645 35 21 33.645 21 32C21 30.355 19.645 29 18 29ZM21 15V20H18L22 24L26 20H23V15H21ZM18 31C18.564 31 19 31.436 19 32C19 32.564 18.564 33 18 33C17.436 33 17 32.564 17 32C17 31.436 17.436 31 18 31ZM27 31C27.564 31 28 31.436 28 32C28 32.564 27.564 33 27 33C26.436 33 26 32.564 26 32C26 31.436 26.436 31 27 31Z" fill="white"/>
<circle cx="35" cy="18" r="8" fill="#5275EC"/>
<path d="M39.68 18.2H35.8V22.32H33.79V18.2H29.93V16.37H33.79V12.27H35.8V16.37H39.68V18.2Z" fill="white"/>
<defs>
<linearGradient id="paint0_linear_3408_15592" x1="0" y1="0" x2="48" y2="48" gradientUnits="userSpaceOnUse">
<stop stop-color="white" stop-opacity="0.1"/>
<stop offset="1" stop-color="white" stop-opacity="0.5"/>
</linearGradient>
</defs>
</svg>
