<svg  viewBox="0 0 19 20" fill="none" xmlns="http://www.w3.org/2000/svg">
<path d="M16.7 4.73385H13.7667V2.86719H12.7V4.73385H6.3V2.86719H5.23333V4.73385H2.3C2.0879 4.7341 1.88456 4.81847 1.73459 4.96844C1.58461 5.11842 1.50025 5.32176 1.5 5.53385V16.7339C1.50025 16.946 1.58461 17.1493 1.73459 17.2993C1.88456 17.4492 2.0879 17.5336 2.3 17.5339H16.7C16.9121 17.5336 17.1154 17.4492 17.2654 17.2993C17.4154 17.1493 17.4998 16.946 17.5 16.7339V5.53385C17.4998 5.32176 17.4154 5.11842 17.2654 4.96844C17.1154 4.81847 16.9121 4.7341 16.7 4.73385ZM16.4333 16.4672H2.56667V5.80052H5.23333V7.13385H6.3V5.80052H12.7V7.13385H13.7667V5.80052H16.4333V16.4672Z" fill="#949DB7"/>
<path d="M4.4375 9.03125H5.5625V10.1979H4.4375V9.03125ZM7.53125 9.03125H8.65625V10.1979H7.53125V9.03125ZM10.3438 9.03125H11.4688V10.1979H10.3438V9.03125ZM13.4375 9.03125H14.5625V10.1979H13.4375V9.03125ZM4.4375 11.6563H5.5625V12.8229H4.4375V11.6563ZM7.53125 11.6563H8.65625V12.8229H7.53125V11.6563ZM10.3438 11.6563H11.4688V12.8229H10.3438V11.6563ZM13.4375 11.6563H14.5625V12.8229H13.4375V11.6563ZM4.4375 14.2813H5.5625V15.4479H4.4375V14.2813ZM7.53125 14.2813H8.65625V15.4479H7.53125V14.2813ZM10.3438 14.2813H11.4688V15.4479H10.3438V14.2813ZM13.4375 14.2813H14.5625V15.4479H13.4375V14.2813Z" fill="#949DB7"/>
</svg>
