<svg width="47" height="49" viewBox="0 0 47 49" fill="none" xmlns="http://www.w3.org/2000/svg">
<rect x="0.900391" width="46.1" height="48.71" rx="12" fill="#26304E"/>
<path d="M34.3904 23.1935V15.22C34.3904 14.5278 34.1154 13.8639 33.6259 13.3745C33.1365 12.885 32.4726 12.61 31.7804 12.61H26.3255C25.7774 11.0962 24.3419 10 22.6454 10C20.9489 10 19.5134 11.0962 18.9653 12.61H13.5104C12.0749 12.61 10.9004 13.7845 10.9004 15.22V33.49C10.9004 34.1822 11.1754 34.8461 11.6648 35.3355C12.1543 35.825 12.8182 36.1 13.5104 36.1H21.4839C23.1282 37.7182 25.3728 38.71 27.8654 38.71C32.9157 38.71 37.0004 34.6253 37.0004 29.575C37.0004 27.0824 36.0086 24.8378 34.3904 23.1935ZM22.6454 12.61C23.3631 12.61 23.9504 13.1972 23.9504 13.915C23.9504 14.6328 23.3631 15.22 22.6454 15.22C21.9276 15.22 21.3404 14.6328 21.3404 13.915C21.3404 13.1972 21.9276 12.61 22.6454 12.61ZM13.5104 33.49V15.22H16.1204V17.83H29.1704V15.22H31.7804V21.3274C30.5928 20.7662 29.2748 20.44 27.8654 20.44H16.1204V23.05H21.4709C20.6879 23.7938 20.0876 24.6812 19.6178 25.66H16.1204V28.27H18.8348C18.7695 28.7006 18.7304 29.1313 18.7304 29.575C18.7304 30.9844 19.0566 32.3024 19.6178 33.49H13.5104ZM27.8654 36.1C24.2636 36.1 21.3404 33.1768 21.3404 29.575C21.3404 25.9732 24.2636 23.05 27.8654 23.05C31.4672 23.05 34.3904 25.9732 34.3904 29.575C34.3904 33.1768 31.4672 36.1 27.8654 36.1ZM28.5179 29.9012L32.2502 32.1067L31.2714 33.6988L26.5604 30.88V24.355H28.5179V29.9012Z" fill="#5275EC"/>
</svg>
