<svg viewBox="0 0 16 17" fill="none" xmlns="http://www.w3.org/2000/svg">
<path d="M7.9987 13.8359C9.41319 13.8359 10.7697 13.274 11.7699 12.2738C12.7701 11.2736 13.332 9.91709 13.332 8.5026C13.332 7.08812 12.7701 5.73156 11.7699 4.73137C10.7697 3.73117 9.41319 3.16927 7.9987 3.16927C6.58421 3.16927 5.22766 3.73117 4.22746 4.73137C3.22727 5.73156 2.66536 7.08812 2.66536 8.5026C2.66536 9.91709 3.22727 11.2736 4.22746 12.2738C5.22766 13.274 6.58421 13.8359 7.9987 13.8359ZM7.9987 1.83594C8.87418 1.83594 9.74108 2.00838 10.5499 2.34341C11.3588 2.67844 12.0937 3.1695 12.7127 3.78856C13.3318 4.40762 13.8229 5.14254 14.1579 5.95138C14.4929 6.76022 14.6654 7.62713 14.6654 8.5026C14.6654 10.2707 13.963 11.9664 12.7127 13.2167C11.4625 14.4669 9.76681 15.1693 7.9987 15.1693C4.31203 15.1693 1.33203 12.1693 1.33203 8.5026C1.33203 6.73449 2.03441 5.0388 3.28465 3.78856C4.5349 2.53832 6.23059 1.83594 7.9987 1.83594ZM8.33203 5.16927V8.66927L11.332 10.4493L10.832 11.2693L7.33203 9.16927V5.16927H8.33203Z" fill="#85B6FF"/>
</svg>
