<svg  viewBox="0 0 250 128" fill="none" xmlns="http://www.w3.org/2000/svg">
<path d="M212.865 0.871829C192.835 0.871829 176.598 9.82607 176.598 20.8877C176.598 31.9494 192.84 40.9083 212.865 40.9083C232.895 40.9083 249.132 31.9494 249.132 20.8877C249.132 9.82607 232.89 0.871829 212.865 0.871829ZM249.132 26.834C249.123 37.8957 232.895 46.8546 212.865 46.8546C192.891 46.8546 176.691 37.9932 176.598 26.9826V34.8135C176.598 39.5389 179.624 43.8652 184.582 47.2909C189.595 48.6556 194.061 50.5495 197.779 52.9448C202.388 54.1145 207.457 54.8294 212.865 54.8294C232.895 54.8294 249.132 45.8751 249.132 34.8135V26.834ZM249.132 40.7598C249.132 51.8214 232.895 60.7803 212.865 60.7803C210.428 60.7803 208.061 60.5993 205.758 60.344C207.575 62.7908 208.815 65.6172 209.384 68.6112C210.539 68.6762 211.681 68.7551 212.865 68.7551C232.895 68.7551 249.132 59.8009 249.132 48.7392V40.7598ZM166.446 51.9282C146.416 51.9282 130.179 60.8871 130.179 71.9487C130.179 83.0104 146.421 91.9693 166.446 91.9693C186.476 91.9693 202.713 83.0104 202.713 71.9487C202.713 60.8871 186.471 51.9282 166.446 51.9282ZM249.132 54.6855C249.123 65.7471 232.895 74.706 212.865 74.706C211.7 74.706 210.521 74.6225 209.384 74.5575C209.333 74.9056 209.305 75.3698 209.24 75.718C209.472 76.4189 209.671 77.1105 209.671 77.8997V82.5416C210.725 82.5926 211.783 82.6808 212.865 82.6808C232.895 82.6808 249.132 73.7266 249.132 62.6649V54.6855ZM249.132 68.6112C249.123 79.6729 232.895 88.6318 212.865 88.6318C211.7 88.6318 210.521 88.5482 209.384 88.4832C209.333 88.8314 209.305 89.2956 209.24 89.6437C209.472 90.34 209.671 91.0363 209.671 91.8254V96.4673C210.725 96.5184 211.783 96.6066 212.865 96.6066C232.895 96.6066 249.132 87.6523 249.132 76.5907V68.6112ZM202.713 77.895C202.704 88.9567 186.476 97.9156 166.446 97.9156C146.472 97.9156 130.272 89.0542 130.179 78.0389V85.8745C130.179 96.9361 146.411 105.895 166.446 105.895C186.48 105.895 202.713 96.9361 202.713 85.8745V77.895ZM202.713 91.8208C202.704 102.882 186.476 111.841 166.446 111.841C146.472 111.841 130.272 102.98 130.179 91.9647V99.8002C130.179 110.862 146.411 119.821 166.446 119.821C186.48 119.821 202.713 110.862 202.713 99.8002V91.8208Z" fill="#0116D4"/>
<g clip-path="url(#clip0_319_2377)">
<path d="M83.5545 8.05542C63.5247 8.05542 47.2873 17.0097 47.2873 28.0713C47.2873 39.133 63.5293 48.0919 83.5545 48.0919C103.584 48.0919 119.822 39.133 119.822 28.0713C119.822 17.0097 103.58 8.05542 83.5545 8.05542ZM119.822 34.0176C119.812 45.0793 103.584 54.0382 83.5545 54.0382C63.5804 54.0382 47.3801 45.1768 47.2873 34.1662V41.9971C47.2873 46.7225 50.3138 51.0488 55.2713 54.4745C60.2846 55.8392 64.7501 57.7331 68.4683 60.1284C73.0777 61.2981 78.1467 62.013 83.5545 62.013C103.584 62.013 119.822 53.0587 119.822 41.9971V34.0176ZM119.822 47.9433C119.822 59.005 103.584 67.9639 83.5545 67.9639C81.1175 67.9639 78.7501 67.7829 76.4477 67.5276C78.2646 69.9744 79.504 72.8008 80.0731 75.7948C81.2289 75.8598 82.3708 75.9387 83.5545 75.9387C103.584 75.9387 119.822 66.9845 119.822 55.9228V47.9433ZM37.1354 59.1118C17.1056 59.1118 0.868164 68.0707 0.868164 79.1323C0.868164 90.194 17.1102 99.1529 37.1354 99.1529C57.1652 99.1529 73.4026 90.194 73.4026 79.1323C73.4026 68.0707 57.1606 59.1118 37.1354 59.1118ZM119.822 61.8691C119.812 72.9307 103.584 81.8896 83.5545 81.8896C82.3894 81.8896 81.2103 81.8061 80.0731 81.7411C80.022 82.0892 79.9942 82.5534 79.9292 82.9016C80.1613 83.6025 80.3609 84.2941 80.3609 85.0833V89.7252C81.4146 89.7762 82.4729 89.8644 83.5545 89.8644C103.584 89.8644 119.822 80.9102 119.822 69.8485V61.8691ZM119.822 75.7948C119.812 86.8565 103.584 95.8154 83.5545 95.8154C82.3894 95.8154 81.2103 95.7318 80.0731 95.6668C80.022 96.015 79.9942 96.4791 79.9292 96.8273C80.1613 97.5236 80.3609 98.2199 80.3609 99.009V103.651C81.4146 103.702 82.4729 103.79 83.5545 103.79C103.584 103.79 119.822 94.8359 119.822 83.7742V75.7948ZM73.4026 85.0786C73.3934 96.1403 57.1652 105.099 37.1354 105.099C17.1613 105.099 0.961002 96.2378 0.868164 85.2225V93.0581C0.868164 104.12 17.1009 113.079 37.1354 113.079C57.1699 113.079 73.4026 104.12 73.4026 93.0581V85.0786ZM73.4026 99.0043C73.3934 110.066 57.1652 119.025 37.1354 119.025C17.1613 119.025 0.961002 110.163 0.868164 99.1482V106.984C0.868164 118.045 17.1009 127.004 37.1354 127.004C57.1699 127.004 73.4026 118.045 73.4026 106.984V99.0043Z" fill="#0116D4"/>
</g>
<defs>
<clipPath id="clip0_319_2377">
<rect width="120.69" height="120.69" fill="white" transform="translate(0 7.18359)"/>
</clipPath>
</defs>
</svg>
