<svg  viewBox="0 0 360 202" fill="none" xmlns="http://www.w3.org/2000/svg">
<rect width="360" height="202" rx="12" fill="#1A1F30"/>
<g clip-path="url(#clip0_1488_14381)">
<path opacity="0.945" fill-rule="evenodd" clip-rule="evenodd" d="M113.936 25.8516C146.553 25.8516 179.17 25.8516 211.787 25.8516C216.47 27.1656 219.449 30.1929 220.723 34.9336C221.051 42.3483 221.198 49.7701 221.162 57.1992C221.198 64.6283 221.051 72.0501 220.723 79.4648C219.451 83.666 216.766 86.5468 212.666 88.1074C207.409 88.5311 202.136 88.6775 196.846 88.5469C196.797 90.2098 196.846 91.87 196.992 93.5273C203.172 89.8605 208.739 90.6419 213.691 95.8711C214.352 96.8985 214.938 97.9726 215.449 99.0938C220.147 95.5986 225.079 95.257 230.244 98.0684C233.619 100.57 235.426 103.939 235.664 108.176C241.77 104.494 247.336 105.178 252.363 110.227C253.361 111.832 254.191 113.492 254.854 115.207C254.854 124.875 254.854 134.543 254.854 144.211C251.435 161.887 240.889 172.434 223.213 175.852C212.08 175.852 200.947 175.852 189.814 175.852C171.878 172.417 161.38 161.675 158.32 143.625C158.036 134.626 158.134 125.642 158.613 116.672C161.109 110.43 165.748 107.598 172.529 108.176C172.463 106.785 172.61 105.417 172.969 104.074C173.821 103.226 174.846 102.982 176.045 103.342C176.582 103.488 176.924 103.83 177.07 104.367C177.266 113.254 177.266 122.141 177.07 131.027C176.662 131.867 175.979 132.258 175.02 132.199C174.195 132.226 173.512 131.933 172.969 131.32C172.543 125.184 172.396 119.031 172.529 112.863C168.942 112.389 166.061 113.561 163.887 116.379C163.429 117.099 163.136 117.88 163.008 118.723C162.812 126.926 162.812 135.129 163.008 143.332C165.478 157.987 173.925 167.118 188.35 170.725C190.291 171.031 192.244 171.226 194.209 171.311C203.784 171.571 213.355 171.473 222.92 171.018C238.008 168.039 247.041 159.006 250.02 143.918C250.584 134.637 250.584 125.36 250.02 116.086C248.092 111.192 244.625 109.581 239.619 111.252C236.791 113.05 235.375 115.638 235.371 119.016C234.088 120.434 232.721 120.532 231.27 119.309C231.172 119.016 231.074 118.723 230.977 118.43C230.879 114.524 230.781 110.617 230.684 106.711C229.316 102.32 226.337 100.415 221.748 100.998C218.838 101.857 217.031 103.762 216.328 106.711C216.311 109.28 216.116 111.819 215.742 114.328C214.29 115.563 212.922 115.465 211.641 114.035C211.543 110.031 211.445 106.027 211.348 102.023C209.848 97.2973 206.674 95.393 201.826 96.3105C199.308 97.1687 197.696 98.8778 196.992 101.438C196.895 106.223 196.797 111.008 196.699 115.793C195.629 117.617 194.262 117.91 192.598 116.672C192.209 101.462 192.014 86.2274 192.012 70.9688C190.814 66.0533 187.738 63.9539 182.783 64.6699C179.572 65.8333 177.765 68.1284 177.363 71.5547C177.266 79.8554 177.168 88.1563 177.07 96.457C175.703 98.0194 174.336 98.0194 172.969 96.457C172.564 93.8402 172.418 91.2035 172.529 88.5469C159.638 88.5958 146.748 88.5469 133.857 88.4004C132.189 86.683 132.385 85.2182 134.443 84.0059C147.138 83.8594 159.833 83.8104 172.529 83.8594C172.529 82.1991 172.529 80.5392 172.529 78.8789C154.951 78.9278 137.373 78.8789 119.795 78.7324C117.109 78 115.4 76.2911 114.668 73.6055C114.473 62.5702 114.473 51.5352 114.668 40.5C115.526 37.9815 117.235 36.3702 119.795 35.666C148.506 35.4707 177.217 35.4707 205.928 35.666C208.485 36.3676 210.194 37.9789 211.055 40.5C211.25 51.5352 211.25 62.5702 211.055 73.6055C210.468 75.9498 209.052 77.5611 206.807 78.4395C203.509 78.8593 200.188 79.0058 196.846 78.8789C196.846 80.5392 196.846 82.1991 196.846 83.8594C201.437 83.9083 206.026 83.8594 210.615 83.7129C213.273 82.9104 215.08 81.2013 216.035 78.5859C216.515 64.9236 216.612 51.2516 216.328 37.5703C215.889 33.2246 213.496 30.832 209.15 30.3926C178.291 30.1973 147.432 30.1973 116.572 30.3926C114.038 30.5614 112.036 31.6844 110.566 33.7617C109.82 35.0258 109.429 36.393 109.395 37.8633C109.112 51.4458 109.21 65.02 109.688 78.5859C110.643 81.2013 112.449 82.9104 115.107 83.7129C118.846 83.724 122.557 83.9194 126.24 84.2988C127.088 85.1511 127.332 86.1765 126.973 87.375C126.826 87.912 126.484 88.2539 125.947 88.4004C121.634 88.6734 117.337 88.5759 113.057 88.1074C108.823 86.4636 106.089 83.485 104.854 79.1719C104.854 64.4259 104.854 49.6797 104.854 34.9336C105.677 31.9711 107.337 29.5786 109.834 27.7559C111.193 27.0267 112.56 26.3919 113.936 25.8516ZM120.674 40.207C148.799 40.1582 176.924 40.207 205.049 40.3535C205.684 40.5976 206.123 41.0371 206.367 41.6719C206.563 52.0234 206.563 62.3751 206.367 72.7266C206.123 73.3614 205.684 73.8009 205.049 74.0449C202.316 74.1914 199.582 74.24 196.846 74.1914C196.933 64.0726 191.952 59.3361 181.904 59.9824C175.169 62.2588 172.044 66.9949 172.529 74.1914C155.024 74.3355 137.544 74.1891 120.088 73.752C119.736 73.4874 119.492 73.1458 119.355 72.7266C119.16 62.3751 119.16 52.0234 119.355 41.6719C119.656 41.0312 120.095 40.5429 120.674 40.207ZM171.65 48.7031C172.671 49.7555 173.696 50.8297 174.727 51.9258C174.922 52.1211 174.922 52.3164 174.727 52.5117C169.942 56.8087 165.156 61.1054 160.371 65.4023C157.191 62.6124 154.017 59.8292 150.85 57.0527C151.861 55.7476 152.984 54.5269 154.219 53.3906C155.699 54.7892 157.31 56.0098 159.053 57.0527C160.029 57.2481 161.006 57.2481 161.982 57.0527C165.348 54.4186 168.57 51.6354 171.65 48.7031Z" fill="#5275EC"/>
<path opacity="0.922" fill-rule="evenodd" clip-rule="evenodd" d="M170.186 44.0137C173.002 43.6013 175.199 44.5779 176.777 46.9434C177.769 48.0324 178.648 49.2042 179.414 50.459C180 51.7285 180 52.9981 179.414 54.2676C178.407 55.5687 177.284 56.7892 176.045 57.9297C171.455 61.9337 166.865 65.9374 162.276 69.9414C161.006 70.5274 159.736 70.5274 158.467 69.9414C154.707 66.7677 150.947 63.5937 147.188 60.4199C145.956 58.8148 145.663 57.057 146.309 55.1465C148.034 52.6403 150.133 50.5407 152.608 48.8477C153.904 48.616 155.174 48.7137 156.416 49.1406C157.708 50.2014 159.026 51.2268 160.371 52.2168C163.527 49.3016 166.799 46.5672 170.186 44.0137ZM171.651 48.7012C168.571 51.6335 165.348 54.4167 161.983 57.0508C161.006 57.2462 160.029 57.2462 159.053 57.0508C157.31 56.0078 155.699 54.7873 154.219 53.3887C152.984 54.5249 151.861 55.7456 150.85 57.0508C154.018 59.8273 157.191 62.6105 160.371 65.4004C165.156 61.1034 169.942 56.8068 174.727 52.5098C174.922 52.3145 174.922 52.1192 174.727 51.9238C173.697 50.8278 172.671 49.7536 171.651 48.7012Z" fill="#5275EC"/>
</g>
<defs>
<clipPath id="clip0_1488_14381">
<rect width="150" height="150" fill="white" transform="translate(105 26)"/>
</clipPath>
</defs>
</svg>
