<svg  viewBox="0 0 56 55" fill="none" xmlns="http://www.w3.org/2000/svg">
<path fill-rule="evenodd" clip-rule="evenodd" d="M10 14C11.1935 14 12.3381 13.5259 13.182 12.682C14.0259 11.8381 14.5 10.6935 14.5 9.5C14.5 8.30653 14.0259 7.16193 13.182 6.31802C12.3381 5.47411 11.1935 5 10 5C8.80653 5 7.66193 5.47411 6.81802 6.31802C5.97411 7.16193 5.5 8.30653 5.5 9.5C5.5 10.6935 5.97411 11.8381 6.81802 12.682C7.66193 13.5259 8.80653 14 10 14ZM12.25 47.75C14.0402 47.75 15.7571 47.0388 17.023 45.773C18.2888 44.5071 19 42.7902 19 41C19 39.2098 18.2888 37.4929 17.023 36.227C15.7571 34.9612 14.0402 34.25 12.25 34.25C10.4598 34.25 8.7429 34.9612 7.47703 36.227C6.21116 37.4929 5.5 39.2098 5.5 41C5.5 42.7902 6.21116 44.5071 7.47703 45.773C8.7429 47.0388 10.4598 47.75 12.25 47.75ZM43.75 50C45.5402 50 47.2571 49.2888 48.523 48.023C49.7888 46.7571 50.5 45.0402 50.5 43.25C50.5 41.4598 49.7888 39.7429 48.523 38.477C47.2571 37.2112 45.5402 36.5 43.75 36.5C41.9598 36.5 40.2429 37.2112 38.977 38.477C37.7112 39.7429 37 41.4598 37 43.25C37 45.0402 37.7112 46.7571 38.977 48.023C40.2429 49.2888 41.9598 50 43.75 50ZM25.75 32C28.1369 32 30.4261 31.0518 32.114 29.364C33.8018 27.6761 34.75 25.3869 34.75 23C34.75 20.6131 33.8018 18.3239 32.114 16.636C30.4261 14.9482 28.1369 14 25.75 14C23.3631 14 21.0739 14.9482 19.386 16.636C17.6982 18.3239 16.75 20.6131 16.75 23C16.75 25.3869 17.6982 27.6761 19.386 29.364C21.0739 31.0518 23.3631 32 25.75 32ZM39.25 14C40.4435 14 41.5881 13.5259 42.432 12.682C43.2759 11.8381 43.75 10.6935 43.75 9.5C43.75 8.30653 43.2759 7.16193 42.432 6.31802C41.5881 5.47411 40.4435 5 39.25 5C38.0565 5 36.9119 5.47411 36.068 6.31802C35.2241 7.16193 34.75 8.30653 34.75 9.5C34.75 10.6935 35.2241 11.8381 36.068 12.682C36.9119 13.5259 38.0565 14 39.25 14Z" fill="#0025A4" stroke="#0025A4" stroke-width="2" stroke-linecap="round" stroke-linejoin="round"/>
<path d="M13.375 12.875L17.875 17.375M34.75 14L32.5 16.25M39.25 38.1875L32.5 29.75M16.75 35.375L21.25 30.875" stroke="#0025A4" stroke-width="2" stroke-linecap="round" stroke-linejoin="round"/>
</svg>
