<svg  viewBox="0 0 12 7" fill="none" xmlns="http://www.w3.org/2000/svg">
<path d="M11.6655 5.03431C11.697 5.07223 11.7206 5.11597 11.7352 5.16303C11.7497 5.21009 11.7548 5.25956 11.7502 5.3086C11.7456 5.35765 11.7314 5.40531 11.7084 5.44886C11.6854 5.49241 11.6541 5.53101 11.6161 5.56244C10.5618 6.43744 9.61613 6.74994 8.75676 6.74994C7.61988 6.74994 6.62363 6.20869 5.69801 5.70556C4.07301 4.82306 2.67051 4.06119 0.616131 5.76806C0.577925 5.7995 0.533901 5.8231 0.486573 5.83752C0.439245 5.85194 0.38954 5.8569 0.340296 5.85211C0.291052 5.84732 0.243233 5.83288 0.19957 5.80962C0.155906 5.78635 0.117254 5.75471 0.0858186 5.7165C0.0543834 5.67829 0.0307812 5.63427 0.0163598 5.58694C0.00193851 5.53961 -0.00301964 5.48991 0.00176838 5.44066C0.00655641 5.39142 0.0209969 5.3436 0.0442653 5.29994C0.0675338 5.25627 0.0991744 5.21762 0.137381 5.18619C2.58301 3.15744 4.42801 4.15994 6.05551 5.04431C7.68301 5.92869 9.08301 6.68869 11.1374 4.98181C11.1755 4.95055 11.2194 4.9271 11.2666 4.91282C11.3137 4.89853 11.3633 4.89369 11.4123 4.89857C11.4614 4.90344 11.509 4.91794 11.5524 4.94123C11.5959 4.96453 11.6343 4.99616 11.6655 5.03431ZM0.616131 1.76244C2.67051 0.0580621 4.07363 0.819937 5.69801 1.69994C6.62363 2.19994 7.61988 2.74431 8.75676 2.74431C9.61863 2.74431 10.5618 2.43181 11.6161 1.55681C11.6927 1.49333 11.7409 1.40202 11.7502 1.30298C11.7595 1.20393 11.729 1.10527 11.6655 1.02869C11.602 0.952106 11.5107 0.903881 11.4117 0.894621C11.3126 0.885361 11.214 0.915826 11.1374 0.979312C9.08301 2.68369 7.67988 1.92181 6.05551 1.04181C4.43113 0.161812 2.58301 -0.843813 0.137381 1.18619C0.0607996 1.24967 0.0125749 1.34098 0.00331524 1.44002C-0.00594436 1.53907 0.0245199 1.63773 0.0880061 1.71431C0.151492 1.79089 0.2428 1.83912 0.341843 1.84838C0.440885 1.85764 0.53955 1.82717 0.616131 1.76369V1.76244Z" fill="#989898"/>
</svg>


