<svg  viewBox="0 0 38 37" fill="none" xmlns="http://www.w3.org/2000/svg">
<path fill-rule="evenodd" clip-rule="evenodd" d="M5.11719 4.64844C5.11719 4.25061 5.27522 3.86908 5.55653 3.58778C5.83783 3.30647 6.21936 3.14844 6.61719 3.14844H24.6172C25.015 3.14844 25.3965 3.30647 25.6778 3.58778C25.9592 3.86908 26.1172 4.25061 26.1172 4.64844C26.1172 5.04626 25.9592 5.42779 25.6778 5.7091C25.3965 5.9904 25.015 6.14844 24.6172 6.14844H8.11719V24.1484C8.11719 24.5463 7.95915 24.9278 7.67785 25.2091C7.39654 25.4904 7.01501 25.6484 6.61719 25.6484C6.21936 25.6484 5.83783 25.4904 5.55653 25.2091C5.27522 24.9278 5.11719 24.5463 5.11719 24.1484V4.64844ZM11.1172 10.6484C11.1172 10.2506 11.2752 9.86908 11.5565 9.58778C11.8378 9.30647 12.2194 9.14844 12.6172 9.14844H30.6172C31.015 9.14844 31.3965 9.30647 31.6778 9.58778C31.9592 9.86908 32.1172 10.2506 32.1172 10.6484V28.6484C32.1172 29.8419 31.6431 30.9865 30.7992 31.8304C29.9553 32.6743 28.8107 33.1484 27.6172 33.1484H15.6172C14.4237 33.1484 13.2791 32.6743 12.4352 31.8304C11.5913 30.9865 11.1172 29.8419 11.1172 28.6484V10.6484Z" fill="#F6F7FF"/>
</svg>
