<svg  viewBox="0 0 81 72" fill="none" xmlns="http://www.w3.org/2000/svg">
<g filter="url(#filter0_dddd_3329_16155)">
<rect x="18" y="3" width="45" height="45" rx="16" fill="#1A1F30"/>
<path opacity="0.958" fill-rule="evenodd" clip-rule="evenodd" d="M39.8937 12.7054C43.1199 12.6408 45.6107 13.946 47.3661 16.6209C48.0232 17.7465 48.3908 18.9597 48.469 20.2606C48.6499 20.4414 48.8337 20.6252 49.0205 20.812C49.0908 20.9343 49.146 21.063 49.186 21.1981C49.2227 22.3194 49.2227 23.4407 49.186 24.562C48.8996 25.3882 48.3206 25.7099 47.4488 25.5271C47.3322 25.4964 47.2219 25.4504 47.1179 25.3892C46.0642 26.0803 44.9062 26.4755 43.6437 26.5749C43.4667 26.6411 43.3196 26.7514 43.2025 26.9058C43.0803 26.9633 42.9517 27.0001 42.8165 27.0161C42.4304 27.0529 42.0444 27.0529 41.6584 27.0161C40.9544 26.8304 40.743 26.3985 41.0242 25.7201C41.1311 25.5764 41.2689 25.4753 41.4378 25.4168C41.9709 25.38 42.5039 25.38 43.0371 25.4168C43.1949 25.4681 43.3235 25.56 43.4231 25.6925C44.5605 25.6426 45.6083 25.3118 46.5665 24.6999C46.5264 24.6227 46.4988 24.54 46.4837 24.4517C46.447 23.4223 46.447 22.3929 46.4837 21.3635C46.5548 20.9529 46.7663 20.6405 47.1179 20.426C47.0733 18.5811 46.3748 17.0278 45.0223 15.7661C42.8395 13.9317 40.413 13.5273 37.7429 14.5528C35.5159 15.6227 34.1831 17.3782 33.7448 19.8194C33.6993 20.024 33.7084 20.2263 33.7723 20.426C34.124 20.6405 34.3355 20.9529 34.4065 21.3635C34.4433 22.3929 34.4433 23.4223 34.4065 24.4517C34.0604 25.4748 33.371 25.7964 32.3385 25.4168C31.9999 25.2253 31.7885 24.9404 31.7043 24.562C31.6676 23.4407 31.6676 22.3194 31.7043 21.1981C31.7443 21.063 31.7994 20.9343 31.8698 20.812C32.0566 20.6252 32.2404 20.4414 32.4212 20.2606C32.7955 16.6705 34.6797 14.2716 38.0738 13.0639C38.6789 12.8969 39.2856 12.7774 39.8937 12.7054Z" fill="#5275EC"/>
<path opacity="0.99" fill-rule="evenodd" clip-rule="evenodd" d="M40.5523 15.3516C43.3178 15.3521 45.0734 16.6756 45.8188 19.3222C46.2037 21.2409 45.9648 23.0792 45.1019 24.8369C44.761 24.9879 44.4025 25.0798 44.0266 25.1126C43.699 24.9515 43.3498 24.8504 42.9788 24.8093C42.4986 24.7678 42.0206 24.7862 41.5449 24.8644C40.6306 25.2133 40.2905 25.8659 40.5247 26.8221C40.7627 27.373 41.1763 27.6946 41.7655 27.7872C42.2822 27.8287 42.7968 27.8195 43.3097 27.7596C43.1464 28.33 43.2935 28.7987 43.7508 29.1659C44.4069 29.5673 45.1054 29.8798 45.8464 30.1034C46.9818 30.5789 48.0479 31.1671 49.045 31.8681C50.3726 32.9033 50.8046 34.2361 50.3409 35.8663C50.0882 36.3444 49.7298 36.7213 49.2655 36.9968C48.6076 37.3632 47.9091 37.6205 47.17 37.7688C45.0103 38.1628 42.832 38.3375 40.635 38.2927C38.4923 38.3439 36.3691 38.1693 34.2655 37.7688C33.464 37.5936 32.7103 37.2995 32.0045 36.8865C30.7953 35.9436 30.492 34.7579 31.0946 33.3295C31.3513 32.8518 31.6914 32.4382 32.1148 32.0887C33.7491 30.9037 35.5138 29.9478 37.4089 29.221C38.0857 28.8082 38.2788 28.2292 37.988 27.4839C37.2334 26.5269 36.5901 25.4975 36.0578 24.3957C35.2458 22.4349 35.1723 20.4496 35.8372 18.4398C36.7731 16.4481 38.3448 15.4187 40.5523 15.3516Z" fill="#5275EC"/>
</g>
<defs>
<filter id="filter0_dddd_3329_16155" x="0" y="0" width="81" height="111" filterUnits="userSpaceOnUse" color-interpolation-filters="sRGB">
<feFlood flood-opacity="0" result="BackgroundImageFix"/>
<feColorMatrix in="SourceAlpha" type="matrix" values="0 0 0 0 0 0 0 0 0 0 0 0 0 0 0 0 0 0 127 0" result="hardAlpha"/>
<feOffset dy="3"/>
<feGaussianBlur stdDeviation="3"/>
<feColorMatrix type="matrix" values="0 0 0 0 0 0 0 0 0 0 0 0 0 0 0 0 0 0 0.1 0"/>
<feBlend mode="normal" in2="BackgroundImageFix" result="effect1_dropShadow_3329_16155"/>
<feColorMatrix in="SourceAlpha" type="matrix" values="0 0 0 0 0 0 0 0 0 0 0 0 0 0 0 0 0 0 127 0" result="hardAlpha"/>
<feOffset dy="11"/>
<feGaussianBlur stdDeviation="5.5"/>
<feColorMatrix type="matrix" values="0 0 0 0 0 0 0 0 0 0 0 0 0 0 0 0 0 0 0.09 0"/>
<feBlend mode="normal" in2="effect1_dropShadow_3329_16155" result="effect2_dropShadow_3329_16155"/>
<feColorMatrix in="SourceAlpha" type="matrix" values="0 0 0 0 0 0 0 0 0 0 0 0 0 0 0 0 0 0 127 0" result="hardAlpha"/>
<feOffset dy="25"/>
<feGaussianBlur stdDeviation="7.5"/>
<feColorMatrix type="matrix" values="0 0 0 0 0 0 0 0 0 0 0 0 0 0 0 0 0 0 0.05 0"/>
<feBlend mode="normal" in2="effect2_dropShadow_3329_16155" result="effect3_dropShadow_3329_16155"/>
<feColorMatrix in="SourceAlpha" type="matrix" values="0 0 0 0 0 0 0 0 0 0 0 0 0 0 0 0 0 0 127 0" result="hardAlpha"/>
<feOffset dy="45"/>
<feGaussianBlur stdDeviation="9"/>
<feColorMatrix type="matrix" values="0 0 0 0 0 0 0 0 0 0 0 0 0 0 0 0 0 0 0.01 0"/>
<feBlend mode="normal" in2="effect3_dropShadow_3329_16155" result="effect4_dropShadow_3329_16155"/>
<feBlend mode="normal" in="SourceGraphic" in2="effect4_dropShadow_3329_16155" result="shape"/>
</filter>
</defs>
</svg>
