  <svg
              width="18"
              height="19"
              viewBox="0 0 28 29"
              fill="none"
              xmlns="http://www.w3.org/2000/svg"
            >
              <path
                d="M0 14.5C0 14.9126 0.163888 15.3082 0.455612 15.5999C0.747335 15.8917 1.143 16.0556 1.55556 16.0556H10.8889C11.3014 16.0556 11.6971 15.8917 11.9888 15.5999C12.2806 15.3082 12.4444 14.9126 12.4444 14.5V2.05556C12.4444 1.643 12.2806 1.24733 11.9888 0.955612C11.6971 0.663888 11.3014 0.5 10.8889 0.5H1.55556C1.143 0.5 0.747335 0.663888 0.455612 0.955612C0.163888 1.24733 0 1.643 0 2.05556V14.5ZM0 26.9444C0 27.357 0.163888 27.7527 0.455612 28.0444C0.747335 28.3361 1.143 28.5 1.55556 28.5H10.8889C11.3014 28.5 11.6971 28.3361 11.9888 28.0444C12.2806 27.7527 12.4444 27.357 12.4444 26.9444V20.7222C12.4444 20.3097 12.2806 19.914 11.9888 19.6223C11.6971 19.3306 11.3014 19.1667 10.8889 19.1667H1.55556C1.143 19.1667 0.747335 19.3306 0.455612 19.6223C0.163888 19.914 0 20.3097 0 20.7222V26.9444ZM15.5556 26.9444C15.5556 27.357 15.7194 27.7527 16.0112 28.0444C16.3029 28.3361 16.6986 28.5 17.1111 28.5H26.4444C26.857 28.5 27.2527 28.3361 27.5444 28.0444C27.8361 27.7527 28 27.357 28 26.9444V14.5C28 14.0874 27.8361 13.6918 27.5444 13.4001C27.2527 13.1083 26.857 12.9444 26.4444 12.9444H17.1111C16.6986 12.9444 16.3029 13.1083 16.0112 13.4001C15.7194 13.6918 15.5556 14.0874 15.5556 14.5V26.9444ZM17.1111 0.5C16.6986 0.5 16.3029 0.663888 16.0112 0.955612C15.7194 1.24733 15.5556 1.643 15.5556 2.05556V8.27778C15.5556 8.69034 15.7194 9.086 16.0112 9.37772C16.3029 9.66945 16.6986 9.83333 17.1111 9.83333H26.4444C26.857 9.83333 27.2527 9.66945 27.5444 9.37772C27.8361 9.086 28 8.69034 28 8.27778V2.05556C28 1.643 27.8361 1.24733 27.5444 0.955612C27.2527 0.663888 26.857 0.5 26.4444 0.5H17.1111Z"
                fill="#407BFF"
              />
            </svg>