<svg  viewBox="0 0 24 24" fill="none" xmlns="http://www.w3.org/2000/svg">
<path d="M21.75 18.624V22.5006C21.75 22.6995 21.671 22.8903 21.5303 23.0309C21.3897 23.1716 21.1989 23.2506 21 23.2506C20.8011 23.2506 20.6103 23.1716 20.4697 23.0309C20.329 22.8903 20.25 22.6995 20.25 22.5006V18.624C20.2465 17.6614 20.0449 16.7097 19.6579 15.8283C19.2708 14.9469 18.7065 14.1545 18 13.5006V18.9709C17.9999 19.1323 17.9477 19.2894 17.8512 19.4187C17.7546 19.5481 17.619 19.6429 17.4643 19.689C17.3096 19.7351 17.1442 19.7301 16.9926 19.6747C16.841 19.6193 16.7113 19.5165 16.6228 19.3815L15.6216 17.8525C15.6141 17.8412 15.6066 17.829 15.6 17.8168C15.4529 17.5571 15.2087 17.3665 14.9211 17.2868C14.6334 17.2072 14.326 17.2451 14.0662 17.3922C13.8065 17.5392 13.6159 17.7834 13.5363 18.0711C13.4566 18.3587 13.4945 18.6662 13.6416 18.9259L15.7162 22.0937C15.8252 22.2602 15.8635 22.4631 15.8228 22.6578C15.7821 22.8525 15.6657 23.0231 15.4992 23.132C15.3328 23.2409 15.1298 23.2792 14.9351 23.2385C14.7404 23.1978 14.5698 23.0814 14.4609 22.915L12.3741 19.7275L12.3516 19.6918C12.3159 19.63 12.2831 19.5672 12.2531 19.5043H5.25C5.05109 19.5043 4.86032 19.4253 4.71967 19.2847C4.57902 19.144 4.5 18.9533 4.5 18.7543V9.00059C4.5 8.60277 4.65804 8.22124 4.93934 7.93993C5.22064 7.65863 5.60218 7.50059 6 7.50059H10.5V12.0006C10.5 12.1995 10.579 12.3903 10.7197 12.5309C10.8603 12.6716 11.0511 12.7506 11.25 12.7506C11.4489 12.7506 11.6397 12.6716 11.7803 12.5309C11.921 12.3903 12 12.1995 12 12.0006V7.50059H16.5C16.8978 7.50059 17.2794 7.65863 17.5607 7.93993C17.842 8.22124 18 8.60277 18 9.00059V11.59C19.1512 12.3679 20.0946 13.4155 20.7482 14.6415C21.4018 15.8675 21.7458 17.2347 21.75 18.624ZM12 3.3109L13.7194 5.03122C13.8601 5.17195 14.051 5.25101 14.25 5.25101C14.449 5.25101 14.6399 5.17195 14.7806 5.03122C14.9214 4.89048 15.0004 4.69961 15.0004 4.50059C15.0004 4.30157 14.9214 4.1107 14.7806 3.96997L11.7806 0.969965C11.711 0.900233 11.6283 0.844913 11.5372 0.80717C11.4462 0.769427 11.3486 0.75 11.25 0.75C11.1514 0.75 11.0538 0.769427 10.9628 0.80717C10.8717 0.844913 10.789 0.900233 10.7194 0.969965L7.71937 3.96997C7.57864 4.1107 7.49958 4.30157 7.49958 4.50059C7.49958 4.69961 7.57864 4.89048 7.71937 5.03122C7.86011 5.17195 8.05098 5.25101 8.25 5.25101C8.44902 5.25101 8.63989 5.17195 8.78063 5.03122L10.5 3.3109V7.50059H12V3.3109Z" fill="#699BF7"/>
</svg>
