<svg viewBox="0 0 16 16" fill="none" xmlns="http://www.w3.org/2000/svg">
<path fill-rule="evenodd" clip-rule="evenodd" d="M0.774194 11.0937C0.979522 11.0937 1.17644 11.1752 1.32163 11.3204C1.46682 11.4656 1.54839 11.6625 1.54839 11.8679V14.1935C1.54839 14.336 1.664 14.4516 1.80645 14.4516H14.1935C14.262 14.4516 14.3276 14.4244 14.376 14.376C14.4244 14.3276 14.4516 14.262 14.4516 14.1935V11.8679C14.4516 11.6625 14.5332 11.4656 14.6784 11.3204C14.8236 11.1752 15.0205 11.0937 15.2258 11.0937C15.4311 11.0937 15.6281 11.1752 15.7732 11.3204C15.9184 11.4656 16 11.6625 16 11.8679V14.1935C16 14.6726 15.8097 15.1321 15.4709 15.4709C15.1321 15.8097 14.6726 16 14.1935 16H1.80645C1.32735 16 0.867873 15.8097 0.529097 15.4709C0.190322 15.1321 0 14.6726 0 14.1935V11.8679C0 11.6625 0.0815665 11.4656 0.226756 11.3204C0.371945 11.1752 0.568865 11.0937 0.774194 11.0937ZM8.20852 0C8.41384 0 8.61076 0.0815665 8.75595 0.226756C8.90114 0.371945 8.98271 0.568865 8.98271 0.774194V9.12103C8.98271 9.32636 8.90114 9.52328 8.75595 9.66847C8.61076 9.81366 8.41384 9.89523 8.20852 9.89523C8.00319 9.89523 7.80627 9.81366 7.66108 9.66847C7.51589 9.52328 7.43432 9.32636 7.43432 9.12103V0.774194C7.43432 0.568865 7.51589 0.371945 7.66108 0.226756C7.80627 0.0815665 8.00319 0 8.20852 0Z" fill="url(#paint0_linear_1848_15474)"/>
<path fill-rule="evenodd" clip-rule="evenodd" d="M4.20467 6.57665C4.34804 6.42988 4.54382 6.34602 4.74899 6.3435C4.95415 6.34099 5.15193 6.42002 5.29886 6.56323L8.20983 9.4071L11.1208 6.56323C11.1932 6.49068 11.2793 6.43323 11.3741 6.39422C11.4689 6.3552 11.5705 6.3354 11.673 6.33595C11.7755 6.3365 11.8768 6.3574 11.9712 6.39744C12.0655 6.43748 12.151 6.49586 12.2226 6.56918C12.2942 6.64251 12.3506 6.72933 12.3884 6.82461C12.4262 6.91988 12.4447 7.02172 12.4428 7.1242C12.441 7.22668 12.4188 7.32778 12.3775 7.42161C12.3363 7.51545 12.2768 7.60017 12.2026 7.67085L8.75073 11.0432C8.60611 11.1845 8.41198 11.2635 8.20983 11.2635C8.00768 11.2635 7.81355 11.1845 7.66893 11.0432L4.21705 7.67085C4.07042 7.52733 3.98675 7.33148 3.98442 7.12631C3.9821 6.92115 4.06132 6.72345 4.20467 6.57665Z" fill="url(#paint1_linear_1848_15474)"/>
<defs>
<linearGradient id="paint0_linear_1848_15474" x1="0" y1="0" x2="16" y2="16" gradientUnits="userSpaceOnUse">
<stop stop-color="#97ABFF"/>
<stop offset="1" stop-color="#123597"/>
</linearGradient>
<linearGradient id="paint1_linear_1848_15474" x1="3.98438" y1="6.33594" x2="8.27086" y2="13.694" gradientUnits="userSpaceOnUse">
<stop stop-color="#97ABFF"/>
<stop offset="1" stop-color="#123597"/>
</linearGradient>
</defs>
</svg>
