<svg viewBox="0 0 100 100" fill="none" xmlns="http://www.w3.org/2000/svg">
<path d="M83.3812 44.6964L83.3969 44.5839C83.3961 38.7028 81.435 32.9897 77.8237 28.3478C74.2123 23.706 69.1568 20.4004 63.4564 18.9535C57.756 17.5066 51.736 18.0011 46.3481 20.3587C40.9601 22.7163 36.5118 26.8026 33.7062 31.9714C24.5594 27.1871 13.5062 33.4371 12.9219 43.7558C9.13504 45.1354 5.86408 47.6461 3.55255 50.9477C1.24103 54.2492 0.000783027 58.1818 0 62.2121C0.000828564 67.4266 2.07267 72.4274 5.75993 76.1146C9.44718 79.8019 14.4479 81.8737 19.6625 81.8746H81.3656C104.834 81.8089 106.725 47.3214 83.3844 44.6996L83.3812 44.6964Z" fill="#699BF7"/>
<path d="M51.7678 38.2322C50.7915 37.2559 49.2085 37.2559 48.2322 38.2322L32.3223 54.1421C31.346 55.1184 31.346 56.7014 32.3223 57.6777C33.2986 58.654 34.8816 58.654 35.8579 57.6777L50 43.5355L64.1421 57.6777C65.1184 58.654 66.7014 58.654 67.6777 57.6777C68.654 56.7014 68.654 55.1184 67.6777 54.1421L51.7678 38.2322ZM52.5 76L52.5 40L47.5 40L47.5 76L52.5 76Z" fill="white"/>
</svg>
