<svg  viewBox="0 0 24 24" fill="none" xmlns="http://www.w3.org/2000/svg">
<path fill-rule="evenodd" clip-rule="evenodd" d="M16.0604 10.9391C16.3413 11.2204 16.4991 11.6016 16.4991 11.9991C16.4991 12.3966 16.3413 12.7779 16.0604 13.0591L10.4044 18.7171C10.123 18.9984 9.74138 19.1563 9.34352 19.1562C8.94567 19.1562 8.56414 18.998 8.28288 18.7166C8.00162 18.4352 7.84366 18.0536 7.84375 17.6558C7.84384 17.2579 8.00198 16.8764 8.28338 16.5951L12.8794 11.9991L8.28338 7.40312C8.01 7.12035 7.85863 6.74152 7.86186 6.34822C7.86509 5.95492 8.02267 5.57862 8.30065 5.30038C8.57863 5.02213 8.95478 4.8642 9.34807 4.8606C9.74137 4.857 10.1203 5.00802 10.4034 5.28112L16.0614 10.9381L16.0604 10.9391Z" fill="#F6F7FF"/>
</svg>
