<svg width="414" height="433" viewBox="0 0 414 433" fill="none" xmlns="http://www.w3.org/2000/svg">
<g filter="url(#filter0_d_492_2980)">
<path d="M244.694 87.6592C262.892 109.327 250.582 136.547 224.078 139.75C196.214 144.674 158.874 131.101 140.676 109.434C121.829 88.0394 130.32 61.4777 158.183 56.5537C186.047 51.6298 226.497 65.9918 244.694 87.6592Z" fill="#1864F8"/>
</g>
<circle cx="51.2335" cy="51.2335" r="48.8012" transform="matrix(0.984742 -0.174019 0.643134 0.765754 109.771 64.5742)" fill="#3383FF" stroke="url(#paint0_linear_492_2980)" stroke-width="4.86455"/>
<g filter="url(#filter1_d_492_2980)">
<path d="M178.22 95.8955C148.121 66.145 169.01 46.8077 183.216 40.8579C193.399 45.4893 219.037 56.9871 240.123 65.927C266.48 77.1019 252.257 119.885 238.305 120.26C224.354 120.635 225.837 122.768 178.22 95.8955Z" fill="#337EFF"/>
</g>
<g filter="url(#filter2_b_492_2980)">
<path d="M253.892 121.136L253.841 121.142L253.79 121.151C240.262 123.541 224.304 121.452 209.441 116.049C194.577 110.647 181.002 102.001 172.168 91.4813L172.153 91.4642L172.138 91.4474C163.066 81.1485 160.753 69.8421 163.754 60.6719C166.749 51.5206 175.183 44.0472 188.555 41.6842C202.069 39.2959 218.804 41.5739 234.467 47.1832C250.131 52.793 264.467 61.6428 273.286 72.1428C281.971 82.4836 283.263 93.964 279.442 103.168C275.61 112.397 266.526 119.609 253.892 121.136Z" fill="#F6F7FF" stroke="url(#paint1_linear_492_2980)" stroke-width="3.78745"/>
</g>
<g filter="url(#filter3_b_492_2980)">
<circle cx="51.2335" cy="51.2335" r="48.8012" transform="matrix(0.984742 -0.174019 0.643134 0.765754 139.813 47.8398)" fill="#F6F7FF" stroke="url(#paint2_linear_492_2980)" stroke-width="4.86455"/>
</g>
<defs>
<filter id="filter0_d_492_2980" x="0.85582" y="55.5859" width="382.196" height="377.045" filterUnits="userSpaceOnUse" color-interpolation-filters="sRGB">
<feFlood flood-opacity="0" result="BackgroundImageFix"/>
<feColorMatrix in="SourceAlpha" type="matrix" values="0 0 0 0 0 0 0 0 0 0 0 0 0 0 0 0 0 0 127 0" result="hardAlpha"/>
<feOffset dy="162.152"/>
<feGaussianBlur stdDeviation="64.8607"/>
<feComposite in2="hardAlpha" operator="out"/>
<feColorMatrix type="matrix" values="0 0 0 0 0.343982 0 0 0 0 0.567028 0 0 0 0 1 0 0 0 0.5 0"/>
<feBlend mode="normal" in2="BackgroundImageFix" result="effect1_dropShadow_492_2980"/>
<feBlend mode="normal" in="SourceGraphic" in2="effect1_dropShadow_492_2980" result="shape"/>
</filter>
<filter id="filter1_d_492_2980" x="3.75542" y="-15.9523" width="410.21" height="397.739" filterUnits="userSpaceOnUse" color-interpolation-filters="sRGB">
<feFlood flood-opacity="0" result="BackgroundImageFix"/>
<feColorMatrix in="SourceAlpha" type="matrix" values="0 0 0 0 0 0 0 0 0 0 0 0 0 0 0 0 0 0 127 0" result="hardAlpha"/>
<feOffset dy="102.261"/>
<feGaussianBlur stdDeviation="79.5364"/>
<feComposite in2="hardAlpha" operator="out"/>
<feColorMatrix type="matrix" values="0 0 0 0 0.188235 0 0 0 0 0.220706 0 0 0 0 1 0 0 0 0.7 0"/>
<feBlend mode="normal" in2="BackgroundImageFix" result="effect1_dropShadow_492_2980"/>
<feBlend mode="normal" in="SourceGraphic" in2="effect1_dropShadow_492_2980" result="shape"/>
</filter>
<filter id="filter2_b_492_2980" x="30.8973" y="-90.8698" width="382.196" height="344.615" filterUnits="userSpaceOnUse" color-interpolation-filters="sRGB">
<feFlood flood-opacity="0" result="BackgroundImageFix"/>
<feGaussianBlur in="BackgroundImageFix" stdDeviation="64.8607"/>
<feComposite in2="SourceAlpha" operator="in" result="effect1_backgroundBlur_492_2980"/>
<feBlend mode="normal" in="SourceGraphic" in2="effect1_backgroundBlur_492_2980" result="shape"/>
</filter>
<filter id="filter3_b_492_2980" x="33.2284" y="-91.8073" width="379.974" height="339.927" filterUnits="userSpaceOnUse" color-interpolation-filters="sRGB">
<feFlood flood-opacity="0" result="BackgroundImageFix"/>
<feGaussianBlur in="BackgroundImageFix" stdDeviation="64.8607"/>
<feComposite in2="SourceAlpha" operator="in" result="effect1_backgroundBlur_492_2980"/>
<feBlend mode="normal" in="SourceGraphic" in2="effect1_backgroundBlur_492_2980" result="shape"/>
</filter>
<linearGradient id="paint0_linear_492_2980" x1="8.87844" y1="41.6791" x2="53.8635" y2="83.8704" gradientUnits="userSpaceOnUse">
<stop stop-color="white" stop-opacity="0.43"/>
<stop offset="0.846595" stop-color="white" stop-opacity="0.44"/>
<stop offset="1" stop-color="white" stop-opacity="0"/>
</linearGradient>
<linearGradient id="paint1_linear_492_2980" x1="174.833" y1="56.8419" x2="187.554" y2="112.339" gradientUnits="userSpaceOnUse">
<stop stop-color="white" stop-opacity="0"/>
<stop offset="0.846595" stop-color="white" stop-opacity="0.06"/>
<stop offset="1" stop-color="white" stop-opacity="0.23"/>
</linearGradient>
<linearGradient id="paint2_linear_492_2980" x1="8.87844" y1="41.6791" x2="53.8635" y2="83.8704" gradientUnits="userSpaceOnUse">
<stop stop-color="white" stop-opacity="0.43"/>
<stop offset="0.846595" stop-color="white" stop-opacity="0.44"/>
<stop offset="1" stop-color="white" stop-opacity="0"/>
</linearGradient>
</defs>
</svg>
