<svg viewBox="0 0 293 196" fill="none" xmlns="http://www.w3.org/2000/svg">
<path d="M112.499 195.922H80.9885C79.8003 195.922 78.6608 195.45 77.8207 194.61C76.9805 193.77 76.5085 192.63 76.5085 191.442V136.532H116.979L116.979 191.452C116.976 192.638 116.503 193.775 115.663 194.613C114.823 195.451 113.685 195.922 112.499 195.922Z" fill="#407BFF"/>
<path opacity="0.2" d="M116.98 136.531H76.5195V160.361L116.98 151.591V136.531Z" fill="black"/>
<path d="M134.389 64.4922C134.389 49.3748 140.394 34.8767 151.084 24.1871C161.773 13.4975 176.271 7.49219 191.389 7.49219C206.506 7.49219 221.004 13.4975 231.694 24.1871C242.383 34.8767 248.389 49.3748 248.389 64.4922V136.492H134.389V64.4922Z" fill="#407BFF"/>
<path opacity="0.3" d="M134.389 64.4922C134.389 49.3748 140.394 34.8767 151.084 24.1871C161.773 13.4975 176.271 7.49219 191.389 7.49219C206.506 7.49219 221.004 13.4975 231.694 24.1871C242.383 34.8767 248.389 49.3748 248.389 64.4922V136.492H134.389V64.4922Z" fill="black"/>
<path d="M0.199219 64.4844V129.434C0.199218 130.368 0.383198 131.292 0.740631 132.154C1.09806 133.016 1.62194 133.799 2.2823 134.458C2.94265 135.118 3.72653 135.641 4.5891 135.997C5.45166 136.353 6.37599 136.536 7.30922 136.534H134.389V64.4844C134.389 49.367 140.395 34.8689 151.084 24.1793C161.774 13.4897 176.272 7.48438 191.389 7.48438H57.1992C42.0819 7.48437 27.5837 13.4897 16.8941 24.1793C6.20456 34.8689 0.199219 49.367 0.199219 64.4844Z" fill="#407BFF"/>
<path opacity="0.2" d="M0.208435 115.273L134.398 115.273V95.2734L0.208435 95.2734V115.273Z" fill="black"/>
<path opacity="0.2" d="M0.208435 89.0625L134.398 89.0625V69.0625L0.208435 69.0625V89.0625Z" fill="black"/>
<path d="M142.799 3.98438H126.469V4.98438H142.799V3.98438Z" fill="#407BFF"/>
<path d="M117.909 3.98438H109.129V4.98438H117.909V3.98438Z" fill="#407BFF"/>
<path d="M65.8288 83.2211V2.22104C65.8289 1.8981 65.7586 1.57902 65.6227 1.28606C65.4869 0.993088 65.2888 0.733292 65.0422 0.52478C64.7956 0.316268 64.5064 0.164071 64.195 0.078796C63.8835 -0.00647881 63.5572 -0.0227713 63.2388 0.0310513L34.9688 4.68105V16.411H56.5788V83.041C54.3965 84.0435 52.6189 85.7566 51.5365 87.9003C50.4541 90.044 50.131 92.4915 50.6199 94.8427C51.1089 97.1939 52.381 99.3096 54.2283 100.844C56.0756 102.379 58.3888 103.241 60.7898 103.29C63.1908 103.34 65.5374 102.573 67.4462 101.116C69.3549 99.6583 70.7129 97.5965 71.2979 95.2674C71.883 92.9383 71.6607 90.4796 70.6672 88.2933C69.6738 86.1069 67.968 84.3222 65.8288 83.231V83.2211Z" fill="#263238"/>
<path d="M142.499 144.677H288.739C289.806 144.68 290.831 144.261 291.591 143.512C292.352 142.763 292.786 141.744 292.799 140.677C292.799 139.6 292.371 138.568 291.61 137.806C290.848 137.045 289.815 136.617 288.739 136.617H134.389C134.402 138.759 135.262 140.809 136.782 142.32C138.301 143.83 140.356 144.677 142.499 144.677Z" fill="#407BFF"/>
<path opacity="0.2" d="M142.499 144.677H202.259C203.326 144.68 204.351 144.261 205.111 143.512C205.872 142.763 206.306 141.744 206.319 140.677C206.319 139.6 205.891 138.568 205.13 137.806C204.368 137.045 203.335 136.617 202.259 136.617H134.389C134.402 138.759 135.262 140.809 136.782 142.32C138.301 143.83 140.356 144.677 142.499 144.677Z" fill="black"/>
<path d="M271.353 37.621L282.921 71.7948C283.371 73.1359 283.272 74.6004 282.646 75.8687C282.02 77.1371 280.918 78.1065 279.58 78.5654L201.815 104.931C200.473 105.381 199.006 105.281 197.737 104.653C196.468 104.024 195.5 102.919 195.045 101.578L183.481 67.4151C183.259 66.7676 183.166 66.0824 183.21 65.3991C183.272 64.3374 183.649 63.3183 184.293 62.4716C184.936 61.6249 185.817 60.9888 186.823 60.6444L264.604 34.2792C265.611 33.9403 266.696 33.9092 267.721 34.1899C268.746 34.4705 269.664 35.0503 270.358 35.855C270.803 36.3723 271.141 36.9725 271.353 37.621Z" fill="white"/>
<path opacity="0.6" d="M270.353 36.9298L238.179 65.7022C236.562 67.1471 234.669 68.2505 232.615 68.9461C230.561 69.6417 228.387 69.9153 226.225 69.7505L183.199 66.4901C183.262 65.4285 183.639 64.4094 184.282 63.5627C184.926 62.7159 185.807 62.0799 186.813 61.7355L264.593 35.3703C265.6 35.0283 266.685 34.994 267.711 35.2718C268.737 35.5495 269.657 36.1268 270.353 36.9298Z" fill="#30B0C7"/>
</svg>
