<svg width="150" height="150" viewBox="0 0 150 150" fill="none" xmlns="http://www.w3.org/2000/svg">
<g clip-path="url(#clip0_319_2489)">
<path d="M79.4062 12.3581C78.0499 11.6359 76.5367 11.2581 75 11.2581C73.4633 11.2581 71.9501 11.6359 70.5938 12.3581L14.3438 42.3581C12.844 43.1567 11.5894 44.3479 10.7142 45.8044C9.83904 47.2608 9.37613 48.9277 9.375 50.6269V58.2863L63.2812 90.63L75 83.5988L86.7188 90.63L140.625 58.2863V50.6269C140.624 48.9277 140.161 47.2608 139.286 45.8044C138.411 44.3479 137.156 43.1567 135.656 42.3581L79.4062 12.3581ZM140.625 69.2175L95.8313 96.0956L140.625 122.974V69.2175ZM140.297 133.717L75 94.5206L9.70312 133.708C10.2424 135.695 11.4205 137.448 13.0555 138.699C14.6905 139.949 16.6916 140.627 18.75 140.627H131.25C133.308 140.627 135.309 139.949 136.944 138.699C138.58 137.448 139.758 135.704 140.297 133.717ZM9.375 122.964L54.1687 96.0863L9.375 69.2175V122.964ZM66.1781 4.08C68.8933 2.63227 71.923 1.875 75 1.875C78.077 1.875 81.1067 2.63227 83.8219 4.08L140.072 34.08C143.071 35.6792 145.579 38.0636 147.328 40.9782C149.077 43.8928 150 47.2279 150 50.6269V131.252C150 136.225 148.025 140.994 144.508 144.51C140.992 148.026 136.223 150.002 131.25 150.002H18.75C13.7772 150.002 9.00805 148.026 5.49175 144.51C1.97544 140.994 9.37865e-08 136.225 9.37865e-08 131.252V50.6269C-0.000339812 47.2279 0.923257 43.8928 2.67201 40.9782C4.42076 38.0636 6.92888 35.6792 9.92813 34.08L66.1781 4.08Z" fill="white"/>
<g clip-path="url(#clip1_319_2489)">
<path d="M111.144 32.3495C103.132 32.3495 96.6373 35.9313 96.6373 40.356C96.6373 44.7807 103.134 48.3643 111.144 48.3643C119.156 48.3643 125.651 44.7807 125.651 40.356C125.651 35.9313 119.155 32.3495 111.144 32.3495ZM125.651 42.7345C125.648 47.1593 119.156 50.7429 111.144 50.7429C103.155 50.7429 96.6744 47.1983 96.6373 42.794V45.9264C96.6373 47.8166 97.8479 49.5471 99.8309 50.9174C101.836 51.4633 103.622 52.2209 105.11 53.179C106.954 53.6469 108.981 53.9329 111.144 53.9329C119.156 53.9329 125.651 50.3511 125.651 45.9264V42.7345ZM125.651 48.3049C125.651 52.7297 119.156 56.3133 111.144 56.3133C110.17 56.3133 109.223 56.2409 108.302 56.1387C109.028 57.1175 109.524 58.248 109.752 59.4457C110.214 59.4717 110.671 59.5032 111.144 59.5032C119.156 59.5032 125.651 55.9215 125.651 51.4967V48.3049ZM92.5764 52.7724C84.5644 52.7724 78.0693 56.356 78.0693 60.7807C78.0693 65.2054 84.5662 68.789 92.5764 68.789C100.589 68.789 107.084 65.2054 107.084 60.7807C107.084 56.356 100.587 52.7724 92.5764 52.7724ZM125.651 53.8753C125.648 58.3 119.156 61.8836 111.144 61.8836C110.678 61.8836 110.207 61.8502 109.752 61.8242C109.731 61.9635 109.72 62.1492 109.694 62.2884C109.787 62.5688 109.867 62.8455 109.867 63.1611V65.0179C110.288 65.0383 110.712 65.0736 111.144 65.0736C119.156 65.0736 125.651 61.4919 125.651 57.0671V53.8753ZM125.651 59.4457C125.648 63.8704 119.156 67.454 111.144 67.454C110.678 67.454 110.207 67.4206 109.752 67.3946C109.731 67.5339 109.72 67.7195 109.694 67.8588C109.787 68.1373 109.867 68.4158 109.867 68.7315V70.5883C110.288 70.6087 110.712 70.644 111.144 70.644C119.156 70.644 125.651 67.0622 125.651 62.6375V59.4457ZM107.084 63.1593C107.08 67.584 100.589 71.1676 92.5764 71.1676C84.5867 71.1676 78.1065 67.623 78.0693 63.2168V66.3511C78.0693 70.7758 84.5625 74.3594 92.5764 74.3594C100.59 74.3594 107.084 70.7758 107.084 66.3511V63.1593ZM107.084 68.7296C107.08 73.1544 100.589 76.738 92.5764 76.738C84.5867 76.738 78.1065 73.1934 78.0693 68.7872V71.9215C78.0693 76.3462 84.5625 79.9298 92.5764 79.9298C100.59 79.9298 107.084 76.3462 107.084 71.9215V68.7296Z" fill="#0116D4"/>
</g>
<path d="M59.4222 35.2245C51.4101 35.2245 44.9151 38.8063 44.9151 43.231C44.9151 47.6557 51.412 51.2393 59.4222 51.2393C67.4342 51.2393 73.9293 47.6557 73.9293 43.231C73.9293 38.8063 67.4324 35.2245 59.4222 35.2245ZM73.9293 45.6095C73.9256 50.0343 67.4342 53.6179 59.4222 53.6179C51.4324 53.6179 44.9522 50.0733 44.9151 45.669V48.8014C44.9151 50.6916 46.1257 52.4221 48.1088 53.7924C50.1141 54.3383 51.9003 55.0959 53.3876 56.054C55.2314 56.5219 57.259 56.8079 59.4222 56.8079C67.4342 56.8079 73.9293 53.2261 73.9293 48.8014V45.6095ZM73.9293 51.1799C73.9293 55.6047 67.4342 59.1883 59.4222 59.1883C58.4474 59.1883 57.5004 59.1159 56.5794 59.0137C57.3062 59.9925 57.802 61.123 58.0296 62.3207C58.4919 62.3467 58.9487 62.3782 59.4222 62.3782C67.4342 62.3782 73.9293 58.7965 73.9293 54.3717V51.1799ZM40.8543 55.6474C32.8422 55.6474 26.3472 59.231 26.3472 63.6557C26.3472 68.0804 32.8441 71.664 40.8543 71.664C48.8663 71.664 55.3614 68.0804 55.3614 63.6557C55.3614 59.231 48.8645 55.6474 40.8543 55.6474ZM73.9293 56.7503C73.9256 61.175 67.4342 64.7586 59.4222 64.7586C58.9561 64.7586 58.4845 64.7252 58.0296 64.6992C58.0092 64.8385 57.998 65.0242 57.972 65.1634C58.0649 65.4438 58.1447 65.7205 58.1447 66.0361V67.8929C58.5662 67.9133 58.9896 67.9486 59.4222 67.9486C67.4342 67.9486 73.9293 64.3669 73.9293 59.9421V56.7503ZM73.9293 62.3207C73.9256 66.7454 67.4342 70.329 59.4222 70.329C58.9561 70.329 58.4845 70.2956 58.0296 70.2696C58.0092 70.4089 57.998 70.5945 57.972 70.7338C58.0649 71.0123 58.1447 71.2908 58.1447 71.6065V73.4633C58.5662 73.4837 58.9896 73.519 59.4222 73.519C67.4342 73.519 73.9293 69.9372 73.9293 65.5125V62.3207ZM55.3614 66.0343C55.3577 70.459 48.8663 74.0426 40.8543 74.0426C32.8645 74.0426 26.3843 70.498 26.3472 66.0918V69.2261C26.3472 73.6508 32.8404 77.2344 40.8543 77.2344C48.8682 77.2344 55.3614 73.6508 55.3614 69.2261V66.0343ZM55.3614 71.6046C55.3577 76.0294 48.8663 79.613 40.8543 79.613C32.8645 79.613 26.3843 76.0684 26.3472 71.6622V74.7965C26.3472 79.2212 32.8404 82.8048 40.8543 82.8048C48.8682 82.8048 55.3614 79.2212 55.3614 74.7965V71.6046Z" fill="#0116D4"/>
<line x1="-8.62687" y1="51.1766" x2="49.3731" y2="87.1766" stroke="white" stroke-width="9"/>
</g>
<defs>
<clipPath id="clip0_319_2489">
<rect width="150" height="150" fill="white"/>
</clipPath>
<clipPath id="clip1_319_2489">
<rect width="48.2766" height="48.2766" fill="white" transform="translate(77.7222 32)"/>
</clipPath>
</defs>
</svg>
