<svg  viewBox="0 0 54 54" fill="none" xmlns="http://www.w3.org/2000/svg">
<g clip-path="url(#clip0_1488_14231)">
<path d="M27 54C41.9117 54 54 41.9117 54 27C54 12.0883 41.9117 0 27 0C12.0883 0 0 12.0883 0 27C0 41.9117 12.0883 54 27 54Z" fill="#328332"/>
<path d="M26.9814 27.9332L15.6397 26.9595L26.9797 20.5436V27.9332H26.9814ZM26.9814 35.4594V47.1707C23.0378 41.0316 18.6907 34.2748 15.1875 28.8056C19.3219 31.1344 23.6385 33.5694 26.9814 35.4611V35.4594ZM26.9814 18.4697L15.1875 25.0509L26.9814 6.75V18.4697Z" fill="#1A1F30"/>
<path d="M38.3231 26.9595L26.9814 27.9332V20.5436L38.3214 26.9595H38.3231ZM26.9814 35.4611C30.3227 33.5711 34.6376 31.1344 38.7737 28.8056C35.2704 34.2765 30.9234 41.0332 26.9814 47.169V35.4611ZM26.9814 18.4697V6.75L38.7737 25.0509L26.9814 18.4697Z" fill="white" fill-opacity="0.601"/>
<path opacity="0.2" fill-rule="evenodd" clip-rule="evenodd" d="M26.9814 27.9346L38.3214 26.9609L26.9814 33.3313V27.9346Z" fill="#1A1F30"/>
<path opacity="0.603" fill-rule="evenodd" clip-rule="evenodd" d="M26.9794 27.9346L15.6377 26.9609L26.9794 33.3313V27.9346Z" fill="#1A1F30"/>
</g>
<defs>
<clipPath id="clip0_1488_14231">
<rect width="54" height="54" fill="white"/>
</clipPath>
</defs>
</svg>
