<svg viewBox="0 0 24 25" fill="none" xmlns="http://www.w3.org/2000/svg">
<g clip-path="url(#clip0_425_2467)">
<path d="M12 25C18.6274 25 24 19.4036 24 12.5C24 5.59644 18.6274 0 12 0C5.37258 0 0 5.59644 0 12.5C0 19.4036 5.37258 25 12 25Z" fill="#5275EC"/>
<path d="M12.3735 3.125V10.0547L17.9963 12.6719L12.3735 3.125Z" fill="#F6F7FF"/>
<path d="M12.3735 3.125L6.75 12.6719L12.3735 10.0547V3.125Z" fill="white"/>
<path d="M12.3735 17.1617V21.8703L18 13.7617L12.3735 17.1617Z" fill="#F6F7FF"/>
<path d="M12.3735 21.8703V17.1609L6.75 13.7617L12.3735 21.8703Z" fill="white"/>
<path d="M12.3735 16.073L17.9963 12.6723L12.3735 10.0566V16.073Z" fill="#F6F7FF"/>
<path d="M6.75 12.6723L12.3735 16.073V10.0566L6.75 12.6723Z" fill="#F6F7FF"/>
</g>
<defs>
<clipPath id="clip0_425_2467">
<rect width="24" height="25" fill="white"/>
</clipPath>
</defs>
</svg>
