<svg viewBox="0 0 380 200" fill="none" xmlns="http://www.w3.org/2000/svg">
<rect width="380" height="200" rx="12" fill="#1A1F30"/>
<g clip-path="url(#clip0_1488_14366)">
<path opacity="0.979" fill-rule="evenodd" clip-rule="evenodd" d="M124.814 35.8516C168.174 35.8516 211.533 35.8516 254.893 35.8516C260.068 37.3164 263.389 40.6367 264.854 45.8125C264.854 57.1406 264.854 68.4687 264.854 79.7969C263.442 84.9681 260.121 88.2396 254.893 89.6113C222.959 89.7578 191.026 89.8067 159.092 89.7578C159.092 91.8086 159.092 93.8594 159.092 95.9102C167.286 94.1957 172.95 97.1743 176.084 104.846C184.086 102.856 189.897 105.541 193.516 112.902C199.728 110.601 205.099 111.871 209.629 116.711C210.817 118.305 211.696 120.063 212.266 121.984C212.743 132.717 212.84 143.459 212.559 154.211C210.991 167.853 204.008 177.57 191.611 183.361C188.632 184.52 185.605 185.35 182.529 185.852C169.932 185.852 157.334 185.852 144.736 185.852C128.036 182.628 118.075 172.667 114.854 155.969C114.854 146.398 114.854 136.828 114.854 127.258C117.707 118.951 123.469 115.728 132.139 117.59C132.432 108.314 132.529 99.0373 132.432 89.7578C129.891 89.8064 127.352 89.7578 124.814 89.6113C119.586 88.2396 116.265 84.9681 114.854 79.7969C114.854 68.4687 114.854 57.1406 114.854 45.8125C116.318 40.6367 119.639 37.3164 124.814 35.8516ZM127.451 44.6406C153.916 44.6406 180.381 44.6406 206.846 44.6406C206.846 56.75 206.846 68.8595 206.846 80.9688C190.83 80.9688 174.815 80.9688 158.799 80.9688C157.816 73.2487 153.421 69.1472 145.615 68.6641C139.191 69.0197 134.942 72.2424 132.871 78.332C132.592 79.191 132.445 80.0699 132.432 80.9688C130.362 81.0531 128.312 80.9066 126.279 80.5293C124.691 79.8487 123.861 78.6279 123.789 76.8672C123.594 67.4922 123.594 58.1172 123.789 48.7422C123.951 46.3852 125.171 45.018 127.451 44.6406ZM215.928 44.6406C228.442 44.5005 240.942 44.647 253.428 45.0801C255.016 45.7608 255.846 46.9815 255.918 48.7422C256.113 58.1172 256.113 67.4922 255.918 76.8672C255.846 78.6279 255.016 79.8487 253.428 80.5293C240.939 80.9608 228.439 81.1073 215.928 80.9688C215.928 68.8595 215.928 56.75 215.928 44.6406ZM144.736 77.7461C147.489 77.6187 149.198 78.8884 149.863 81.5547C149.961 98.6444 150.059 115.734 150.156 132.824C151.737 135.727 154.032 136.46 157.041 135.021C157.688 134.473 158.225 133.838 158.652 133.117C159.031 124.535 159.227 115.941 159.238 107.336C160.623 104.563 162.723 103.831 165.537 105.139C166.658 105.868 167.293 106.893 167.441 108.215C167.539 116.418 167.637 124.621 167.734 132.824C169.315 135.727 171.61 136.46 174.619 135.021C175.266 134.473 175.803 133.838 176.23 133.117C176.606 127.468 176.802 121.804 176.816 116.125C177.979 113.589 179.883 112.759 182.529 113.635C183.457 114.172 184.19 114.904 184.727 115.832C185.102 121.481 185.298 127.145 185.312 132.824C186.457 135.259 188.361 136.187 191.025 135.607C192.696 134.915 193.721 133.694 194.102 131.945C194.199 129.406 194.297 126.867 194.395 124.328C196.119 120.629 198.707 119.896 202.158 122.131C202.5 122.668 202.842 123.205 203.184 123.742C203.666 133.686 203.763 143.646 203.477 153.625C201.158 167.857 192.808 175.621 178.428 176.916C168.564 177.111 158.701 177.111 148.838 176.916C138.187 176.222 130.521 171.095 125.84 161.535C125.075 159.534 124.489 157.484 124.082 155.383C123.887 146.496 123.887 137.609 124.082 128.723C125.819 125.898 128.114 125.361 130.967 127.111C131.309 127.648 131.65 128.186 131.992 128.723C132.366 134.863 132.561 141.015 132.578 147.18C134.151 150.08 136.446 150.812 139.463 149.377C140.515 148.493 141.15 147.37 141.367 146.008C141.465 124.231 141.563 102.453 141.66 80.6758C142.277 79.2276 143.303 78.2512 144.736 77.7461Z" fill="#5275EC"/>
<path opacity="0.956" fill-rule="evenodd" clip-rule="evenodd" d="M244.053 51.9698C248.349 51.9164 250.156 53.9672 249.473 58.1221C249.278 58.5127 249.083 58.9034 248.887 59.294C244.346 63.835 239.805 68.376 235.264 72.917C233.359 73.9289 231.504 73.8314 229.698 72.6241C226.992 70.1148 224.502 67.4291 222.227 64.5674C221.633 60.1808 223.537 58.1789 227.94 58.5616C229.631 59.7148 231.194 61.0332 232.627 62.5166C235.895 59.3958 239.117 56.222 242.295 52.9952C242.861 52.5679 243.447 52.2261 244.053 51.9698Z" fill="#5275EC"/>
<path opacity="0.992" fill-rule="evenodd" clip-rule="evenodd" d="M135.068 53.4324C155.186 53.3835 175.303 53.4324 195.42 53.5789C198.479 55.5118 199.016 58.002 197.031 61.0496C196.494 61.3914 195.957 61.7331 195.42 62.075C175.303 62.2703 155.186 62.2703 135.068 62.075C132.439 60.5657 131.707 58.3684 132.871 55.4832C133.461 54.6301 134.194 53.9465 135.068 53.4324Z" fill="#5275EC"/>
</g>
<defs>
<clipPath id="clip0_1488_14366">
<rect width="150" height="150" fill="white" transform="translate(115 36)"/>
</clipPath>
</defs>
</svg>
