<svg  viewBox="0 0 24 24" fill="none" xmlns="http://www.w3.org/2000/svg">
<path d="M12 24C5.3724 24 4.6967e-07 18.6276 1.04907e-06 12C1.62848e-06 5.3724 5.3724 -1.62848e-06 12 -1.04907e-06C18.6276 -4.6967e-07 24 5.3724 24 12C24 18.6276 18.6276 24 12 24ZM12 8.4C12.3183 8.4 12.6235 8.27357 12.8485 8.04853C13.0736 7.82348 13.2 7.51826 13.2 7.2C13.2 6.88174 13.0736 6.57651 12.8485 6.35147C12.6235 6.12643 12.3183 6 12 6C11.6817 6 11.3765 6.12643 11.1515 6.35147C10.9264 6.57651 10.8 6.88174 10.8 7.2C10.8 7.51826 10.9264 7.82348 11.1515 8.04853C11.3765 8.27357 11.6817 8.4 12 8.4ZM12 19.2C12.2939 19.2 12.5776 19.0921 12.7972 18.8967C13.0169 18.7014 13.1572 18.4323 13.1916 18.1404L13.2 18L13.2 10.8C13.1997 10.4941 13.0825 10.2 12.8726 9.97756C12.6626 9.75515 12.3757 9.62132 12.0703 9.60339C11.765 9.58547 11.4643 9.68481 11.2298 9.88112C10.9953 10.0774 10.8445 10.3559 10.8084 10.6596L10.8 10.8L10.8 18C10.8 18.3183 10.9264 18.6235 11.1515 18.8485C11.3765 19.0736 11.6817 19.2 12 19.2Z" fill="#F6F7FF"/>
</svg>
