<svg width="24" height="24" viewBox="0 0 24 24" fill="none" xmlns="http://www.w3.org/2000/svg">
<path d="M11.83 8.5L15 11.66V11.5C15 10.7044 14.6839 9.94129 14.1213 9.37868C13.5587 8.81607 12.7956 8.5 12 8.5H11.83ZM7.53 9.3L9.08 10.85C9.03 11.06 9 11.27 9 11.5C9 12.2956 9.31607 13.0587 9.87868 13.6213C10.4413 14.1839 11.2044 14.5 12 14.5C12.22 14.5 12.44 14.47 12.65 14.42L14.2 15.97C13.53 16.3 12.79 16.5 12 16.5C10.6739 16.5 9.40215 15.9732 8.46447 15.0355C7.52678 14.0979 7 12.8261 7 11.5C7 10.71 7.2 9.97 7.53 9.3ZM2 3.77L4.28 6.05L4.73 6.5C3.08 7.8 1.78 9.5 1 11.5C2.73 15.89 7 19 12 19C13.55 19 15.03 18.7 16.38 18.16L16.81 18.58L19.73 21.5L21 20.23L3.27 2.5M12 6.5C13.3261 6.5 14.5979 7.02678 15.5355 7.96447C16.4732 8.90215 17 10.1739 17 11.5C17 12.14 16.87 12.76 16.64 13.32L19.57 16.25C21.07 15 22.27 13.36 23 11.5C21.27 7.11 17 4 12 4C10.6 4 9.26 4.25 8 4.7L10.17 6.85C10.74 6.63 11.35 6.5 12 6.5Z" fill="#949DB7"/>
</svg>
