<svg  viewBox="0 0 70 82" fill="none" xmlns="http://www.w3.org/2000/svg">
<path d="M68.4609 23.1641L46.5859 1.28906C46.2955 0.998956 45.9508 0.768912 45.5714 0.612075C45.192 0.455237 44.7855 0.374678 44.375 0.375001H6.875C5.2174 0.375001 3.62768 1.03348 2.45558 2.20558C1.28348 3.37769 0.625 4.9674 0.625 6.625V75.375C0.625 77.0326 1.28348 78.6223 2.45558 79.7944C3.62768 80.9665 5.2174 81.625 6.875 81.625H63.125C64.7826 81.625 66.3723 80.9665 67.5444 79.7944C68.7165 78.6223 69.375 77.0326 69.375 75.375V25.375C69.3753 24.9645 69.2948 24.558 69.1379 24.1786C68.9811 23.7992 68.751 23.4545 68.4609 23.1641ZM47.5 11.043L58.707 22.25H47.5V11.043ZM63.125 75.375H6.875V6.625H41.25V25.375C41.25 26.2038 41.5792 26.9987 42.1653 27.5847C42.7513 28.1708 43.5462 28.5 44.375 28.5H63.125V75.375Z" fill="#5275EC"/>
</svg>
