<svg viewBox="0 0 136 76" fill="none" xmlns="http://www.w3.org/2000/svg">
<rect x="1" y="1" width="134" height="73.68" rx="6" fill="#26304E"/>
<rect x="1" y="1" width="134" height="73.68" rx="6" stroke="#F6F7FF" stroke-width="2"/>
<g clip-path="url(#clip0_1166_16430)">
<path d="M65.2936 23.834V33.8582H71.477C72.9499 33.8582 74.1675 33.3644 75.1298 32.374C76.1201 31.3865 76.6139 30.2082 76.6139 28.8447C76.6139 27.4812 76.1201 26.345 75.1298 25.3546C74.1647 24.339 72.9471 23.8312 71.477 23.8312H65.2936V23.834ZM65.2936 37.3903V49.0192H61.6016V20.3047H71.3956C73.8841 20.3047 75.9939 21.1351 77.7361 22.7904C79.5064 24.4456 80.3873 26.4656 80.3873 28.8447C80.3873 31.2238 79.5064 33.3111 77.7361 34.9383C76.0247 36.5711 73.9094 37.3847 71.3956 37.3847H65.2936V37.3903ZM84.1187 42.9985C84.1187 43.9636 84.5255 44.7632 85.3447 45.4057C86.1611 46.0453 87.1178 46.368 88.2147 46.368C89.769 46.368 91.1493 45.7928 92.3669 44.6454C93.5845 43.4951 94.1933 42.1457 94.1933 40.597C93.043 39.6852 91.4355 39.2335 89.3762 39.2335C87.8781 39.2335 86.6268 39.5954 85.6252 40.3165C84.6237 41.0375 84.1187 41.9296 84.1187 42.9985ZM88.8965 28.7241C91.6263 28.7241 93.7809 29.4507 95.3604 30.9096C96.9399 32.3684 97.7255 34.3632 97.7255 36.9021V49.0136H94.1933V46.2866H94.0334C92.5072 48.531 90.476 49.6532 87.9342 49.6532C85.7655 49.6532 83.9503 49.0136 82.4943 47.7315C81.0354 46.4465 80.306 44.8446 80.306 42.9172C80.306 40.886 81.0719 39.27 82.6121 38.0692C84.1523 36.8657 86.206 36.2653 88.773 36.2653C90.967 36.2653 92.7737 36.6665 94.1905 37.4689V36.6272C94.1905 35.3451 93.6827 34.2565 92.6671 33.3616C91.6487 32.4638 90.462 32.0177 89.0957 32.0177C87.0336 32.0177 85.4036 32.8846 84.2 34.6241L80.9456 32.5788C82.7412 30.0118 85.3896 28.7297 88.8965 28.7297M117.998 29.3665L105.673 57.6742H101.861L106.437 47.7707L98.3286 29.3665H102.343L108.204 43.4811H108.283L113.983 29.3665H117.998Z" fill="#F6F7FF"/>
<path d="M50.3752 34.8788C50.3752 33.7174 50.277 32.5951 50.0919 31.5234H34.5156V37.8779H43.4344C43.0528 39.9484 41.8941 41.7103 40.1379 42.8914V47.0183H45.4628C48.5797 44.1455 50.3752 39.9007 50.3752 34.8816" fill="#4285F4"/>
<path d="M34.512 51.0043C38.97 51.0043 42.721 49.5426 45.4592 47.0205L40.1343 42.8936C38.653 43.8895 36.7452 44.4731 34.512 44.4731C30.2056 44.4731 26.55 41.5722 25.2398 37.6641H19.7578V41.9144C22.4764 47.3038 28.0622 51.0071 34.5149 51.0071" fill="#34A853"/>
<path d="M25.2439 37.6565C24.91 36.6606 24.7248 35.5973 24.7248 34.5003C24.7248 33.4034 24.9072 32.3401 25.2439 31.3441V27.0938H19.7591C18.634 29.3213 18 31.8351 18 34.5003C18 37.1656 18.634 39.6821 19.7591 41.9069L25.2439 37.6565Z" fill="#FABB05"/>
<path d="M34.512 24.5363C36.9444 24.5363 39.1271 25.3723 40.8469 27.0107C42.5667 28.6492 45.5602 22.3031 45.5602 22.3031C42.6986 19.6434 38.9672 18.0078 34.512 18.0078C28.0622 18.0078 22.4764 21.7083 19.7578 27.0977L25.2426 31.3481C26.55 27.44 30.2056 24.5391 34.5149 24.5391" fill="#E94235"/>
</g>
<defs>
<clipPath id="clip0_1166_16430">
<rect width="100" height="39.68" fill="white" transform="translate(18 18)"/>
</clipPath>
</defs>
</svg>
