<svg  viewBox="0 0 150 120" fill="none" xmlns="http://www.w3.org/2000/svg">
<path d="M101.883 15H81.75C79.875 15 78.0703 15.7031 76.6875 16.9688L53.6484 38.0625C53.625 38.0859 53.6016 38.1328 53.5781 38.1562C49.6875 41.8125 49.7578 47.6484 53.0859 51.2812C56.0625 54.5391 62.3203 55.4062 66.2344 51.9141C66.2578 51.8906 66.3047 51.8906 66.3281 51.8672L85.0547 34.7109C86.5781 33.3281 88.9688 33.4219 90.3516 34.9453C91.7578 36.4688 91.6406 38.8359 90.1172 40.2422L84 45.8438L118.125 73.5469C118.805 74.1094 119.414 74.7188 119.977 75.3516V30L107.18 17.2031C105.797 15.7969 103.875 15 101.883 15ZM127.5 30.0469V82.5234C127.5 86.6719 130.852 90.0234 135 90.0234H150V30.0469H127.5ZM138.75 82.5234C136.688 82.5234 135 80.8359 135 78.7734C135 76.7109 136.688 75.0234 138.75 75.0234C140.812 75.0234 142.5 76.7109 142.5 78.7734C142.5 80.8359 140.812 82.5234 138.75 82.5234ZM0 90H15C19.1484 90 22.5 86.6484 22.5 82.5V30.0469H0V90ZM11.25 75.0234C13.3125 75.0234 15 76.7109 15 78.7734C15 80.8359 13.3125 82.5234 11.25 82.5234C9.1875 82.5234 7.5 80.8359 7.5 78.7734C7.5 76.6875 9.1875 75.0234 11.25 75.0234ZM113.414 79.3828L78.4219 50.9766L71.3906 57.4219C64.4297 63.7734 53.7656 63.1641 47.5547 56.3906C41.25 49.5 41.7422 38.8359 48.5859 32.5547L67.7578 15H48.1172C46.125 15 44.2266 15.7969 42.8203 17.2031L30 30V82.4766H34.2891L55.5 101.672C61.9219 106.898 71.3672 105.914 76.5938 99.4922L76.6406 99.4453L80.8359 103.078C84.5625 106.125 90.0703 105.539 93.0938 101.812L100.453 92.7656L101.719 93.7969C104.93 96.3984 109.664 95.9297 112.266 92.6953L114.492 89.9531C117.117 86.7188 116.625 82.0078 113.414 79.3828Z" fill="#0116D4"/>
</svg>
