<svg width="20" height="20" viewBox="0 0 20 20" fill="none" xmlns="http://www.w3.org/2000/svg">
<path d="M9 8.98369C9 8.71847 9.10536 8.46412 9.29289 8.27658C9.48043 8.08904 9.73478 7.98369 10 7.98369C10.2652 7.98369 10.5196 8.08904 10.7071 8.27658C10.8946 8.46412 11 8.71847 11 8.98369V14.9837C11 15.2489 10.8946 15.5033 10.7071 15.6908C10.5196 15.8783 10.2652 15.9837 10 15.9837C9.73478 15.9837 9.48043 15.8783 9.29289 15.6908C9.10536 15.5033 9 15.2489 9 14.9837V8.98369ZM10 4.05469C9.73478 4.05469 9.48043 4.16004 9.29289 4.34758C9.10536 4.53512 9 4.78947 9 5.05469C9 5.3199 9.10536 5.57426 9.29289 5.76179C9.48043 5.94933 9.73478 6.05469 10 6.05469C10.2652 6.05469 10.5196 5.94933 10.7071 5.76179C10.8946 5.57426 11 5.3199 11 5.05469C11 4.78947 10.8946 4.53512 10.7071 4.34758C10.5196 4.16004 10.2652 4.05469 10 4.05469Z" fill="#85B6FF"/>
<path fill-rule="evenodd" clip-rule="evenodd" d="M10 0C4.477 0 0 4.477 0 10C0 15.523 4.477 20 10 20C15.523 20 20 15.523 20 10C20 4.477 15.523 0 10 0ZM2 10C2 12.1217 2.84285 14.1566 4.34315 15.6569C5.84344 17.1571 7.87827 18 10 18C12.1217 18 14.1566 17.1571 15.6569 15.6569C17.1571 14.1566 18 12.1217 18 10C18 7.87827 17.1571 5.84344 15.6569 4.34315C14.1566 2.84285 12.1217 2 10 2C7.87827 2 5.84344 2.84285 4.34315 4.34315C2.84285 5.84344 2 7.87827 2 10Z" fill="#85B6FF"/>
</svg>
