<svg  viewBox="0 0 69 68" fill="none" xmlns="http://www.w3.org/2000/svg">
<path opacity="0.998" fill-rule="evenodd" clip-rule="evenodd" d="M21.2852 1.92834C31.7331 2.01688 42.1809 2.10542 52.6289 2.19396C50.7285 2.78893 49.5996 4.07278 49.2422 6.04552C49.1322 13.094 49.1543 20.1331 49.3086 27.1627C49.3086 29.6419 49.3086 32.121 49.3086 34.6002C43.9086 35.6841 39.9906 38.6944 37.5547 43.6315C35.2095 49.5204 35.9179 55.0099 39.6797 60.1002C40.8039 61.3363 42.0213 62.4432 43.332 63.4205C40.8968 63.4427 38.4618 63.4205 36.0273 63.3541C34.8178 62.7825 33.6003 62.2292 32.375 61.694C31.1797 62.2694 29.9844 62.845 28.7891 63.4205C27.7566 62.8269 26.7163 62.2514 25.668 61.694C24.2175 62.2955 22.7566 62.8711 21.2852 63.4205C19.931 62.7988 18.6251 62.0905 17.3672 61.2955C16.0812 62.0047 14.7974 62.7132 13.5156 63.4205C12.6857 62.857 11.9331 62.1929 11.2578 61.4283C10.0953 62.0871 8.92211 62.7291 7.73828 63.3541C5.56902 63.4427 3.39974 63.4427 1.23047 63.3541C3.53629 63.122 5.01936 61.9046 5.67969 59.7018C5.68078 41.5462 5.76932 23.3951 5.94531 5.24865C6.44567 3.73014 7.44176 2.68976 8.93359 2.12756C13.0453 1.93341 17.1624 1.867 21.2852 1.92834Z" fill="#DBE4FF"/>
<path opacity="0.678" fill-rule="evenodd" clip-rule="evenodd" d="M21.2852 1.92188C31.9102 1.92188 42.5352 1.92188 53.1602 1.92188C53.0255 2.07776 52.8484 2.1663 52.6289 2.1875C42.1809 2.09895 31.7331 2.01042 21.2852 1.92188Z" fill="#D3D3D3"/>
<path opacity="0.996" fill-rule="evenodd" clip-rule="evenodd" d="M53.1585 1.92493C55.6199 1.79338 57.3243 2.85588 58.2718 5.11243C58.4654 8.86983 58.5319 12.6328 58.471 16.4015C58.4488 18.7925 58.471 21.1831 58.5374 23.5734C59.1711 25.6027 60.5213 26.7981 62.5882 27.1593C58.1612 27.1593 53.734 27.1593 49.307 27.1593C49.1526 20.1297 49.1306 13.0906 49.2406 6.04212C49.598 4.06938 50.7269 2.78553 52.6273 2.19056C52.8468 2.16936 53.0239 2.08081 53.1585 1.92493Z" fill="#616C8F"/>
<path fill-rule="evenodd" clip-rule="evenodd" d="M13.8474 14.0083C22.9673 13.9861 32.0871 14.0083 41.2068 14.0747C42.0874 14.7517 42.0874 15.4157 41.2068 16.0669C32.087 16.1555 22.9673 16.1555 13.8474 16.0669C13.1446 15.3809 13.1446 14.6947 13.8474 14.0083Z" fill="#7592F0"/>
<path opacity="0.988" fill-rule="evenodd" clip-rule="evenodd" d="M58.4732 16.4062C61.5279 16.4062 64.5825 16.4062 67.6372 16.4062C67.6594 18.753 67.6372 21.0993 67.5708 23.4453C66.8482 25.9223 65.188 27.1618 62.5904 27.1641C60.5234 26.8028 59.1732 25.6075 58.5396 23.5781C58.4732 21.1879 58.451 18.7973 58.4732 16.4062Z" fill="#DBE4FF"/>
<path fill-rule="evenodd" clip-rule="evenodd" d="M13.8484 21.0474C22.9682 21.0252 32.0881 21.0474 41.2078 21.1138C42.0883 21.7907 42.0883 22.4548 41.2078 23.106C32.0879 23.1946 22.9682 23.1946 13.8484 23.106C13.1443 22.4261 13.1443 21.7399 13.8484 21.0474Z" fill="#7592F0"/>
<path fill-rule="evenodd" clip-rule="evenodd" d="M13.8474 28.0864C22.9673 28.0643 32.0871 28.0864 41.2068 28.1529C42.0821 28.8411 42.0821 29.5051 41.2068 30.145C32.087 30.2336 22.9673 30.2336 13.8474 30.145C13.1446 29.4591 13.1446 28.7728 13.8474 28.0864Z" fill="#7592F0"/>
<path opacity="0.995" fill-rule="evenodd" clip-rule="evenodd" d="M43.3313 63.4209C42.0206 62.4435 40.8032 61.3366 39.679 60.1006C35.9172 55.0103 35.2088 49.5207 37.554 43.6318C39.9899 38.6948 43.9079 35.6844 49.3079 34.6006C56.1087 33.7628 61.4432 36.1534 65.3118 41.7724C68.0031 46.5109 68.3573 51.425 66.3743 56.5146C62.6509 63.7444 56.7407 66.7769 48.6438 65.6123C46.7276 65.2068 44.9568 64.4763 43.3313 63.4209Z" fill="#7592F0"/>
<path fill-rule="evenodd" clip-rule="evenodd" d="M13.8471 35.1255C21.993 35.1033 30.1389 35.1255 38.2846 35.1919C39.1246 35.7861 39.1688 36.4502 38.4174 37.1841C30.2272 37.2727 22.0372 37.2727 13.8471 37.1841C13.4465 36.981 13.2694 36.649 13.3158 36.188C13.338 36.011 13.3601 35.8338 13.3822 35.6568C13.5649 35.4967 13.7199 35.3197 13.8471 35.1255Z" fill="#7592F0"/>
<path fill-rule="evenodd" clip-rule="evenodd" d="M51.5667 37.7819C52.2202 37.7212 52.6851 37.9868 52.9612 38.5788C53.0498 42.5189 53.0498 46.4589 52.9612 50.3991C52.8702 50.7387 52.671 50.9823 52.3635 51.1296C49.6631 51.2181 46.9624 51.2181 44.262 51.1296C43.3814 50.4784 43.3814 49.8143 44.262 49.1374C46.4308 49.071 48.6 49.0488 50.7698 49.071C50.7476 45.5733 50.7698 42.0759 50.8362 38.5788C51.0168 38.2437 51.2603 37.9781 51.5667 37.7819Z" fill="#26304E"/>
<path fill-rule="evenodd" clip-rule="evenodd" d="M13.8471 42.1646C20.355 42.1424 26.8628 42.1646 33.3705 42.231C33.9979 42.5544 34.1971 43.0636 33.9682 43.7583C33.8132 43.9133 33.6583 44.0682 33.5033 44.2232C26.9513 44.3117 20.3991 44.3117 13.8471 44.2232C13.4465 44.0201 13.2694 43.6881 13.3158 43.2271C13.338 43.05 13.3601 42.8729 13.3822 42.6958C13.5649 42.5358 13.7199 42.3587 13.8471 42.1646Z" fill="#7592F0"/>
<path fill-rule="evenodd" clip-rule="evenodd" d="M13.8485 49.2036C19.9137 49.1815 25.9789 49.2036 32.0438 49.27C33.1363 50.0496 33.0921 50.7579 31.911 51.395C25.9786 51.4836 20.0464 51.4836 14.1141 51.395C13.371 51.0824 13.1275 50.529 13.3836 49.7349C13.5663 49.5748 13.7213 49.3978 13.8485 49.2036Z" fill="#7592F0"/>
</svg>
