<svg  viewBox="0 0 16 16" fill="none" xmlns="http://www.w3.org/2000/svg">
<g clip-path="url(#clip0_1281_15299)">
<path d="M8.00018 0L14.6102 3H15.5002C15.6328 3 15.76 3.05268 15.8537 3.14645C15.9475 3.24021 16.0002 3.36739 16.0002 3.5V5.5C16.0002 5.63261 15.9475 5.75979 15.8537 5.85355C15.76 5.94732 15.6328 6 15.5002 6H15.0002V13C15.1118 13.0001 15.2203 13.0375 15.3082 13.1064C15.3961 13.1753 15.4584 13.2716 15.4852 13.38L15.9852 15.38C16.0038 15.4537 16.0053 15.5306 15.9896 15.6049C15.9739 15.6793 15.9414 15.749 15.8946 15.8088C15.8478 15.8687 15.7879 15.917 15.7195 15.9501C15.6512 15.9833 15.5761 16.0003 15.5002 16H0.500176C0.424207 16.0003 0.349169 15.9833 0.280805 15.9501C0.212441 15.917 0.152564 15.8687 0.105756 15.8088C0.0589479 15.749 0.0264503 15.6793 0.0107504 15.6049C-0.00494953 15.5306 -0.00343564 15.4537 0.0151762 15.38L0.515176 13.38C0.541976 13.2716 0.604291 13.1753 0.69219 13.1064C0.780088 13.0375 0.888511 13.0001 1.00018 13V6H0.500176C0.367568 6 0.240391 5.94732 0.146623 5.85355C0.0528546 5.75979 0.000176185 5.63261 0.000176185 5.5V3.5C0.000176185 3.36739 0.0528546 3.24021 0.146623 3.14645C0.240391 3.05268 0.367568 3 0.500176 3H1.39018L8.00018 0ZM3.77718 3H12.2242L8.00018 1L3.77718 3ZM2.00018 6V13H3.00018V6H2.00018ZM4.00018 6V13H6.50018V6H4.00018ZM7.50018 6V13H8.50018V6H7.50018ZM9.50018 6V13H12.0002V6H9.50018ZM13.0002 6V13H14.0002V6H13.0002ZM15.0002 5V4H1.00018V5H15.0002ZM14.6102 14H1.39018L1.14018 15H14.8602L14.6102 14Z" fill="#616C8F"/>
</g>
<defs>
<clipPath id="clip0_1281_15299">
<rect width="16" height="16" fill="white"/>
</clipPath>
</defs>
</svg>
