<svg width="231" height="231" viewBox="0 0 231 231" fill="none" xmlns="http://www.w3.org/2000/svg">
<path d="M192.5 144.376V72.1882L132.344 38.3516M98.6562 38.3516L38.5 72.1882V144.376M52.9375 166.937L115.5 202.126L154 180.469L178.062 166.937M115.5 81.8132L129.938 90.2351L144.375 98.657V132.344L129.938 140.766L115.5 149.188L101.062 140.766L86.625 132.344V98.657L101.062 90.2351L115.5 81.8132ZM115.5 81.8132V48.1257M144.375 129.938L178.062 149.188M86.625 129.938L52.9375 149.188" stroke="white" stroke-width="5" stroke-linecap="round" stroke-linejoin="round"/>
<path d="M115.5 48.125C123.474 48.125 129.938 41.6611 129.938 33.6875C129.938 25.7139 123.474 19.25 115.5 19.25C107.526 19.25 101.062 25.7139 101.062 33.6875C101.062 41.6611 107.526 48.125 115.5 48.125Z" stroke="white" stroke-width="5" stroke-linecap="round" stroke-linejoin="round"/>
<path d="M38.5 173.25C46.4736 173.25 52.9375 166.786 52.9375 158.812C52.9375 150.839 46.4736 144.375 38.5 144.375C30.5264 144.375 24.0625 150.839 24.0625 158.812C24.0625 166.786 30.5264 173.25 38.5 173.25Z" stroke="white" stroke-width="5" stroke-linecap="round" stroke-linejoin="round"/>
<path d="M192.5 173.25C200.474 173.25 206.938 166.786 206.938 158.812C206.938 150.839 200.474 144.375 192.5 144.375C184.526 144.375 178.062 150.839 178.062 158.812C178.062 166.786 184.526 173.25 192.5 173.25Z" stroke="white" stroke-width="5" stroke-linecap="round" stroke-linejoin="round"/>
<rect x="95" y="161" width="91" height="51" fill="#161616"/>
</svg>
