<svg  viewBox="0 0 54 54" fill="none" xmlns="http://www.w3.org/2000/svg">
<g clip-path="url(#clip0_1488_14237)">
<path d="M27.0002 0C19.8657 0.0208117 13.0311 2.87225 7.99728 7.92814C2.96347 12.984 0.141967 19.831 0.152372 26.9655C0.162778 34.1 3.00424 40.9388 8.05278 45.9799C13.1013 51.0211 19.9442 53.8526 27.0787 53.8526C34.2132 53.8526 41.0561 51.0211 46.1046 45.9799C51.1532 40.9388 53.9946 34.1 54.005 26.9655C54.0155 19.831 51.1939 12.984 46.1601 7.92814C41.1263 2.87225 34.2917 0.0208117 27.1573 0L27.0002 0Z" fill="#345D9D"/>
<path d="M27.4911 27.6009L25.1126 35.588H37.7683C37.8519 35.5837 37.9356 35.5971 38.0137 35.6272C38.0918 35.6565 38.1635 35.7007 38.2248 35.7573C38.2857 35.8153 38.3348 35.8845 38.3696 35.961C38.4065 36.0378 38.4266 36.1214 38.4285 36.2065V36.4151L37.3265 40.2123C37.2793 40.3924 37.1708 40.5504 37.0196 40.659C36.8699 40.7689 36.6872 40.8243 36.5017 40.8161H17.1354L20.3803 29.7707L16.75 30.8703L17.5747 28.3397L21.205 27.2376L25.7729 11.7003C25.8224 11.5213 25.9315 11.3646 26.0822 11.256C26.2312 11.1462 26.4126 11.0892 26.5976 11.094H31.5067C31.5905 11.0919 31.6738 11.1061 31.7522 11.1358C31.8313 11.1645 31.9039 11.2087 31.9657 11.2659C32.0277 11.3229 32.077 11.3923 32.1105 11.4696C32.1457 11.5468 32.1649 11.6302 32.167 11.715V11.9261L28.3158 25.0211L31.9485 23.919L31.1729 26.5552L27.4911 27.6009Z" fill="#1A1F30"/>
</g>
<defs>
<clipPath id="clip0_1488_14237">
<rect width="54" height="54" fill="white"/>
</clipPath>
</defs>
</svg>
