<svg  viewBox="0 0 24 24" fill="none" xmlns="http://www.w3.org/2000/svg">
<path d="M21.1576 1.8034C21.7649 2.14352 22.2122 2.71091 22.4012 3.3808C22.5903 4.0507 22.5055 4.76825 22.1656 5.37565L13.5331 20.7911C13.3144 21.1817 13.0112 21.5183 12.6456 21.7765C12.2799 22.0346 11.8612 22.2077 11.42 22.2829C10.9788 22.3582 10.5264 22.3339 10.0959 22.2116C9.66531 22.0894 9.26758 21.8723 8.93181 21.5764L2.38956 15.8134C1.86721 15.3531 1.54911 14.7042 1.50522 14.0094C1.46134 13.3145 1.69527 12.6307 2.15556 12.1084C2.61584 11.5861 3.26477 11.268 3.95959 11.2241C4.65441 11.1802 5.33821 11.4141 5.86056 11.8744L10.3126 15.7969L17.5846 2.8114C17.753 2.5106 17.979 2.24591 18.2497 2.03246C18.5204 1.819 18.8305 1.66096 19.1623 1.56736C19.4941 1.47376 19.841 1.44643 20.1834 1.48693C20.5257 1.52743 20.8568 1.63496 21.1576 1.8034Z" fill="#0FA958"/>
</svg>
