  <svg
              width="18"
              height="19"
              viewBox="0 0 32 32"
              fill="none"
              xmlns="http://www.w3.org/2000/svg"
            >
              <path
                fill-rule="evenodd"
                clip-rule="evenodd"
                d="M6.17533 4C5.92333 4 5.69867 4.17467 5.612 4.43733L4.07333 9.11133C4.02475 9.25914 4 9.41374 4 9.56933V11.4287C4 12.48 4.76733 13.3333 5.714 13.3333C6.66067 13.3333 7.42867 12.48 7.42867 11.4287C7.42867 12.4807 8.196 13.3333 9.14267 13.3333C10.0893 13.3333 10.8573 12.48 10.8573 11.4287C10.8573 12.4807 11.6247 13.3333 12.5713 13.3333C13.518 13.3333 14.2847 12.4813 14.286 11.43C14.286 12.4813 15.0533 13.3333 16 13.3333C16.9467 13.3333 17.714 12.48 17.714 11.4287C17.714 12.4807 18.482 13.3333 19.4287 13.3333C20.3753 13.3333 21.142 12.4813 21.1427 11.43C21.1433 12.4813 21.9107 13.3333 22.8573 13.3333C23.804 13.3333 24.5713 12.48 24.5713 11.4287C24.5713 12.4807 25.3387 13.3333 26.286 13.3333C27.2327 13.3333 28 12.48 28 11.4287V9.56933C28 9.41374 27.9753 9.25914 27.9267 9.11133L26.388 4.438C26.3013 4.17467 26.0767 4 25.8247 4H6.17533Z"
                fill="#407BFF"
              />
              <path
                fill-rule="evenodd"
                clip-rule="evenodd"
                d="M6.6665 14.1546V19.3346H4.99984C4.91143 19.3346 4.82665 19.3698 4.76414 19.4323C4.70162 19.4948 4.6665 19.5796 4.6665 19.668V20.3346C4.6665 20.423 4.70162 20.5078 4.76414 20.5703C4.82665 20.6328 4.91143 20.668 4.99984 20.668H26.9998C27.0882 20.668 27.173 20.6328 27.2355 20.5703C27.298 20.5078 27.3332 20.423 27.3332 20.3346V19.668C27.3332 19.5796 27.298 19.4948 27.2355 19.4323C27.173 19.3698 27.0882 19.3346 26.9998 19.3346H25.3332V14.1546C25.0541 14.0434 24.7963 13.8849 24.5712 13.686C24.3983 13.8384 24.2063 13.9675 23.9998 14.07V19.3346H7.99984V14.07C7.79342 13.9675 7.60134 13.8384 7.4285 13.686C7.2045 13.8826 6.9485 14.0426 6.6665 14.1546ZM23.9998 12.85C24.0565 12.7933 24.1098 12.7326 24.1598 12.668H23.9998V12.85ZM24.9825 12.668C25.0833 12.7986 25.2012 12.9149 25.3332 13.014V12.668H24.9825ZM6.6665 13.014C6.79909 12.9157 6.91715 12.7992 7.01717 12.668H6.6665V13.014ZM7.83984 12.668H7.99984V12.85C7.94257 12.7929 7.88912 12.7321 7.83984 12.668ZM5.6665 22.0013C5.5781 22.0013 5.49331 22.0364 5.4308 22.0989C5.36829 22.1614 5.33317 22.2462 5.33317 22.3346V27.3346C5.33317 27.5114 5.40341 27.681 5.52843 27.806C5.65346 27.9311 5.82303 28.0013 5.99984 28.0013H25.9998C26.1766 28.0013 26.3462 27.9311 26.4712 27.806C26.5963 27.681 26.6665 27.5114 26.6665 27.3346V22.3346C26.6665 22.2462 26.6314 22.1614 26.5689 22.0989C26.5064 22.0364 26.4216 22.0013 26.3332 22.0013H5.6665Z"
                fill="#407BFF"
              />
              <path
                d="M9.3335 17.6654C9.3335 17.577 9.36861 17.4922 9.43113 17.4297C9.49364 17.3671 9.57842 17.332 9.66683 17.332H11.6668C11.7552 17.332 11.84 17.3671 11.9025 17.4297C11.965 17.4922 12.0002 17.577 12.0002 17.6654V18.9987C12.0002 19.0871 11.965 19.1719 11.9025 19.2344C11.84 19.2969 11.7552 19.332 11.6668 19.332H9.66683C9.57842 19.332 9.49364 19.2969 9.43113 19.2344C9.36861 19.1719 9.3335 19.0871 9.3335 18.9987V17.6654Z"
                fill="#407BFF"
              />
              <path
                d="M10.6665 18.332C10.6665 18.2436 10.7016 18.1588 10.7641 18.0963C10.8266 18.0338 10.9114 17.9987 10.9998 17.9987H12.9998C13.0882 17.9987 13.173 18.0338 13.2355 18.0963C13.2981 18.1588 13.3332 18.2436 13.3332 18.332V18.9987C13.3332 19.0871 13.2981 19.1719 13.2355 19.2344C13.173 19.2969 13.0882 19.332 12.9998 19.332H10.9998C10.9114 19.332 10.8266 19.2969 10.7641 19.2344C10.7016 19.1719 10.6665 19.0871 10.6665 18.9987V18.332ZM15.9998 18.332C15.9998 18.5972 15.8945 18.8516 15.7069 19.0391C15.5194 19.2267 15.2651 19.332 14.9998 19.332C14.7346 19.332 14.4803 19.2267 14.2927 19.0391C14.1052 18.8516 13.9998 18.5972 13.9998 18.332C13.9998 18.0668 14.1052 17.8125 14.2927 17.6249C14.4803 17.4374 14.7346 17.332 14.9998 17.332C15.2651 17.332 15.5194 17.4374 15.7069 17.6249C15.8945 17.8125 15.9998 18.0668 15.9998 18.332Z"
                fill="#407BFF"
              />
            </svg>