<svg viewBox="0 0 128 128" fill="none" xmlns="http://www.w3.org/2000/svg">
<g clip-path="url(#clip0_1107_8060)">
<path d="M36.0208 123.967C35.3208 123.947 34.6108 123.887 33.9208 123.767C31.7963 123.388 29.8125 122.446 28.1766 121.039C26.5406 119.632 25.3126 117.811 24.6208 115.767L4.6208 55.7667C2.5208 49.4667 5.9208 42.6667 12.2208 40.5667C18.5208 38.4667 25.3208 41.8667 27.4208 48.1667L40.4208 87.1667L102.621 8.56674C106.731 3.34674 114.301 2.45674 119.521 6.56674C124.741 10.6767 125.631 18.2467 121.521 23.4667L45.5208 119.467C44.3659 120.869 42.9156 122 41.2735 122.778C39.6314 123.556 37.8378 123.962 36.0208 123.967Z" fill="#5275EC"/>
<path opacity="0.35" d="M75.169 58.9125C76.659 57.6725 105.139 23.6925 105.139 23.6925C105.139 23.6925 107.519 21.1625 105.499 18.9425C103.599 16.9125 101.119 18.2425 99.929 19.5625C98.739 20.8825 73.039 51.1825 71.979 52.6825C71.4695 53.5115 71.1923 54.4623 71.1765 55.4352C71.1607 56.4081 71.4067 57.3673 71.889 58.2125C72.829 59.7325 74.139 59.8125 75.169 58.9125Z" fill="white"/>
<path opacity="0.35" d="M108.448 16.1312C110.271 16.1312 111.748 14.6538 111.748 12.8313C111.748 11.0087 110.271 9.53125 108.448 9.53125C106.626 9.53125 105.148 11.0087 105.148 12.8313C105.148 14.6538 106.626 16.1312 108.448 16.1312Z" fill="white"/>
<path opacity="0.35" d="M12.7286 65.4919C13.3986 65.4819 13.2586 61.7319 15.0086 58.1419C16.2386 55.6019 17.8286 54.3219 17.8186 52.9019C17.8086 51.4819 15.8986 44.5619 14.4686 45.0219C12.4786 45.6519 9.93863 48.2119 9.36863 52.2019C8.47863 58.4819 11.4986 65.5119 12.7286 65.4919Z" fill="white"/>
<path d="M26.75 33C26.75 33.1483 26.706 33.2933 26.6236 33.4167C26.5412 33.54 26.4241 33.6361 26.287 33.6929C26.15 33.7497 25.9992 33.7645 25.8537 33.7356C25.7082 33.7067 25.5746 33.6352 25.4697 33.5303C25.3648 33.4254 25.2934 33.2918 25.2644 33.1463C25.2355 33.0008 25.2503 32.85 25.3071 32.713C25.3639 32.5759 25.46 32.4588 25.5833 32.3764C25.7067 32.294 25.8517 32.25 26 32.25C26.1989 32.25 26.3897 32.329 26.5303 32.4697C26.671 32.6103 26.75 32.8011 26.75 33Z" fill="#85B6FF"/>
<g clip-path="url(#clip1_1107_8060)">
<path d="M48.6509 29.1165L50.3306 29.5837C50.3506 29.5895 50.3689 29.6003 50.3836 29.615C50.3984 29.6298 50.4092 29.648 50.415 29.6681L50.8821 31.3478C50.8894 31.3732 50.9048 31.3956 50.9259 31.4116C50.9471 31.4275 50.9729 31.4362 50.9993 31.4362C51.0258 31.4362 51.0516 31.4275 51.0727 31.4116C51.0939 31.3956 51.1092 31.3732 51.1165 31.3478L51.5837 29.6681C51.5895 29.648 51.6003 29.6298 51.615 29.615C51.6298 29.6003 51.648 29.5895 51.6681 29.5837L53.3478 29.1165C53.3732 29.1092 53.3956 29.0939 53.4116 29.0727C53.4275 29.0516 53.4362 29.0258 53.4362 28.9993C53.4362 28.9729 53.4275 28.9471 53.4116 28.9259C53.3956 28.9048 53.3732 28.8894 53.3478 28.8821L51.6681 28.415C51.648 28.4092 51.6298 28.3984 51.615 28.3836C51.6003 28.3689 51.5895 28.3506 51.5837 28.3306L51.1165 26.6509C51.1092 26.6254 51.0939 26.603 51.0727 26.5871C51.0516 26.5711 51.0258 26.5625 50.9993 26.5625C50.9729 26.5625 50.9471 26.5711 50.9259 26.5871C50.9048 26.603 50.8894 26.6254 50.8821 26.6509L50.415 28.3306C50.4092 28.3506 50.3984 28.3689 50.3836 28.3836C50.3689 28.3984 50.3506 28.4092 50.3306 28.415L48.6509 28.8821C48.6254 28.8894 48.603 28.9048 48.5871 28.9259C48.5711 28.9471 48.5625 28.9729 48.5625 28.9993C48.5625 29.0258 48.5711 29.0516 48.5871 29.0727C48.603 29.0939 48.6254 29.1092 48.6509 29.1165Z" fill="url(#paint0_linear_1107_8060)" stroke="#FCD34D" stroke-width="2" stroke-linecap="round" stroke-linejoin="round"/>
</g>
<path d="M77.75 10C77.75 10.1483 77.706 10.2933 77.6236 10.4167C77.5412 10.54 77.4241 10.6361 77.287 10.6929C77.15 10.7497 76.9992 10.7645 76.8537 10.7356C76.7082 10.7067 76.5746 10.6352 76.4697 10.5303C76.3648 10.4254 76.2934 10.2918 76.2644 10.1463C76.2355 10.0008 76.2503 9.85003 76.3071 9.71299C76.3639 9.57594 76.46 9.45881 76.5833 9.3764C76.7067 9.29399 76.8517 9.25 77 9.25C77.1989 9.25 77.3897 9.32902 77.5303 9.46967C77.671 9.61032 77.75 9.80109 77.75 10Z" fill="#85B6FF"/>
<path d="M124.75 59C124.75 59.1483 124.706 59.2933 124.624 59.4167C124.541 59.54 124.424 59.6361 124.287 59.6929C124.15 59.7497 123.999 59.7645 123.854 59.7356C123.708 59.7067 123.575 59.6352 123.47 59.5303C123.365 59.4254 123.293 59.2918 123.264 59.1463C123.235 59.0008 123.25 58.85 123.307 58.713C123.364 58.5759 123.46 58.4588 123.583 58.3764C123.707 58.294 123.852 58.25 124 58.25C124.199 58.25 124.39 58.329 124.53 58.4697C124.671 58.6103 124.75 58.8011 124.75 59Z" fill="#85B6FF"/>
<path d="M83.75 112C83.75 112.148 83.706 112.293 83.6236 112.417C83.5412 112.54 83.4241 112.636 83.287 112.693C83.15 112.75 82.9992 112.765 82.8537 112.736C82.7082 112.707 82.5746 112.635 82.4697 112.53C82.3648 112.425 82.2934 112.292 82.2644 112.146C82.2355 112.001 82.2503 111.85 82.3071 111.713C82.3639 111.576 82.46 111.459 82.5833 111.376C82.7067 111.294 82.8517 111.25 83 111.25C83.1989 111.25 83.3897 111.329 83.5303 111.47C83.671 111.61 83.75 111.801 83.75 112Z" fill="#85B6FF"/>
<path d="M2.75 123C2.75 123.148 2.70601 123.293 2.6236 123.417C2.54119 123.54 2.42406 123.636 2.28701 123.693C2.14997 123.75 1.99917 123.765 1.85368 123.736C1.7082 123.707 1.57456 123.635 1.46967 123.53C1.36478 123.425 1.29335 123.292 1.26441 123.146C1.23547 123.001 1.25032 122.85 1.30709 122.713C1.36386 122.576 1.45999 122.459 1.58332 122.376C1.70666 122.294 1.85166 122.25 2 122.25C2.19891 122.25 2.38968 122.329 2.53033 122.47C2.67098 122.61 2.75 122.801 2.75 123Z" fill="#85B6FF"/>
</g>
<defs>
<linearGradient id="paint0_linear_1107_8060" x1="49.9353" y1="27.1571" x2="52.0634" y2="30.8415" gradientUnits="userSpaceOnUse">
<stop stop-color="#FCD966"/>
<stop offset="0.5" stop-color="#FCD966"/>
<stop offset="1" stop-color="#FCCD34"/>
</linearGradient>
<clipPath id="clip0_1107_8060">
<rect width="128" height="128" fill="white"/>
</clipPath>
<clipPath id="clip1_1107_8060">
<rect width="8" height="8" fill="white" transform="translate(47 25)"/>
</clipPath>
</defs>
</svg>
