<svg width="141" height="43" viewBox="0 0 141 43" fill="none" xmlns="http://www.w3.org/2000/svg">
<g clip-path="url(#clip0_1141_10532)">
<rect width="141" height="43" fill="#26304E"/>
<path d="M38.3191 16.3617C40.3617 16.3617 42 14.7021 42 12.6809C42 10.6383 40.3404 9 38.3191 9C36.2766 9 34.6383 10.6596 34.6383 12.6809C34.6383 14.7021 36.2766 16.3617 38.3191 16.3617ZM27 32.9787C22.0213 32.9787 18 28.9574 18 23.9787C18 19 22.0213 14.9787 27 14.9787C31.9787 14.9787 36 19 36 23.9787C36 28.9574 31.9787 32.9787 27 32.9787Z" fill="#7D00FF"/>
<path d="M116.708 25.3316L113.213 17.3093H115.556L117.939 23.0548L120.697 17.3093H123L117.564 28.3584H115.235L116.708 25.3316ZM108.22 23.6709C108.42 23.6173 108.621 23.5503 108.809 23.4432C108.983 23.3495 109.157 23.2289 109.304 23.095C109.451 22.9611 109.585 22.8003 109.692 22.6262C109.799 22.4387 109.893 22.2378 109.947 22.037C110.014 21.8093 110.04 21.5816 110.04 21.3405C110.04 21.0995 110.014 20.8718 109.947 20.6441C109.893 20.4432 109.799 20.2423 109.692 20.0548C109.585 19.8807 109.451 19.72 109.304 19.5861C109.157 19.4521 108.983 19.3316 108.809 19.2379C108.621 19.1441 108.42 19.0771 108.22 19.0236C108.005 18.97 107.778 18.9432 107.564 18.9566C107.349 18.9566 107.122 18.9834 106.908 19.0236C106.707 19.0637 106.506 19.1441 106.318 19.2379C106.131 19.3316 105.97 19.4521 105.823 19.5861C105.676 19.72 105.542 19.8807 105.435 20.0548C105.328 20.2423 105.234 20.4432 105.18 20.6441C105.114 20.8718 105.087 21.1128 105.087 21.3405C105.087 21.5682 105.114 21.8093 105.18 22.037C105.234 22.2378 105.328 22.4387 105.435 22.6262C105.542 22.8003 105.676 22.9611 105.823 23.095C105.97 23.2289 106.144 23.3495 106.318 23.4432C106.506 23.537 106.693 23.6173 106.908 23.6709C107.122 23.7245 107.336 23.7512 107.564 23.7378C107.778 23.7512 107.992 23.7245 108.22 23.6709ZM105.85 25.4655C105.488 25.3718 105.14 25.2378 104.819 25.0503C104.19 24.7021 103.668 24.1798 103.32 23.5503C103.132 23.2289 102.998 22.8807 102.905 22.5191C102.717 21.7423 102.717 20.9387 102.905 20.162C102.998 19.8004 103.132 19.4521 103.32 19.1307C103.668 18.5012 104.19 17.9923 104.819 17.6307C105.14 17.4566 105.488 17.3093 105.85 17.2155C106.238 17.1218 106.626 17.0682 107.028 17.0682C107.242 17.0682 107.456 17.0816 107.671 17.1084C107.871 17.1352 108.059 17.1754 108.246 17.2289C108.42 17.2825 108.594 17.3361 108.755 17.4164C108.916 17.4834 109.063 17.5638 109.21 17.6575C109.344 17.7379 109.478 17.845 109.585 17.9521C109.692 18.0593 109.799 18.1664 109.88 18.287V17.3227H112.102V25.3852H109.88V24.4209C109.585 24.7959 109.197 25.0905 108.755 25.2914C108.501 25.4119 108.233 25.4923 107.952 25.5325C107.644 25.5861 107.323 25.6262 107.015 25.6128C106.626 25.6128 106.238 25.5727 105.85 25.4655ZM97.7903 19.3584C98.1116 19.3584 98.4329 19.3316 98.7408 19.2512C98.9818 19.1843 99.2094 19.0771 99.3968 18.9164C99.5709 18.7691 99.7048 18.5816 99.7851 18.3673C99.8654 18.1262 99.919 17.8718 99.9056 17.6173C99.9056 17.3629 99.8654 17.1084 99.7851 16.8673C99.7048 16.653 99.5709 16.4789 99.3968 16.3316C99.2094 16.1843 98.9818 16.0638 98.7408 16.0102C98.4329 15.9298 98.1116 15.8896 97.7903 15.903H95.608V19.3584H97.7903ZM93.3052 14.0013H98.0179C98.6739 13.9879 99.3165 14.0816 99.9323 14.2691C100.428 14.4164 100.883 14.6843 101.271 15.0191C101.619 15.3405 101.887 15.7289 102.061 16.1709C102.235 16.6396 102.329 17.1352 102.315 17.6307C102.315 18.1262 102.235 18.6218 102.061 19.0771C101.887 19.5191 101.619 19.9075 101.271 20.2289C100.883 20.5771 100.428 20.8316 99.9323 20.9789C99.3165 21.1664 98.6605 21.2602 98.0179 21.2468H95.6214V25.3852H93.3186L93.3052 14.0013ZM83.4382 17.3093H85.6473V18.2736C85.7812 18.0861 85.9418 17.912 86.1292 17.778C86.3167 17.6307 86.5309 17.4968 86.7585 17.403C86.9995 17.2959 87.2672 17.2155 87.535 17.162C87.8295 17.1084 88.1241 17.0816 88.432 17.0816C88.9006 17.0682 89.3692 17.1486 89.7976 17.3093C90.1858 17.4566 90.5473 17.6843 90.8418 17.9789C91.1364 18.287 91.3506 18.662 91.4845 19.0637C91.6451 19.5325 91.7121 20.0146 91.7121 20.5102V25.3852H89.503V21.0861C89.503 20.778 89.4629 20.4566 89.3692 20.162C89.2888 19.9209 89.1683 19.6932 88.9943 19.4923C88.8336 19.3182 88.6194 19.1709 88.3918 19.0905C87.8697 18.9164 87.294 18.9164 86.7585 19.0905C86.5309 19.1709 86.3167 19.3182 86.156 19.4923C85.982 19.6932 85.8615 19.9209 85.7812 20.162C85.6874 20.4566 85.6473 20.778 85.6473 21.0861V25.3852H83.4516L83.4382 17.3093ZM78.0027 23.6441C78.2169 23.5905 78.4177 23.5236 78.6051 23.4164C78.7926 23.3227 78.9532 23.2021 79.1005 23.0548C79.2478 22.9075 79.3683 22.7468 79.4754 22.5727C79.5825 22.3852 79.6628 22.1977 79.703 21.9968C79.8101 21.5548 79.8101 21.0995 79.703 20.6575C79.6093 20.2557 79.395 19.8807 79.1005 19.5995C78.9532 19.4521 78.7792 19.3316 78.6051 19.2379C78.4177 19.1307 78.2035 19.0637 78.0027 19.0102C77.7751 18.9566 77.5341 18.9298 77.3065 18.9298C77.0789 18.9298 76.8379 18.9566 76.6103 19.0102C76.3961 19.0637 76.1953 19.1307 76.0079 19.2379C75.8204 19.3316 75.6598 19.4521 75.5125 19.5995C75.3652 19.7468 75.2447 19.9075 75.1376 20.0816C74.8163 20.6709 74.736 21.3539 74.91 22.0102C74.9636 22.2111 75.0439 22.412 75.1376 22.5861C75.2313 22.7602 75.3652 22.9209 75.5125 23.0682C75.6598 23.2155 75.8204 23.3361 76.0079 23.4298C76.1953 23.5236 76.3961 23.6039 76.6103 23.6575C76.8379 23.7111 77.0655 23.7378 77.3065 23.7378C77.5475 23.7378 77.7751 23.7111 78.0027 23.6441ZM76.0079 25.4655C75.6062 25.3718 75.218 25.2378 74.8565 25.0503C74.5084 24.8762 74.2005 24.662 73.9059 24.4075C73.6248 24.153 73.3838 23.8718 73.1964 23.5503C72.9955 23.2289 72.8483 22.8807 72.7412 22.5191C72.527 21.7423 72.527 20.9253 72.7412 20.162C72.8483 19.8004 72.9955 19.4521 73.1964 19.1307C73.598 18.4879 74.1737 17.9655 74.8565 17.6307C75.218 17.4432 75.6062 17.3093 76.0079 17.2155C76.8647 17.0146 77.7617 17.0146 78.6185 17.2155C79.0202 17.3093 79.395 17.4432 79.7565 17.6307C80.1046 17.8048 80.4125 18.0191 80.7071 18.287C80.9882 18.5414 81.2292 18.8227 81.43 19.1441C81.6308 19.4655 81.7915 19.8137 81.8852 20.1754C82.0994 20.9521 82.0994 21.7691 81.8852 22.5325C81.6844 23.2691 81.2694 23.9253 80.7071 24.4209C80.4259 24.6753 80.1046 24.8896 79.7565 25.0637C79.395 25.2512 79.0068 25.3852 78.6185 25.4789C77.7617 25.6664 76.8647 25.6664 76.0079 25.4655ZM67.4127 23.6441C67.6269 23.5905 67.8277 23.5236 68.0152 23.4164C68.2026 23.3227 68.3633 23.2021 68.5105 23.0548C68.6578 22.9075 68.7783 22.7468 68.8854 22.5727C68.9925 22.3852 69.0728 22.1977 69.113 21.9968C69.2201 21.5548 69.2201 21.0995 69.113 20.6575C69.0193 20.2557 68.8051 19.8807 68.5105 19.5995C68.3633 19.4521 68.1892 19.3316 68.0152 19.2379C67.8277 19.1307 67.6135 19.0637 67.4127 19.0102C67.1851 18.9566 66.9441 18.9298 66.7165 18.9298C66.4889 18.9298 66.2479 18.9566 66.0204 19.0102C65.8061 19.0637 65.6053 19.1307 65.4179 19.2379C65.2438 19.3316 65.0698 19.4521 64.9225 19.5995C64.7753 19.7334 64.6548 19.9075 64.5477 20.0816C64.4539 20.2691 64.3736 20.4566 64.3201 20.6575C64.2665 20.8718 64.2264 21.0995 64.2397 21.3271C64.2397 21.5548 64.2665 21.7825 64.3201 21.9968C64.3736 22.1977 64.4539 22.3986 64.5477 22.5727C64.6414 22.7468 64.7753 22.9075 64.9225 23.0548C65.0698 23.2021 65.2305 23.3227 65.4179 23.4164C65.6053 23.5102 65.8061 23.5905 66.0204 23.6441C66.2479 23.6977 66.4755 23.7245 66.7165 23.7245C66.9441 23.7245 67.1851 23.6977 67.4127 23.6441ZM65.4045 25.4655C65.0029 25.3718 64.6146 25.2378 64.2531 25.0503C63.905 24.8762 63.5971 24.662 63.3026 24.4075C63.0214 24.153 62.7804 23.8718 62.593 23.5503C62.3922 23.2289 62.2449 22.8807 62.1378 22.5191C61.9236 21.7423 61.9236 20.9253 62.1378 20.162C62.2449 19.8004 62.3922 19.4521 62.593 19.1307C62.7938 18.8093 63.0348 18.528 63.3026 18.2736C63.5837 18.0191 63.905 17.7914 64.2531 17.6173C64.6146 17.4298 65.0029 17.2959 65.4045 17.2021C66.2613 17.0146 67.1583 17.0146 68.0152 17.2021C68.4168 17.2959 68.7917 17.4298 69.1532 17.6173C69.5013 17.7914 69.8092 18.0057 70.1037 18.2736C70.3849 18.528 70.6258 18.8093 70.8267 19.1307C71.0275 19.4521 71.1881 19.8004 71.2819 20.162C71.4961 20.9387 71.4961 21.7557 71.2819 22.5191C71.081 23.2557 70.666 23.912 70.1037 24.4075C69.8226 24.662 69.5013 24.8762 69.1532 25.0503C68.7917 25.2378 68.4034 25.3718 68.0152 25.4655C67.1717 25.6664 66.2747 25.6664 65.4045 25.4655ZM48 14.0013H50.3295L54.2924 20.0682L58.282 14.0013H60.5982V25.3852H58.2954V17.5771L55.002 22.6128H53.5962L50.3028 17.5771V25.3852H48V14.0013Z" fill="#F6F7FF"/>
</g>
<rect x="1" y="1" width="139" height="41" rx="6" stroke="#5275EC" stroke-width="2"/>
<defs>
<clipPath id="clip0_1141_10532">
<rect width="141" height="43" rx="7" fill="white"/>
</clipPath>
</defs>
</svg>
