<svg viewBox="0 0 48 48" fill="none" xmlns="http://www.w3.org/2000/svg">
<g clip-path="url(#clip0_1047_17502)">
<path d="M5.33333 6.66406C3.91885 6.66406 2.56229 7.22597 1.5621 8.22616C0.561903 9.22635 0 10.5829 0 11.9974L0 35.9974C0 37.4119 0.561903 38.7684 1.5621 39.7686C2.56229 40.7688 3.91885 41.3307 5.33333 41.3307H16V6.66406H5.33333Z" fill="#009A49"/>
<path d="M16 6.66406H32V41.3307H16V6.66406Z" fill="#EEEEEE"/>
<path d="M42.6667 6.66406H32V41.3307H42.6667C44.0812 41.3307 45.4377 40.7688 46.4379 39.7686C47.4381 38.7684 48 37.4119 48 35.9974V11.9974C48 10.5829 47.4381 9.22635 46.4379 8.22616C45.4377 7.22597 44.0812 6.66406 42.6667 6.66406Z" fill="#009A49"/>
</g>
<defs>
<clipPath id="clip0_1047_17502">
<rect width="48" height="48" fill="white"/>
</clipPath>
</defs>
</svg>
