<svg  viewBox="0 0 96 95" fill="none" xmlns="http://www.w3.org/2000/svg">
<rect x="0.5" width="95" height="95" rx="47.5" fill="#0025A4"/>
<path fill-rule="evenodd" clip-rule="evenodd" d="M30 34C31.1935 34 32.3381 33.5259 33.182 32.682C34.0259 31.8381 34.5 30.6935 34.5 29.5C34.5 28.3065 34.0259 27.1619 33.182 26.318C32.3381 25.4741 31.1935 25 30 25C28.8065 25 27.6619 25.4741 26.818 26.318C25.9741 27.1619 25.5 28.3065 25.5 29.5C25.5 30.6935 25.9741 31.8381 26.818 32.682C27.6619 33.5259 28.8065 34 30 34ZM32.25 67.75C34.0402 67.75 35.7571 67.0388 37.023 65.773C38.2888 64.5071 39 62.7902 39 61C39 59.2098 38.2888 57.4929 37.023 56.227C35.7571 54.9612 34.0402 54.25 32.25 54.25C30.4598 54.25 28.7429 54.9612 27.477 56.227C26.2112 57.4929 25.5 59.2098 25.5 61C25.5 62.7902 26.2112 64.5071 27.477 65.773C28.7429 67.0388 30.4598 67.75 32.25 67.75ZM63.75 70C65.5402 70 67.2571 69.2888 68.523 68.023C69.7888 66.7571 70.5 65.0402 70.5 63.25C70.5 61.4598 69.7888 59.7429 68.523 58.477C67.2571 57.2112 65.5402 56.5 63.75 56.5C61.9598 56.5 60.2429 57.2112 58.977 58.477C57.7112 59.7429 57 61.4598 57 63.25C57 65.0402 57.7112 66.7571 58.977 68.023C60.2429 69.2888 61.9598 70 63.75 70ZM45.75 52C48.1369 52 50.4261 51.0518 52.114 49.364C53.8018 47.6761 54.75 45.3869 54.75 43C54.75 40.6131 53.8018 38.3239 52.114 36.636C50.4261 34.9482 48.1369 34 45.75 34C43.3631 34 41.0739 34.9482 39.386 36.636C37.6982 38.3239 36.75 40.6131 36.75 43C36.75 45.3869 37.6982 47.6761 39.386 49.364C41.0739 51.0518 43.3631 52 45.75 52ZM59.25 34C60.4435 34 61.5881 33.5259 62.432 32.682C63.2759 31.8381 63.75 30.6935 63.75 29.5C63.75 28.3065 63.2759 27.1619 62.432 26.318C61.5881 25.4741 60.4435 25 59.25 25C58.0565 25 56.9119 25.4741 56.068 26.318C55.2241 27.1619 54.75 28.3065 54.75 29.5C54.75 30.6935 55.2241 31.8381 56.068 32.682C56.9119 33.5259 58.0565 34 59.25 34Z" fill="#F6F7FF" stroke="#F6F7FF" stroke-width="2" stroke-linecap="round" stroke-linejoin="round"/>
<path d="M33.375 32.875L37.875 37.375L33.375 32.875ZM54.75 34L52.5 36.25L54.75 34ZM59.25 58.1875L52.5 49.75L59.25 58.1875ZM36.75 55.375L41.25 50.875L36.75 55.375Z" fill="#F6F7FF"/>
<path d="M33.375 32.875L37.875 37.375M54.75 34L52.5 36.25M59.25 58.1875L52.5 49.75M36.75 55.375L41.25 50.875" stroke="#F6F7FF" stroke-width="2" stroke-linecap="round" stroke-linejoin="round"/>
</svg>
