<svg  viewBox="0 0 90 85" fill="none" xmlns="http://www.w3.org/2000/svg">
<rect x="0.5" width="89.5" height="85" rx="42.5" fill="#0025A4"/>
<path d="M63.25 20H40.75C38.9598 20 37.2429 20.7112 35.977 21.977C34.7112 23.2429 34 24.9598 34 26.75V42.5C34 44.2902 34.7112 46.0071 35.977 47.273C37.2429 48.5388 38.9598 49.25 40.75 49.25H63.25C65.0402 49.25 66.7571 48.5388 68.023 47.273C69.2888 46.0071 70 44.2902 70 42.5V26.75C70 24.9598 69.2888 23.2429 68.023 21.977C66.7571 20.7112 65.0402 20 63.25 20ZM65.5 42.5C65.5 43.0967 65.2629 43.669 64.841 44.091C64.419 44.5129 63.8467 44.75 63.25 44.75H40.75C40.1533 44.75 39.581 44.5129 39.159 44.091C38.7371 43.669 38.5 43.0967 38.5 42.5V26.75C38.5 26.1533 38.7371 25.581 39.159 25.159C39.581 24.7371 40.1533 24.5 40.75 24.5H63.25C63.8467 24.5 64.419 24.7371 64.841 25.159C65.2629 25.581 65.5 26.1533 65.5 26.75V42.5ZM57.625 33.5C56.792 33.5028 55.9899 33.8156 55.375 34.3775C54.8912 33.9377 54.29 33.648 53.6446 33.5434C52.9992 33.4389 52.3374 33.524 51.7394 33.7886C51.1415 34.0531 50.6333 34.4856 50.2766 35.0335C49.9199 35.5814 49.73 36.2212 49.73 36.875C49.73 37.5288 49.9199 38.1686 50.2766 38.7165C50.6333 39.2644 51.1415 39.6969 51.7394 39.9614C52.3374 40.226 52.9992 40.3111 53.6446 40.2066C54.29 40.102 54.8912 39.8123 55.375 39.3725C55.7813 39.7418 56.2716 40.0064 56.8033 40.1433C57.335 40.2802 57.8921 40.2854 58.4262 40.1583C58.9604 40.0312 59.4555 39.7757 59.8685 39.4139C60.2816 39.0522 60.6001 38.5952 60.7966 38.0824C60.993 37.5697 61.0614 37.0168 60.9958 36.4717C60.9302 35.9266 60.7326 35.4057 60.4201 34.9542C60.1077 34.5027 59.6898 34.1343 59.2027 33.8809C58.7156 33.6275 58.174 33.4967 57.625 33.5ZM54.25 53.75C53.6533 53.75 53.081 53.9871 52.659 54.409C52.2371 54.831 52 55.4033 52 56V58.25C52 58.8467 51.7629 59.419 51.341 59.841C50.919 60.2629 50.3467 60.5 49.75 60.5H27.25C26.6533 60.5 26.081 60.2629 25.659 59.841C25.2371 59.419 25 58.8467 25 58.25V49.25H27.25C27.8467 49.25 28.419 49.0129 28.841 48.591C29.2629 48.169 29.5 47.5967 29.5 47C29.5 46.4033 29.2629 45.831 28.841 45.409C28.419 44.9871 27.8467 44.75 27.25 44.75H25V42.5C25 41.9033 25.2371 41.331 25.659 40.909C26.081 40.4871 26.6533 40.25 27.25 40.25C27.8467 40.25 28.419 40.0129 28.841 39.591C29.2629 39.169 29.5 38.5967 29.5 38C29.5 37.4033 29.2629 36.831 28.841 36.409C28.419 35.9871 27.8467 35.75 27.25 35.75C25.4598 35.75 23.7429 36.4612 22.477 37.727C21.2112 38.9929 20.5 40.7098 20.5 42.5V58.25C20.5 60.0402 21.2112 61.7571 22.477 63.023C23.7429 64.2888 25.4598 65 27.25 65H49.75C51.5402 65 53.2571 64.2888 54.523 63.023C55.7888 61.7571 56.5 60.0402 56.5 58.25V56C56.5 55.4033 56.2629 54.831 55.841 54.409C55.419 53.9871 54.8467 53.75 54.25 53.75ZM31.75 56H34C34.5967 56 35.169 55.7629 35.591 55.341C36.0129 54.919 36.25 54.3467 36.25 53.75C36.25 53.1533 36.0129 52.581 35.591 52.159C35.169 51.7371 34.5967 51.5 34 51.5H31.75C31.1533 51.5 30.581 51.7371 30.159 52.159C29.7371 52.581 29.5 53.1533 29.5 53.75C29.5 54.3467 29.7371 54.919 30.159 55.341C30.581 55.7629 31.1533 56 31.75 56Z" fill="white"/>
</svg>
