<svg width="268" height="228" viewBox="0 0 268 228" fill="none" xmlns="http://www.w3.org/2000/svg">
<path d="M114.8 58.1C114.8 92 90.8 115.7 57.5 115.7C24.2 115.7 0.200001 92 0.200001 58.1C0.200001 24.5 24.2 0.499981 57.5 0.499981C90.8 0.499981 114.8 24.5 114.8 58.1ZM235.1 4.99999L68.6 224H32L198.5 4.99999H235.1ZM85.7 58.1C85.7 40.7 74.3 28.7 57.5 28.7C40.7 28.7 29.6 40.7 29.6 58.1C29.6 75.5 41 87.5 57.5 87.5C74.3 87.5 85.7 75.5 85.7 58.1ZM267.2 170.3C267.2 203.9 243.5 227.9 210.2 227.9C176.6 227.9 152.9 203.9 152.9 170.3C152.9 136.7 176.6 112.7 210.2 112.7C243.5 112.7 267.2 136.7 267.2 170.3ZM238.1 170.3C238.1 152.9 226.7 140.9 210.2 140.9C193.4 140.9 182 152.9 182 170.3C182 187.7 193.4 199.7 210.2 199.7C226.7 199.7 238.1 187.7 238.1 170.3Z" fill="#0025A4"/>
</svg>
