<svg viewBox="0 0 48 48" fill="none" xmlns="http://www.w3.org/2000/svg">
<rect x="0.25" y="0.25" width="47.5" height="47.5" rx="23.75" fill="url(#paint0_linear_3408_15610)" fill-opacity="0.5"/>
<rect x="0.25" y="0.25" width="47.5" height="47.5" rx="23.75" stroke="white" stroke-width="0.5"/>
<path fill-rule="evenodd" clip-rule="evenodd" d="M19.8406 24.0892L28.8006 26.5324V16.9948L19.8406 19.4364V24.0892ZM16.6406 25.3116C16.6406 25.6627 16.756 26.004 16.9691 26.2831C17.1821 26.5621 17.4811 26.7633 17.8198 26.8556L29.9798 30.1724C30.2173 30.2371 30.4666 30.2462 30.7081 30.1989C30.9497 30.1516 31.1771 30.0492 31.3727 29.8996C31.5682 29.7501 31.7266 29.5574 31.8355 29.3366C31.9444 29.1159 32.0009 28.873 32.0006 28.6268V14.8972C32.0007 14.6512 31.944 14.4084 31.835 14.1879C31.7259 13.9673 31.5675 13.7749 31.372 13.6255C31.1765 13.4761 30.9492 13.3739 30.7078 13.3266C30.4663 13.2794 30.2172 13.2885 29.9798 13.3532L17.8198 16.67C17.4811 16.7623 17.1821 16.9635 16.9691 17.2425C16.756 17.5216 16.6406 17.8629 16.6406 18.214V25.3116Z" fill="white"/>
<path fill-rule="evenodd" clip-rule="evenodd" d="M16.0259 23.6806V19.8406H14.3507C14.0191 20.4264 13.8454 21.0883 13.8465 21.7615C13.8476 22.4346 14.0236 23.0959 14.3571 23.6806H16.0259ZM17.6259 26.8806C18.0502 26.8806 18.4572 26.7121 18.7573 26.412C19.0573 26.1119 19.2259 25.705 19.2259 25.2806V18.2406C19.2259 17.8163 19.0573 17.4093 18.7573 17.1093C18.4572 16.8092 18.0502 16.6406 17.6259 16.6406H13.2051C13.0853 16.6405 12.9667 16.6649 12.8567 16.7122C12.7466 16.7595 12.6474 16.8288 12.5651 16.9158C10.0019 19.6214 10.0131 23.8806 12.5619 26.599C12.6449 26.6878 12.7452 26.7586 12.8567 26.807C12.9681 26.8555 13.0884 26.8805 13.2099 26.8806H17.6259Z" fill="white"/>
<path fill-rule="evenodd" clip-rule="evenodd" d="M18.2791 27.2065H17.3447L16.1191 32.0065H17.0519L18.2791 27.2065ZM17.3447 24.0065C16.6336 24.0065 15.9428 24.2434 15.3813 24.6798C14.8198 25.1161 14.4196 25.727 14.2439 26.4161L12.5095 33.2113C12.4493 33.4477 12.4439 33.6947 12.4937 33.9334C12.5435 34.1722 12.6473 34.3964 12.7971 34.5889C12.9468 34.7814 13.1386 34.9372 13.3577 35.0442C13.5769 35.1512 13.8176 35.2068 14.0615 35.2065H17.0535C17.7642 35.2063 18.4545 34.9694 19.0156 34.5334C19.5768 34.0974 19.9769 33.487 20.1527 32.7985L21.3799 27.9985C21.5006 27.526 21.5117 27.0321 21.4124 26.5546C21.313 26.0772 21.1059 25.6287 20.8067 25.2435C20.5075 24.8584 20.1242 24.5467 19.6862 24.3323C19.2481 24.1179 18.7668 24.0065 18.2791 24.0065H17.3447ZM38.4519 15.1185C38.5686 15.2933 38.6496 15.4894 38.6905 15.6955C38.7313 15.9017 38.7312 16.1139 38.69 16.3199C38.6489 16.526 38.5675 16.722 38.4506 16.8966C38.3337 17.0712 38.1836 17.2211 38.0087 17.3377L35.6087 18.9377C35.2557 19.1732 34.8235 19.2589 34.4073 19.1757C33.9912 19.0926 33.625 18.8476 33.3895 18.4945C33.154 18.1415 33.0684 17.7093 33.1515 17.2931C33.2346 16.877 33.4797 16.5108 33.8327 16.2753L36.2327 14.6753C36.4075 14.5587 36.6036 14.4776 36.8098 14.4368C37.0159 14.3959 37.2281 14.3961 37.4341 14.4372C37.6402 14.4784 37.8362 14.5597 38.0108 14.6766C38.1854 14.7935 38.3353 14.9437 38.4519 15.1185ZM33.1207 21.7665C33.1207 21.3422 33.2893 20.9352 33.5894 20.6352C33.8894 20.3351 34.2964 20.1665 34.7207 20.1665H37.1207C37.5451 20.1665 37.952 20.3351 38.2521 20.6352C38.5522 20.9352 38.7207 21.3422 38.7207 21.7665C38.7207 22.1909 38.5522 22.5978 38.2521 22.8979C37.952 23.198 37.5451 23.3665 37.1207 23.3665H34.7207C34.2964 23.3665 33.8894 23.198 33.5894 22.8979C33.2893 22.5978 33.1207 22.1909 33.1207 21.7665ZM33.4951 24.8209C33.6302 24.66 33.7957 24.5272 33.9821 24.4302C34.1685 24.3332 34.3722 24.2738 34.5816 24.2556C34.7909 24.2373 35.0018 24.2604 35.2022 24.3237C35.4026 24.3869 35.5886 24.489 35.7495 24.6241L37.9575 26.4801C38.271 26.7563 38.464 27.1442 38.4952 27.5608C38.5265 27.9774 38.3936 28.3897 38.1249 28.7096C37.8562 29.0295 37.473 29.2317 37.0572 29.2728C36.6415 29.3139 36.2261 29.1908 35.8999 28.9297L33.6919 27.0737C33.3673 26.8009 33.1643 26.4105 33.1274 25.9881C33.0905 25.5656 33.2227 25.1459 33.4951 24.8209Z" fill="white"/>
<defs>
<linearGradient id="paint0_linear_3408_15610" x1="0" y1="0" x2="48" y2="48" gradientUnits="userSpaceOnUse">
<stop stop-color="white" stop-opacity="0.1"/>
<stop offset="1" stop-color="white" stop-opacity="0.5"/>
</linearGradient>
</defs>
</svg>
