<svg  viewBox="0 0 48 48" fill="none" xmlns="http://www.w3.org/2000/svg">
<rect x="0.25" y="0.25" width="47.5" height="47.5" rx="23.75" fill="url(#paint0_linear_3408_17377)" fill-opacity="0.5"/>
<rect x="0.25" y="0.25" width="47.5" height="47.5" rx="23.75" stroke="white" stroke-width="0.5"/>
<path d="M8 17C7.73478 17 7.48043 17.1054 7.29289 17.2929C7.10536 17.4805 7 17.7348 7 18C7 18.2653 7.10536 18.5196 7.29289 18.7071C7.48043 18.8947 7.73478 19 8 19H10.22L12.844 29.5C13.067 30.39 13.864 31 14.781 31H27.251C28.154 31 28.921 30.4 29.158 29.53L31.75 20H29.656L27.25 29H14.78L12.157 18.5C12.0486 18.0693 11.7989 17.6873 11.4477 17.4154C11.0965 17.1434 10.6642 16.9971 10.22 17H8ZM26 31C24.355 31 23 32.355 23 34C23 35.645 24.355 37 26 37C27.645 37 29 35.645 29 34C29 32.355 27.645 31 26 31ZM17 31C15.355 31 14 32.355 14 34C14 35.645 15.355 37 17 37C18.645 37 20 35.645 20 34C20 32.355 18.645 31 17 31ZM20 17V22H17L21 26L25 22H22V17H20ZM17 33C17.564 33 18 33.436 18 34C18 34.564 17.564 35 17 35C16.436 35 16 34.564 16 34C16 33.436 16.436 33 17 33ZM26 33C26.564 33 27 33.436 27 34C27 34.564 26.564 35 26 35C25.436 35 25 34.564 25 34C25 33.436 25.436 33 26 33Z" fill="white"/>
<g clip-path="url(#clip0_3408_17377)">
<path d="M37.2992 6.14844L45.9332 21.1024C46.0648 21.3305 46.1341 21.5891 46.1341 21.8524C46.1341 22.1157 46.0648 22.3744 45.9332 22.6024C45.8015 22.8304 45.6122 23.0198 45.3842 23.1515C45.1561 23.2831 44.8975 23.3524 44.6342 23.3524H27.3662C27.1029 23.3524 26.8442 23.2831 26.6162 23.1515C26.3882 23.0198 26.1988 22.8304 26.0672 22.6024C25.9355 22.3744 25.8662 22.1157 25.8662 21.8524C25.8662 21.5891 25.9355 21.3305 26.0672 21.1024L34.7012 6.14844C35.2782 5.14844 36.7212 5.14844 37.2992 6.14844ZM36.0002 18.0004C35.735 18.0004 35.4806 18.1058 35.2931 18.2933C35.1055 18.4809 35.0002 18.7352 35.0002 19.0004C35.0002 19.2657 35.1055 19.52 35.2931 19.7075C35.4806 19.8951 35.735 20.0004 36.0002 20.0004C36.2654 20.0004 36.5197 19.8951 36.7073 19.7075C36.8948 19.52 37.0002 19.2657 37.0002 19.0004C37.0002 18.7352 36.8948 18.4809 36.7073 18.2933C36.5197 18.1058 36.2654 18.0004 36.0002 18.0004ZM36.0002 11.0004C35.7552 11.0005 35.5188 11.0904 35.3358 11.2532C35.1528 11.4159 35.0358 11.6402 35.0072 11.8834L35.0002 12.0004V16.0004C35.0005 16.2553 35.0981 16.5005 35.273 16.6858C35.448 16.8711 35.6871 16.9827 35.9416 16.9976C36.196 17.0125 36.4466 16.9298 36.642 16.7662C36.8375 16.6026 36.9631 16.3705 36.9932 16.1174L37.0002 16.0004V12.0004C37.0002 11.7352 36.8948 11.4809 36.7073 11.2933C36.5197 11.1058 36.2654 11.0004 36.0002 11.0004Z" fill="#5275EC"/>
<path d="M35 9.32812C35 9.06291 35.1054 8.80855 35.2929 8.62102C35.4804 8.43348 35.7348 8.32812 36 8.32812C36.2652 8.32812 36.5196 8.43348 36.7071 8.62102C36.8946 8.80855 37 9.06291 37 9.32812V17.3281C37 17.5933 36.8946 17.8477 36.7071 18.0352C36.5196 18.2228 36.2652 18.3281 36 18.3281C35.7348 18.3281 35.4804 18.2228 35.2929 18.0352C35.1054 17.8477 35 17.5933 35 17.3281V9.32812ZM35 20.6615C35 20.3962 35.1054 20.1419 35.2929 19.9544C35.4804 19.7668 35.7348 19.6615 36 19.6615C36.2652 19.6615 36.5196 19.7668 36.7071 19.9544C36.8946 20.1419 37 20.3962 37 20.6615C37 20.9267 36.8946 21.181 36.7071 21.3686C36.5196 21.5561 36.2652 21.6615 36 21.6615C35.7348 21.6615 35.4804 21.5561 35.2929 21.3686C35.1054 21.181 35 20.9267 35 20.6615Z" fill="white"/>
</g>
<defs>
<linearGradient id="paint0_linear_3408_17377" x1="0" y1="0" x2="48" y2="48" gradientUnits="userSpaceOnUse">
<stop stop-color="white" stop-opacity="0.1"/>
<stop offset="1" stop-color="white" stop-opacity="0.5"/>
</linearGradient>
<clipPath id="clip0_3408_17377">
<rect width="24" height="24" fill="white" transform="translate(24 3)"/>
</clipPath>
</defs>
</svg>
