<svg  viewBox="0 0 26 15" fill="none" xmlns="http://www.w3.org/2000/svg">
<path d="M5.42767 8.60466L6.02006 7.79901L5.37759 7.3266L4.77405 7.84784L5.42767 8.60466ZM12.2704 13.6361L11.6781 14.4418L12.3575 14.9414L12.9646 14.3559L12.2704 13.6361ZM25.9998 1.37748C26.0098 0.825286 25.5703 0.369538 25.0181 0.359539L16.0196 0.196588C15.4674 0.186589 15.0116 0.626124 15.0016 1.17832C14.9916 1.73051 15.4312 2.18626 15.9834 2.19626L23.9821 2.34111L23.8372 10.3398C23.8272 10.892 24.2667 11.3477 24.8189 11.3577C25.3711 11.3677 25.8269 10.9282 25.8369 10.376L25.9998 1.37748ZM1.65362 13.1854L6.08129 9.36148L4.77405 7.84784L0.34638 11.6717L1.65362 13.1854ZM4.83528 9.41031L11.6781 14.4418L12.8628 12.8305L6.02006 7.79901L4.83528 9.41031ZM12.9646 14.3559L25.6942 2.07917L24.3058 0.639582L11.5763 12.9163L12.9646 14.3559Z" fill="#53D258"/>
</svg>
