<svg  viewBox="0 0 25 25" fill="none" xmlns="http://www.w3.org/2000/svg">
<path fill-rule="evenodd" clip-rule="evenodd" d="M2.5 12.5C2.5 6.977 6.977 2.5 12.5 2.5C18.023 2.5 22.5 6.977 22.5 12.5C22.5 18.023 18.023 22.5 12.5 22.5C6.977 22.5 2.5 18.023 2.5 12.5ZM13.207 8.793C13.1141 8.69963 13.0036 8.62564 12.8819 8.57535C12.7602 8.52505 12.6297 8.49943 12.498 8.5C12.367 8.49996 12.2372 8.52583 12.1162 8.57612C11.9953 8.6264 11.8854 8.70011 11.793 8.793C11.6044 8.97516 11.3518 9.07595 11.0896 9.07367C10.8274 9.0714 10.5766 8.96623 10.3912 8.78082C10.2058 8.59541 10.1006 8.3446 10.0983 8.0824C10.096 7.8202 10.1968 7.5676 10.379 7.379C10.6566 7.10055 10.9864 6.87952 11.3495 6.72853C11.7125 6.57754 12.1018 6.49955 12.495 6.499C12.8899 6.49823 13.281 6.57559 13.6459 6.72661C14.0108 6.87764 14.3422 7.09936 14.621 7.379C14.981 7.7366 15.2442 8.17982 15.3859 8.66704C15.5275 9.15426 15.5431 9.6695 15.431 10.1644C15.3189 10.6592 15.0829 11.1175 14.7452 11.4962C14.4074 11.8748 13.9789 12.1614 13.5 12.329L13.501 12.496C13.5021 12.7612 13.3977 13.016 13.2109 13.2043C13.0241 13.3926 12.7702 13.4989 12.505 13.5C12.2398 13.5011 11.985 13.3967 11.7967 13.2099C11.6084 13.0231 11.5021 12.7692 11.501 12.504L11.497 11.504C11.4965 11.3722 11.522 11.2415 11.5722 11.1196C11.6223 10.9977 11.6961 10.8869 11.7892 10.7936C11.8823 10.7003 11.993 10.6263 12.1148 10.5759C12.2366 10.5255 12.3672 10.4997 12.499 10.5C12.6309 10.5007 12.7615 10.4752 12.8834 10.4248C13.0053 10.3745 13.116 10.3005 13.209 10.207C13.3018 10.1142 13.3752 10.0039 13.4252 9.8826C13.4751 9.76125 13.5006 9.63122 13.5 9.5C13.5003 9.36864 13.4746 9.23852 13.4243 9.11717C13.374 8.99582 13.3001 8.88564 13.207 8.793ZM11 16.5C11 16.1022 11.158 15.7206 11.4393 15.4393C11.7206 15.158 12.1022 15 12.5 15H12.51C12.9078 15 13.2894 15.158 13.5707 15.4393C13.852 15.7206 14.01 16.1022 14.01 16.5V16.51C14.01 16.9078 13.852 17.2894 13.5707 17.5707C13.2894 17.852 12.9078 18.01 12.51 18.01H12.5C12.1022 18.01 11.7206 17.852 11.4393 17.5707C11.158 17.2894 11 16.9078 11 16.51V16.5Z" fill="#5275EC"/>
</svg>
