<svg  viewBox="0 0 361 202" fill="none" xmlns="http://www.w3.org/2000/svg">
<rect x="0.5" width="360" height="202" rx="12" fill="#1A1F30"/>
<path opacity="0.939" fill-rule="evenodd" clip-rule="evenodd" d="M186.799 36.1076C201.571 35.2123 211.971 41.4623 218 54.8576C221.986 67.0878 219.495 77.7812 210.529 86.9376C201.038 94.89 190.491 96.6478 178.889 92.2111C167.709 86.8014 161.849 77.8659 161.311 65.4044C162.035 51.2549 169.066 41.8311 182.404 37.133C183.912 36.8034 185.377 36.4616 186.799 36.1076ZM190.314 41.674C200.396 42.244 207.672 47.0291 212.141 56.0294C216.166 67.2894 213.579 76.7133 204.377 84.3009C194.775 90.5063 185.302 90.3109 175.959 83.715C167.64 76.2706 165.247 67.2375 168.781 56.6154C173.052 47.4085 180.23 42.428 190.314 41.674Z" fill="#5275EC"/>
<path opacity="0.935" fill-rule="evenodd" clip-rule="evenodd" d="M189.143 46.948C191.259 46.7848 192.626 47.7125 193.244 49.7312C197.65 51.2678 199.554 54.344 198.957 58.9597C197.41 61.3017 195.652 61.4971 193.684 59.5457C193.369 58.4957 193.174 57.4216 193.098 56.323C190.976 54.6446 189.023 54.8399 187.238 56.9089C186.409 58.6509 186.751 60.0669 188.264 61.157C192.673 61.3837 196.238 63.1905 198.957 66.5769C201.143 71.0157 200.606 75.0686 197.346 78.7351C196.06 79.5733 194.693 80.2568 193.244 80.7859C192.285 83.4824 190.528 84.1659 187.971 82.8367C187.622 82.2765 187.329 81.6906 187.092 81.0789C182.384 78.9399 180.186 75.2778 180.5 70.0925C180.88 68.6895 181.808 68.006 183.283 68.0418C184.097 68.1311 184.829 68.4241 185.481 68.9207C186.057 70.014 186.35 71.1859 186.359 72.4363C187.45 75.3437 189.452 76.1737 192.365 74.9265C194.243 73.953 194.878 72.4395 194.27 70.3855C192.869 68.2442 190.867 67.2188 188.264 67.3093C181.864 65.3995 179.667 61.249 181.672 54.8582C182.721 52.3921 184.527 50.8296 187.092 50.1707C187.188 48.7099 187.872 47.6357 189.143 46.948Z" fill="#5275EC"/>
<path opacity="0.939" fill-rule="evenodd" clip-rule="evenodd" d="M236.897 87.6728C243.21 86.6043 247.653 88.9481 250.227 94.704C251.166 98.2393 250.678 101.56 248.762 104.665C240.412 114.382 232.063 124.098 223.713 133.815C220.666 136.362 217.151 137.827 213.166 138.21C198.62 138.58 184.069 138.776 169.514 138.796C167.599 138.976 165.694 139.22 163.801 139.528C163.655 139.626 163.508 139.724 163.362 139.821C164.384 143.062 163.944 146.089 162.043 148.903C156.909 154.331 151.684 159.653 146.369 164.87C145.258 165.115 144.184 165.018 143.147 164.577C141.77 163.102 140.305 161.735 138.752 160.476C136.345 158.364 136.443 156.41 139.045 154.616C140.106 154.37 141.083 154.565 141.975 155.202C142.854 156.081 143.733 156.96 144.612 157.839C144.807 158.034 145.002 158.034 145.198 157.839C149.357 153.778 153.409 149.627 157.356 145.388C158.452 143.396 158.257 141.541 156.77 139.821C150.081 133.327 143.391 126.833 136.702 120.339C135.613 119.347 134.441 118.468 133.186 117.702C131.931 117.419 130.759 117.615 129.67 118.288C125.267 122.593 120.97 126.988 116.78 131.472C120.452 134.655 123.821 138.122 126.887 141.872C127.229 144.655 126.008 145.876 123.225 145.534C122.834 145.339 122.444 145.144 122.053 144.948C118.098 140.993 114.143 137.038 110.188 133.083C109.555 131.853 109.652 130.681 110.481 129.567C115.51 124.343 120.539 119.118 125.569 113.894C127.485 112.49 129.633 111.757 132.014 111.696C134.058 111.876 136.011 112.316 137.873 113.015C144.129 104.197 152.674 99.3625 163.508 98.5126C169.341 99.2749 175.152 100.202 180.94 101.296C190.022 101.393 199.104 101.491 208.186 101.589C211.177 102.18 213.569 103.693 215.364 106.13C220.873 100.914 226.293 95.5914 231.623 90.163C233.232 88.9624 234.99 88.1325 236.897 87.6728ZM238.948 93.2392C243.748 93.4651 245.555 95.9067 244.368 100.563C236.139 110.551 227.692 120.365 219.026 130.007C216.284 131.832 213.257 132.711 209.944 132.643C196.565 132.741 183.186 132.839 169.807 132.936C166.295 133.381 162.78 133.674 159.26 133.815C153.487 128.335 147.823 122.769 142.268 117.116C150.175 105.561 160.819 101.948 174.201 106.276C176.623 106.734 179.064 107.027 181.526 107.155C190.217 107.253 198.908 107.351 207.6 107.448C210.685 108.589 211.906 110.786 211.262 114.04C210.599 115.973 209.281 117.194 207.307 117.702C200.276 117.8 193.244 117.898 186.213 117.995C184.332 118.88 183.795 120.296 184.602 122.243C185.081 122.92 185.716 123.359 186.506 123.561C194.036 123.838 201.556 123.74 209.065 123.269C214.25 121.597 217.033 118.033 217.414 112.575C223.526 106.366 229.727 100.262 236.018 94.2646C236.999 93.8292 237.976 93.4873 238.948 93.2392ZM131.721 128.688C133.673 129.319 134.063 130.442 132.893 132.058C131.487 132.675 130.511 132.235 129.963 130.739C130.153 129.673 130.739 128.99 131.721 128.688Z" fill="#5275EC"/>
<path opacity="0.873" fill-rule="evenodd" clip-rule="evenodd" d="M175.081 118.136C178.011 117.99 179.232 119.357 178.743 122.237C177.818 123.7 176.499 124.237 174.788 123.848C173.169 122.993 172.632 121.675 173.176 119.893C173.614 119.069 174.248 118.483 175.081 118.136Z" fill="#5275EC"/>
<path opacity="0.944" fill-rule="evenodd" clip-rule="evenodd" d="M129.963 123.119C134.444 122.482 137.52 124.24 139.191 128.393C139.993 134.13 137.551 137.451 131.867 138.354C125.333 137.104 123.087 133.295 125.129 126.928C126.289 125.029 127.901 123.76 129.963 123.119ZM131.721 128.686C130.738 128.987 130.153 129.671 129.963 130.736C130.51 132.232 131.487 132.672 132.892 132.055C134.063 130.439 133.672 129.316 131.721 128.686Z" fill="#5275EC"/>
<path opacity="0.889" fill-rule="evenodd" clip-rule="evenodd" d="M130.842 147.438C134.849 147.298 135.923 149.006 134.065 152.565C130.735 153.82 129.124 152.696 129.231 149.195C129.629 148.456 130.166 147.87 130.842 147.438Z" fill="#5275EC"/>
</svg>
