<svg  viewBox="0 0 198 197" fill="none" xmlns="http://www.w3.org/2000/svg">
<g clip-path="url(#clip0_2074_12119)">
<path fill-rule="evenodd" clip-rule="evenodd" d="M53.4998 64.55C71.1157 57.0049 88.7742 49.5265 106.475 42.1151C106.571 42.094 106.659 42.0996 106.737 42.1318C88.9725 49.5561 71.2267 57.0289 53.4998 64.55Z" fill="#D1D1D1"/>
<path fill-rule="evenodd" clip-rule="evenodd" d="M53.5023 64.552C71.2281 57.0282 88.975 49.5581 106.742 42.1418C107.779 42.0611 108.649 42.4793 109.352 43.3966C109.919 44.6032 110.438 45.8302 110.908 47.0775C111.082 48.3242 110.715 49.2968 109.807 49.9949C109.471 50.1371 109.136 50.2789 108.799 50.421C108.935 50.7411 109.07 51.0611 109.205 51.3812C109.946 53.2682 110.711 55.1457 111.501 57.013C113.237 61.3877 115.003 65.7658 116.798 70.1474C117.744 72.6547 118.745 75.1557 119.8 77.6501C120.892 80.4735 122.027 83.2945 123.208 86.1129C123.58 87.228 124.03 88.3267 124.558 89.4089C124.604 89.4419 124.652 89.4533 124.7 89.4433C124.883 89.5312 125.059 89.6456 125.227 89.7865C125.997 91.4731 126.718 93.1802 127.392 94.9077C127.455 95.2506 127.424 95.5781 127.298 95.8905C127.517 96.4422 127.737 96.9944 127.955 97.5461C132.175 107.017 136.398 116.472 140.623 125.909C141.664 128.394 142.737 130.865 143.841 133.321C144.01 133.721 144.179 134.121 144.348 134.521C144.708 134.369 145.068 134.217 145.428 134.065C146.518 133.932 147.436 134.33 148.182 135.259C148.76 136.492 149.29 137.745 149.772 139.019C149.933 139.761 149.835 140.432 149.476 141.031C149.439 141.052 149.426 141.089 149.438 141.141C152.808 139.811 156.154 138.428 159.48 136.991C159.725 137.033 159.864 137.193 159.896 137.475C159.864 137.548 159.821 137.613 159.767 137.671C134.087 148.589 108.383 159.454 82.6574 170.265C82.3672 170.11 82.2715 169.883 82.3699 169.585C86.4372 167.897 90.482 166.156 94.5037 164.362C94.4741 164.317 94.439 164.301 94.3979 164.312C93.8076 164.164 93.3042 163.843 92.8869 163.348C92.2676 162.071 91.6912 160.774 91.1575 159.457C90.9802 157.668 91.6949 156.548 93.302 156.098C92.3074 153.503 91.273 150.922 90.1989 148.356C87.1574 140.76 84.1108 133.15 81.0587 125.528C80.2141 123.199 79.3164 120.874 78.3658 118.555C78.1233 117.981 77.8625 117.431 77.5835 116.905C77.2991 116.846 77.0529 116.699 76.845 116.462C76.0415 114.696 75.2861 112.908 74.5787 111.101C74.6069 110.841 74.672 110.594 74.774 110.358C73.7288 107.765 72.6104 105.22 71.4189 102.722C69.8304 98.9434 68.1687 95.213 66.4337 91.5308C65.4353 89.1696 64.3951 86.8427 63.3132 84.55C62.8461 83.3789 62.3373 82.2421 61.7868 81.1396C60.5084 78.0792 59.1751 75.0588 57.7868 72.0783C57.2656 72.2354 56.7278 72.3684 56.1734 72.4773C55.1458 72.4231 54.3374 71.916 53.7482 70.9559C53.2738 69.8671 52.8235 68.7684 52.3974 67.6599C52.3655 67.4831 52.3339 67.3078 52.3025 67.1342C52.2284 65.9827 52.6284 65.122 53.5023 64.552Z" fill="#050608"/>
<path fill-rule="evenodd" clip-rule="evenodd" d="M108.555 43.8302C108.737 44.2622 108.92 44.6942 109.103 45.1262C90.6474 52.9271 72.1917 60.7284 53.7362 68.5294C53.5333 68.0494 53.3305 67.5695 53.1276 67.0895C53.0678 66.4281 53.2945 65.8938 53.8078 65.4866C71.475 57.9621 89.1622 50.4857 106.87 43.0572C107.329 42.9754 107.749 43.0665 108.131 43.3303C108.328 43.4517 108.469 43.6184 108.555 43.8302Z" fill="#2593DC"/>
<path fill-rule="evenodd" clip-rule="evenodd" d="M91.8984 50.1879C92.7352 49.7805 93.1805 50.0308 93.2341 50.9386C92.9564 51.6067 92.5214 51.7481 91.9285 51.3632C91.5907 50.9615 91.5804 50.5697 91.8984 50.1879Z" fill="#5FC1F7"/>
<path fill-rule="evenodd" clip-rule="evenodd" d="M94.1998 49.2157C98.2748 47.479 102.359 45.7667 106.455 44.0781C106.947 44.1048 107.217 44.3728 107.261 44.8826C107.219 45.1377 107.095 45.3458 106.889 45.5069C102.877 47.2592 98.8454 48.9634 94.7932 50.6197C94.026 50.3827 93.8282 49.9147 94.1998 49.2157Z" fill="#61C2F7"/>
<path fill-rule="evenodd" clip-rule="evenodd" d="M52.225 66.9551C52.2497 67.1128 52.2745 67.2721 52.2996 67.4327C52.6794 68.4316 53.0833 69.4206 53.5114 70.3998C53.007 69.4397 52.569 68.4367 52.1972 67.3911C52.1388 67.2331 52.1481 67.0878 52.225 66.9551Z" fill="#C5C5C5"/>
<path fill-rule="evenodd" clip-rule="evenodd" d="M53.1278 67.0863C53.3307 67.5663 53.5336 68.0462 53.7365 68.5262C72.1919 60.7251 90.6476 52.9239 109.103 45.1229C108.92 44.6909 108.738 44.259 108.555 43.827C108.791 44.2499 109.007 44.6959 109.205 45.1645C109.448 45.7178 109.645 46.2849 109.797 46.8661C109.753 47.447 109.522 47.9403 109.107 48.3458C91.3562 55.8772 73.5868 63.3599 55.7985 70.7945C55.1698 70.7799 54.6733 70.5088 54.3092 69.9814C53.8386 69.0342 53.4448 68.0691 53.1278 67.0863Z" fill="#0C6FC2"/>
<path fill-rule="evenodd" clip-rule="evenodd" d="M55.8008 70.7969C73.5891 63.3623 91.3585 55.8795 109.11 48.3482C91.4696 55.9035 73.7873 63.392 56.0624 70.8136C55.9663 70.8345 55.8791 70.8289 55.8008 70.7969Z" fill="#094C83"/>
<path fill-rule="evenodd" clip-rule="evenodd" d="M55.8477 71.7109C56.3975 71.5914 56.9319 71.4503 57.4509 71.2878C57.0952 71.4523 56.7301 71.5924 56.3557 71.7083C56.1785 71.7352 56.0091 71.7361 55.8477 71.7109Z" fill="#707070"/>
<path fill-rule="evenodd" clip-rule="evenodd" d="M108.3 51.6557C108.076 51.1277 107.853 50.5997 107.63 50.0717C106.859 50.3707 106.113 50.7142 105.393 51.1024C105.742 52.0292 106.115 52.9464 106.513 53.8535C106.655 54.1895 106.797 54.5255 106.939 54.8615C106.325 53.6085 105.753 52.3226 105.224 51.0041C106.039 50.6592 106.856 50.3141 107.672 49.9693C107.934 50.5246 108.143 51.0869 108.3 51.6557Z" fill="#031825"/>
<path fill-rule="evenodd" clip-rule="evenodd" d="M61.6267 69.5164C62.2266 69.2628 62.8267 69.0092 63.4266 68.7556C63.6321 69.3068 63.8792 69.8247 64.1682 70.3091C64.5818 70.8644 65.1257 71.2144 65.8 71.359C65.7719 71.7094 65.7787 72.0601 65.8204 72.4112C65.6086 72.4973 65.442 72.6384 65.3205 72.8346C64.8797 73.4583 64.437 74.0839 63.9923 74.7114C63.9614 74.8434 63.93 74.9698 63.8981 75.0907C63.1616 73.2243 62.4045 71.3662 61.6267 69.5164Z" fill="#FDFDFD"/>
<path fill-rule="evenodd" clip-rule="evenodd" d="M104.393 51.4414C105.088 52.8864 105.741 54.3643 106.352 55.8748C106.494 56.2108 106.636 56.5468 106.778 56.8828C105.584 56.6297 104.38 56.4594 103.167 56.3722C103.144 56.3822 103.119 56.3925 103.095 56.4026C102.933 56.2362 102.774 56.0626 102.621 55.8819C103.074 55.2781 103.24 54.5996 103.118 53.847C102.972 53.3022 102.773 52.7642 102.521 52.2326C103.145 51.9688 103.769 51.7052 104.393 51.4414Z" fill="#FAFAFA"/>
<path fill-rule="evenodd" clip-rule="evenodd" d="M63.2033 76.0678C62.7366 74.9639 62.27 73.8599 61.8033 72.7559C61.0594 73.0704 60.3154 73.3849 59.5714 73.6994C59.1754 72.7626 58.7557 71.8368 58.3125 70.9219C59.1045 70.5871 59.8965 70.2523 60.6884 69.9176C61.5798 71.9598 62.4181 74.0098 63.2033 76.0678Z" fill="#023048"/>
<path fill-rule="evenodd" clip-rule="evenodd" d="M102.224 54.1422C102.173 54.0222 102.122 53.9023 102.072 53.7822C102.062 53.7583 102.051 53.7342 102.041 53.7102C89.615 58.878 77.1975 64.0985 64.788 69.3723C64.859 69.5403 64.93 69.7083 65.001 69.8763C64.7223 69.4159 64.4852 68.9221 64.2899 68.3948C76.7455 63.1298 89.2012 57.8648 101.657 52.5998C101.899 53.1076 102.088 53.6216 102.224 54.1422Z" fill="#023048"/>
<path fill-rule="evenodd" clip-rule="evenodd" d="M104.392 51.4387C103.768 51.7026 103.144 51.9661 102.52 52.23C102.772 52.7616 102.971 53.2996 103.118 53.8444C102.884 53.2924 102.651 52.7404 102.418 52.1884C103.069 51.8855 103.727 51.6356 104.392 51.4387Z" fill="#8D8D8D"/>
<path fill-rule="evenodd" clip-rule="evenodd" d="M108.302 51.6557C108.474 52.0637 108.647 52.4716 108.819 52.8796C108.051 53.2044 107.284 53.5288 106.515 53.8535C106.118 52.9464 105.744 52.0292 105.395 51.1024C106.115 50.7142 106.861 50.3707 107.632 50.0717C107.856 50.5997 108.079 51.1277 108.302 51.6557Z" fill="#023048"/>
<path fill-rule="evenodd" clip-rule="evenodd" d="M61.624 69.5182C62.2046 69.1885 62.8184 68.9008 63.4655 68.6549C63.6988 69.2069 63.9321 69.7589 64.1654 70.3109C63.8765 69.8264 63.6293 69.3086 63.4239 68.7574C62.8239 69.011 62.2239 69.2646 61.624 69.5182Z" fill="#8E8E8E"/>
<path fill-rule="evenodd" clip-rule="evenodd" d="M109.473 49.2067C109.205 49.4034 108.903 49.5594 108.567 49.6744C108.707 49.9436 108.795 50.2177 108.83 50.4968C108.708 50.2088 108.587 49.9208 108.465 49.6328C108.801 49.4907 109.137 49.3489 109.473 49.2067Z" fill="#949494"/>
<path fill-rule="evenodd" clip-rule="evenodd" d="M102.042 53.705C89.7061 58.9191 77.3702 64.1335 65.0346 69.3477C65.0481 69.5544 65.0813 69.7667 65.1341 69.9846C65.0634 69.9855 65.019 69.9477 65.0012 69.871C64.9302 69.703 64.8592 69.535 64.7882 69.367C77.1978 64.0933 89.6152 58.8727 102.042 53.705Z" fill="#064683"/>
<path fill-rule="evenodd" clip-rule="evenodd" d="M65.0352 69.3516C77.3708 64.1373 89.7067 58.9229 102.042 53.7088C102.052 53.7328 102.062 53.7568 102.072 53.7808C95.9037 56.4447 89.7221 59.0859 83.5275 61.7046C77.3595 64.3118 71.1953 66.8608 65.0352 69.3516Z" fill="#065092"/>
<path fill-rule="evenodd" clip-rule="evenodd" d="M65.0346 69.3532C71.1948 66.8624 77.3589 64.3134 83.5269 61.7062C89.7215 59.0875 95.9032 56.4463 102.072 53.7824C102.123 53.9024 102.173 54.0224 102.224 54.1424C102.318 54.5488 102.203 54.88 101.88 55.1363C89.9211 60.3046 77.9218 65.3767 65.8815 70.353C65.555 70.3993 65.3059 70.2783 65.1341 69.99C65.0813 69.7722 65.0481 69.5599 65.0346 69.3532Z" fill="#064E94"/>
<path fill-rule="evenodd" clip-rule="evenodd" d="M65.8789 70.3516C77.9191 65.3753 89.9185 60.3032 101.878 55.1349C101.889 55.1826 101.88 55.2287 101.851 55.2733C101.725 55.3689 101.586 55.4418 101.435 55.4919C89.7228 60.4425 78.0114 65.3929 66.2998 70.3434C66.1549 70.4129 66.0146 70.4156 65.8789 70.3516Z" fill="#084176"/>
<path fill-rule="evenodd" clip-rule="evenodd" d="M66.3008 70.3438C78.0125 65.3932 89.7238 60.4429 101.436 55.4923C101.456 55.5403 101.476 55.5882 101.497 55.6362C89.7773 60.5894 78.0655 65.54 66.3616 70.4877C66.3413 70.4397 66.3211 70.3918 66.3008 70.3438Z" fill="#1A1918"/>
<path fill-rule="evenodd" clip-rule="evenodd" d="M101.496 55.6341C89.8032 60.6615 78.0775 65.6462 66.3197 70.588C66.2994 70.54 66.3132 70.5059 66.3612 70.4856C78.065 65.5378 89.7769 60.5872 101.496 55.6341Z" fill="#161A1E"/>
<path fill-rule="evenodd" clip-rule="evenodd" d="M59.5703 73.6953C60.3143 73.3808 61.0583 73.0663 61.8022 72.7519C62.2689 73.8558 62.7355 74.9598 63.2022 76.0638C67.0447 85.6137 70.8598 95.1746 74.6474 104.746C74.3114 104.888 73.9754 105.03 73.6394 105.172C72.8337 103.392 72.0489 101.602 71.2849 99.8031C70.5538 98.0601 69.7754 96.3525 68.9497 94.6801C65.7995 87.6959 62.6731 80.701 59.5703 73.6953Z" fill="#064E92"/>
<path fill-rule="evenodd" clip-rule="evenodd" d="M106.516 53.8516C107.284 53.5268 108.051 53.2024 108.82 52.8777C113.058 63.5602 117.315 74.2352 121.593 84.9026C121.253 85.0735 120.906 85.1917 120.554 85.2567C119.769 83.4241 118.949 81.6206 118.097 79.8457C115.426 73.7892 112.729 67.7442 110.007 61.7105C109.37 60.1691 108.709 58.6384 108.024 57.1178C107.843 56.7258 107.645 56.3571 107.429 56.0115C107.266 55.6275 107.104 55.2435 106.942 54.8595C106.8 54.5235 106.658 54.1876 106.516 53.8516Z" fill="#064E92"/>
<path fill-rule="evenodd" clip-rule="evenodd" d="M103.094 56.4062C103.118 56.3962 103.142 56.3859 103.166 56.3758C103.328 56.5861 103.478 56.8058 103.614 57.0349C103.394 56.8727 103.221 56.6632 103.094 56.4062Z" fill="#4D4D4D"/>
<g filter="url(#filter0_f_2074_12119)">
<g filter="url(#filter1_d_2074_12119)">
<path fill-rule="evenodd" clip-rule="evenodd" d="M103.166 56.3743C104.379 56.4615 105.582 56.6318 106.776 56.8849C107.439 58.3728 108.115 59.8407 108.807 61.2879C112.47 69.4704 116.116 77.66 119.744 85.8574C119.596 86.1238 119.519 86.4107 119.514 86.7184C120.105 88.2507 120.744 89.7627 121.431 91.2542C121.642 91.5185 121.911 91.6876 122.239 91.7612C126.234 101.643 130.179 111.545 134.075 121.467C133.544 122.321 132.955 123.136 132.307 123.911C132.277 123.233 132.25 122.566 132.225 121.909C132.255 121.557 132.219 121.204 132.117 120.852C131.881 118.759 131.463 116.7 130.865 114.677C130.869 114.523 130.844 114.364 130.79 114.199C130.338 112.962 129.818 111.767 129.233 110.615C129.151 110.422 129.071 110.231 128.989 110.039C128.85 109.681 128.66 109.365 128.419 109.092C126.451 105.799 123.748 103.321 120.312 101.656C118.291 100.752 116.205 100.064 114.051 99.5928C111.828 99.2173 109.595 98.8881 107.354 98.605C105.88 98.385 104.451 97.9846 103.069 97.4033C100.981 96.1399 100.244 94.3298 100.859 91.9731C101.144 91.0748 101.497 90.2041 101.919 89.3611C103.327 86.8706 104.735 84.38 106.143 81.8895C107.395 79.4929 108.297 76.9758 108.85 74.3386C109.058 72.7327 109.102 71.13 108.981 69.5306C109.022 69.3423 108.999 69.154 108.912 68.9658C108.114 65.0056 106.596 61.3476 104.358 57.9917C104.299 57.7852 104.18 57.6376 104.001 57.5486C103.911 57.3458 103.781 57.1743 103.614 57.0334C103.478 56.8043 103.328 56.5846 103.166 56.3743Z" fill="#5275EC"/>
</g>
</g>
<g filter="url(#filter2_f_2074_12119)">
<path fill-rule="evenodd" clip-rule="evenodd" d="M65.8172 72.4114C66.0211 74.5879 66.5649 76.6775 67.4488 78.6805C67.5933 79.1561 67.7671 79.6343 67.9702 80.1149C68.332 80.9827 68.7402 81.8145 69.1946 82.6099C69.743 83.6168 70.3712 84.5675 71.0792 85.4623C71.2201 85.7599 71.4276 85.9833 71.702 86.1326C73.4619 87.9895 75.5057 89.4452 77.8334 90.4995C79.2227 91.1232 80.6433 91.64 82.0955 92.05C85.1829 92.8057 88.2615 93.5976 91.3313 94.4258C92.4115 94.7641 93.4012 95.2651 94.3003 95.9288C95.6377 97.195 96.0543 98.7161 95.5504 100.492C95.1276 101.633 94.5749 102.701 93.8922 103.696C92.2787 105.835 90.7044 108 89.1694 110.191C83.82 118.603 84.0178 126.935 89.7636 135.186C90.9891 136.934 92.3444 138.567 93.8293 140.086C92.934 140.001 92.0571 139.833 91.1992 139.586C91.5284 140.465 91.8815 141.334 92.2588 142.193C87.5343 131.615 82.8161 121.022 78.1039 110.413C78.2677 110.156 78.3204 109.879 78.262 109.582C77.6405 107.978 76.971 106.394 76.2534 104.83C76.0564 104.69 75.8414 104.583 75.6084 104.509C71.8246 95.1471 68.0787 85.7833 64.3706 76.4174C64.2651 75.9689 64.1065 75.5268 63.8948 75.091C63.9268 74.9701 63.9582 74.8436 63.9891 74.7117C64.4338 74.0841 64.8765 73.4586 65.3173 72.8349C65.4388 72.6387 65.6054 72.4976 65.8172 72.4114Z" fill="#5275EC"/>
</g>
<path fill-rule="evenodd" clip-rule="evenodd" d="M104.004 57.5469C104.182 57.6359 104.302 57.7835 104.361 57.99C104.217 57.8727 104.098 57.725 104.004 57.5469Z" fill="#8C8C8C"/>
<path fill-rule="evenodd" clip-rule="evenodd" d="M61.6245 69.5173C62.4023 71.367 63.1594 73.2251 63.8958 75.0915C64.1075 75.5274 64.2661 75.9695 64.3716 76.4179C63.4038 74.1248 62.4881 71.8247 61.6245 69.5173Z" fill="#BEBEBE"/>
<path fill-rule="evenodd" clip-rule="evenodd" d="M106.352 55.875C107.241 57.6327 108.06 59.4366 108.808 61.286C108.117 59.8387 107.441 58.3709 106.778 56.883C106.636 56.547 106.494 56.211 106.352 55.875Z" fill="#5E5E5E"/>
<path fill-rule="evenodd" clip-rule="evenodd" d="M107.426 56.0156C107.642 56.3612 107.841 56.73 108.021 57.1219C108.706 58.6425 109.367 60.1733 110.004 61.7146C109.13 59.8356 108.27 57.9361 107.426 56.0156Z" fill="#043563"/>
<g filter="url(#filter3_f_2074_12119)">
<g filter="url(#filter4_d_2074_12119)">
<path fill-rule="evenodd" clip-rule="evenodd" d="M110.888 55.569C111.262 56.4865 111.66 57.3933 112.081 58.2897C122.261 61.6965 130.074 68.0682 135.521 77.4045C141.829 89.0626 142.745 101.066 138.267 113.413C137.785 114.505 137.296 115.588 136.798 116.665C136.847 116.979 136.945 117.277 137.092 117.559C133.27 109.076 129.451 100.577 125.636 92.0634C125.44 91.5665 125.243 91.0692 125.048 90.5722C125.183 90.2819 125.226 89.9811 125.175 89.6697C124.574 88.1133 123.925 86.5773 123.228 85.0618C123.067 84.939 122.898 84.8406 122.721 84.7668C122.227 83.7918 121.777 82.7939 121.371 81.7733C120.31 79.237 119.293 76.6967 118.319 74.1526C117.478 71.8926 116.583 69.6403 115.633 67.396C114.023 63.4516 112.441 59.5093 110.888 55.569Z" fill="#5275EC"/>
</g>
</g>
<g filter="url(#filter5_f_2074_12119)">
<path fill-rule="evenodd" clip-rule="evenodd" d="M61.0611 79.4342C61.5636 80.4231 62.0238 81.4449 62.4417 82.4996C63.3339 84.6268 64.2747 86.7185 65.2638 88.7746C66.7349 92.1558 68.2373 95.5093 69.7709 98.835C70.8546 101.078 71.8644 103.366 72.8005 105.701C72.6917 105.92 72.6187 106.149 72.5816 106.388C73.2132 108.016 73.8929 109.624 74.6206 111.212C74.8169 111.42 75.0541 111.546 75.3321 111.59C76.3654 114.18 77.4028 116.768 78.4445 119.354C81.1761 126.219 83.9029 133.072 86.6251 139.912C86.4146 139.348 86.1575 138.807 85.8532 138.287C74.648 134.503 66.3755 127.279 61.0353 116.615C56.2315 106.361 55.5103 95.8881 58.8719 85.1966C59.5334 83.3457 60.2798 81.531 61.1108 79.7526C61.1269 79.6409 61.1103 79.5347 61.0611 79.4342Z" fill="#5275EC"/>
</g>
<path fill-rule="evenodd" clip-rule="evenodd" d="M67.4512 78.6804C68.0173 79.9973 68.5993 81.3072 69.197 82.6098C68.7426 81.8144 68.3344 80.9827 67.9726 80.1148C67.7695 79.6342 67.5957 79.156 67.4512 78.6804Z" fill="#757575"/>
<path fill-rule="evenodd" clip-rule="evenodd" d="M62.4419 82.4998C63.4249 84.5586 64.3657 86.6503 65.264 88.7747C64.2749 86.7187 63.3341 84.627 62.4419 82.4998Z" fill="#CECECE"/>
<path fill-rule="evenodd" clip-rule="evenodd" d="M108.914 68.9623C109.001 69.1505 109.024 69.3389 108.983 69.5272C108.896 69.339 108.873 69.1506 108.914 68.9623Z" fill="#898989"/>
<path fill-rule="evenodd" clip-rule="evenodd" d="M71.082 85.4688C71.3094 85.6645 71.517 85.8878 71.7048 86.139C71.4304 85.9897 71.2228 85.7663 71.082 85.4688Z" fill="#8F8F8F"/>
<path fill-rule="evenodd" clip-rule="evenodd" d="M65.2656 88.7734C66.8419 92.0801 68.3442 95.4335 69.7727 98.8338C68.2391 95.5082 66.7367 92.1547 65.2656 88.7734Z" fill="#ACACAC"/>
<path fill-rule="evenodd" clip-rule="evenodd" d="M115.632 67.4001C116.582 69.6444 117.477 71.8967 118.319 74.1567C117.369 71.9124 116.474 69.6601 115.632 67.4001Z" fill="#C2C2C2"/>
<path fill-rule="evenodd" clip-rule="evenodd" d="M68.9526 94.6782C69.7783 96.3507 70.5567 98.0583 71.2878 99.8012C70.4499 98.1344 69.6714 96.4268 68.9526 94.6782Z" fill="#032D55"/>
<path fill-rule="evenodd" clip-rule="evenodd" d="M118.095 79.8492C118.948 81.6241 119.767 83.4276 120.552 85.2602C119.668 83.4999 118.849 81.6963 118.095 79.8492Z" fill="#051C31"/>
<path fill-rule="evenodd" clip-rule="evenodd" d="M121.37 81.7737C121.776 82.7944 122.226 83.7923 122.72 84.7672C122.672 84.7781 122.626 84.7693 122.582 84.7409C122.101 83.7697 121.697 82.7806 121.37 81.7737Z" fill="#ADADAD"/>
<path fill-rule="evenodd" clip-rule="evenodd" d="M122.49 85.6264C123.038 86.9224 123.586 88.2184 124.133 89.5143C123.437 89.8086 122.742 90.1026 122.045 90.3969C121.463 89.0833 120.929 87.7533 120.444 86.4066C121.031 86.0595 121.649 85.7839 122.3 85.5793C122.361 85.6145 122.424 85.6301 122.49 85.6264Z" fill="#064E92"/>
<path fill-rule="evenodd" clip-rule="evenodd" d="M75.3744 105.456C75.4406 105.414 75.4987 105.418 75.5488 105.468C76.0865 106.74 76.6241 108.012 77.1618 109.284C76.5138 109.557 75.8658 109.831 75.2178 110.105C74.668 108.838 74.1424 107.561 73.6409 106.274C74.1928 105.957 74.7706 105.685 75.3744 105.456Z" fill="#064E94"/>
<path fill-rule="evenodd" clip-rule="evenodd" d="M75.3738 105.46C74.7701 105.689 74.1922 105.961 73.6403 106.278C74.1419 107.565 74.6675 108.842 75.2173 110.109C75.8653 109.835 76.5132 109.561 77.1612 109.287C76.5085 109.648 75.8227 109.966 75.1037 110.242C74.5438 108.951 74.008 107.65 73.4963 106.339C73.5171 106.288 73.5379 106.236 73.5587 106.185C74.1463 105.867 74.7514 105.625 75.3738 105.46Z" fill="#07447D"/>
<path fill-rule="evenodd" clip-rule="evenodd" d="M75.5489 105.469C76.1733 106.746 76.7552 108.056 77.2947 109.398C76.5717 109.732 75.8415 110.012 75.1043 110.239C75.8233 109.963 76.5091 109.645 77.1618 109.285C76.6242 108.013 76.0865 106.741 75.5489 105.469Z" fill="#032749"/>
<path fill-rule="evenodd" clip-rule="evenodd" d="M122.49 85.6252C123.115 86.9022 123.697 88.2121 124.236 89.5547C123.513 89.888 122.783 90.1684 122.046 90.3957C122.742 90.1014 123.437 89.8074 124.134 89.5131C123.586 88.2172 123.038 86.9212 122.49 85.6252Z" fill="#022140"/>
<path fill-rule="evenodd" clip-rule="evenodd" d="M78.7676 114.294C79.9304 116.873 81.0309 119.476 82.0696 122.106C82.4749 122.776 82.8461 123.454 83.1834 124.138C83.8255 125.621 84.4785 127.099 85.1423 128.572C85.8226 130.116 86.4529 131.674 87.0332 133.246C87.0845 133.267 87.1357 133.288 87.1869 133.308C87.4278 133.844 87.6868 134.356 87.9644 134.847C89.0321 137.338 90.1113 139.824 91.2015 142.304C90.4575 142.619 89.7135 142.933 88.9696 143.247C88.8883 143.055 88.8074 142.864 88.7261 142.672C86.4234 136.856 84.1087 131.045 81.7821 125.24C80.9903 123.1 80.1457 120.968 79.2479 118.843C78.2584 116.376 77.2597 113.913 76.2517 111.454C76.5712 111.206 76.9312 111.054 77.3317 110.997C77.8342 112.086 78.3128 113.184 78.7676 114.294Z" fill="#064E92"/>
<path fill-rule="evenodd" clip-rule="evenodd" d="M138.219 122.43C137.451 122.755 136.683 123.079 135.915 123.404C135.671 122.828 135.428 122.252 135.184 121.676C134.124 119.097 133.087 116.508 132.072 113.911C131.497 112.218 130.846 110.542 130.116 108.882C128.896 105.778 127.645 102.686 126.365 99.6059C125.886 98.2393 125.366 96.8747 124.804 95.5131C124.244 94.2223 123.709 92.9212 123.197 91.61C123.517 91.3621 123.877 91.2099 124.277 91.1535C128.918 101.582 133.565 112.007 138.219 122.43Z" fill="#064D91"/>
<path fill-rule="evenodd" clip-rule="evenodd" d="M75.3354 111.588C75.5912 112.059 75.8283 112.553 76.0465 113.069C76.8992 115.157 77.6998 117.252 78.4478 119.352C77.4061 116.766 76.3688 114.178 75.3354 111.588Z" fill="#3F3F3F"/>
<path fill-rule="evenodd" clip-rule="evenodd" d="M101.497 55.6351C102.044 56.0414 102.527 56.5161 102.948 57.0587C105.206 60.0951 106.861 63.4409 107.912 67.0957C108.304 68.4242 108.51 69.7799 108.528 71.1632C108.482 73.4767 108.071 75.7155 107.294 77.8799C106.637 79.5145 105.911 81.1086 105.114 82.6622C104.027 84.5037 102.94 86.3492 101.854 88.1987C101.276 89.3286 100.764 90.4927 100.317 91.6911C99.5365 94.3826 100.351 96.4428 102.76 97.8717C103.167 98.0264 103.564 98.1979 103.953 98.3857C104.833 98.5739 105.699 98.816 106.552 99.112C108.465 99.3504 110.376 99.5897 112.286 99.8282C115.193 100.312 117.98 101.184 120.648 102.446C124.217 104.416 126.934 107.229 128.796 110.882C130.999 115.608 131.944 120.555 131.632 125.722C131.604 125.785 131.576 125.853 131.549 125.927C131.469 125.858 131.417 125.767 131.391 125.654C131.331 125.781 131.287 125.913 131.261 126.049C131.222 126.023 131.183 125.997 131.144 125.971C131.225 125.842 131.251 125.704 131.223 125.556C131.202 125.508 131.182 125.46 131.162 125.412C131.128 124.12 131.093 122.833 131.058 121.552C131.095 121.282 131.065 121.011 130.969 120.741C130.873 119.936 130.761 119.134 130.632 118.338C130.665 118.26 130.67 118.172 130.649 118.076C130.703 118.138 130.758 118.2 130.812 118.262C130.641 117.74 130.464 117.221 130.281 116.704C130.058 115.732 129.769 114.78 129.413 113.846C129.403 113.823 129.392 113.798 129.382 113.774C128.711 111.735 127.721 109.862 126.413 108.156C126.339 107.962 126.22 107.814 126.056 107.713C123.797 104.93 120.975 102.941 117.593 101.743C115.622 101.082 113.61 100.604 111.554 100.307C108.953 100.048 106.39 99.6039 103.863 98.9755C102.831 98.6365 101.914 98.1052 101.11 97.3811C100.859 97.1643 100.653 96.9118 100.493 96.6237C100.093 95.9169 99.7784 95.1729 99.5496 94.3918C99.4266 93.5741 99.4666 92.7652 99.6694 91.965C99.991 91.0254 100.348 90.0966 100.74 89.1785C102.209 86.4885 103.711 83.8171 105.245 81.1644C106.022 79.5481 106.694 77.892 107.261 76.1965C108.044 73.4358 108.129 70.6563 107.513 67.8584C107.492 67.8104 107.472 67.7624 107.452 67.7144C107.337 67.13 107.176 66.5476 106.968 65.9671C106.952 65.7644 106.907 65.5573 106.832 65.3455C106.363 64.1012 105.846 62.8772 105.28 61.6736C105.209 61.5442 105.122 61.4395 105.02 61.3593C104.596 60.415 104.081 59.5299 103.473 58.7035C103.335 58.4244 103.151 58.1908 102.923 58.0029C102.503 57.4633 102.057 56.9446 101.586 56.4464C95.7933 58.8382 89.9996 61.2589 84.2038 63.7088C78.3958 66.1639 72.6322 68.6567 66.9132 71.1873C66.909 71.7668 66.9541 72.3418 67.0483 72.9123C67.0071 73.1007 67.0302 73.2889 67.1173 73.4771C67.5801 76.0645 68.4146 78.5405 69.6207 80.9052C70.4054 82.5811 71.4054 84.1103 72.6206 85.4926C74.1917 87.0965 75.9901 88.373 78.0157 89.3221C79.5754 90.0149 81.1668 90.601 82.7899 91.0805C84.9578 91.6274 87.1311 92.1514 89.3098 92.6524C90.9992 93.0794 92.6247 93.6794 94.1864 94.4523C94.4532 94.6651 94.7328 94.8581 95.0252 95.0313C95.274 95.2589 95.5037 95.5013 95.7144 95.7583C95.8082 95.9671 95.9374 96.1388 96.1018 96.2734C96.1867 96.4073 96.2716 96.5411 96.3564 96.675C97.1401 98.5758 97.0504 100.438 96.0875 102.262C95.8565 102.622 95.646 102.994 95.4558 103.378C93.8873 105.59 92.2991 107.788 90.6914 109.974C88.773 112.644 87.4583 115.59 86.7472 118.812C86.524 120.117 86.4405 121.425 86.4968 122.737C86.4652 123.285 86.5001 123.836 86.6015 124.39C86.8953 126.68 87.5619 128.859 88.6012 130.928C88.6112 130.951 88.6216 130.976 88.6316 131C90.0217 133.667 91.7217 136.117 93.7321 138.348C94.4116 139.078 95.1144 139.77 95.8413 140.427C107.619 135.533 119.389 130.586 131.151 125.587C119.505 130.594 107.828 135.558 96.1181 140.48C96.1586 140.575 96.1994 140.672 96.2399 140.768C96.0923 140.887 95.9443 141.005 95.7967 141.125C91.8722 137.746 88.9589 133.631 87.0569 128.78C85.202 123.362 85.5908 118.092 88.2235 112.969C88.6437 112.228 89.0649 111.485 89.4868 110.738C89.6015 110.621 89.7303 110.524 89.8731 110.448C89.8214 110.369 89.815 110.287 89.8538 110.201C91.3283 108.161 92.818 106.131 94.3232 104.111C94.6279 103.594 94.952 103.089 95.2955 102.597C95.9105 101.425 96.2759 100.181 96.3917 98.8665C96.191 97.5582 95.6321 96.4367 94.7149 95.5019C94.4206 95.3267 94.141 95.1337 93.8762 94.9229C93.1844 94.6028 92.4983 94.2846 91.8179 93.9684C90.894 93.6625 89.9546 93.3807 88.9996 93.123C86.7221 92.6572 84.4565 92.1156 82.2028 91.4984C80.8741 91.0587 79.5558 90.5834 78.248 90.0726C77.1609 89.5119 76.0896 88.918 75.0341 88.2912C71.8526 86.0367 69.6145 83.0508 68.3199 79.3335C67.4383 77.2943 66.8142 75.182 66.4475 72.9965C66.3666 72.194 66.3244 71.3915 66.3209 70.589C78.0787 65.6473 89.8044 60.6626 101.497 55.6351Z" fill="#1C1C1B"/>
<path fill-rule="evenodd" clip-rule="evenodd" d="M99.648 95.0317C99.8392 95.5174 100.054 95.9923 100.293 96.4565C100.347 96.5385 100.413 96.5953 100.492 96.6268C100.652 96.9149 100.858 97.1674 101.109 97.3843C101.912 98.1083 102.83 98.6396 103.862 98.9786C106.389 99.6071 108.952 100.051 111.553 100.31C113.609 100.607 115.621 101.086 117.592 101.746C120.974 102.944 123.796 104.933 126.055 107.716C126.129 107.909 126.249 108.057 126.412 108.159C127.72 109.865 128.71 111.738 129.381 113.778C128.096 114.023 126.809 114.256 125.519 114.477C125.221 114.494 124.926 114.534 124.635 114.596C123.346 112.586 121.901 110.707 120.301 108.96C120.223 109.012 120.141 109.018 120.055 108.979C119.889 108.947 119.766 108.858 119.687 108.71C119.363 108.762 119.043 108.742 118.727 108.649C118.566 108.703 118.406 108.757 118.244 108.811C117.907 109.024 117.599 109.267 117.322 109.54C117.34 109.915 117.386 110.292 117.46 110.67C117.642 111.031 117.892 111.321 118.21 111.541C119.28 112.681 120.193 113.936 120.947 115.306C120.731 115.397 120.515 115.489 120.299 115.58C119.219 115.813 118.15 116.095 117.093 116.426C115.078 116.134 113.056 115.899 111.025 115.724C110.167 115.733 109.301 115.759 108.428 115.803C108.015 115.833 107.62 115.901 107.242 116.008C106.584 114.419 105.902 112.84 105.197 111.271C104.77 110.743 104.485 110.806 104.344 111.462C104.992 113.112 105.646 114.758 106.306 116.403C105.335 117.11 104.426 117.904 103.579 118.786C102.478 120.035 101.439 121.323 100.46 122.651C100.259 122.751 100.083 122.868 99.9298 123.002C95.7494 125.079 91.9731 127.722 88.6002 130.931C87.5608 128.863 86.8943 126.683 86.6005 124.393C86.6319 123.844 86.5969 123.292 86.4958 122.74C86.4394 121.428 86.5229 120.12 86.7462 118.816C87.4573 115.593 88.7719 112.647 90.6904 109.977C92.2981 107.792 93.8863 105.593 95.4548 103.381C95.645 102.997 95.8555 102.625 96.0864 102.265C97.0494 100.441 97.1391 98.579 96.3554 96.6781C96.689 97.0529 96.9897 97.4632 97.2576 97.9091C97.8775 98.9508 98.5122 99.9838 99.1616 101.008C99.4799 101.482 99.8369 101.925 100.233 102.337C100.995 103.025 101.379 102.863 101.385 101.85C101.384 101.686 101.359 101.527 101.31 101.373C101.266 100.784 101.187 100.194 101.072 99.6062C100.897 99.2621 100.745 98.9022 100.616 98.5262C100.218 97.3711 99.8952 96.2063 99.648 95.0317Z" fill="#EFEFEF"/>
<path fill-rule="evenodd" clip-rule="evenodd" d="M101.997 103.799C102.499 104.918 102.951 106.056 103.356 107.213C103.118 107.237 102.892 107.304 102.677 107.415C102.2 106.287 101.724 105.16 101.247 104.031C101.237 103.56 101.444 103.415 101.87 103.598C101.934 103.652 101.976 103.719 101.997 103.799Z" fill="#7595FF"/>
<path fill-rule="evenodd" clip-rule="evenodd" d="M100.616 98.5205C100.745 98.8964 100.897 99.2564 101.072 99.6005C101.187 100.189 101.266 100.778 101.31 101.367C101.101 100.402 100.87 99.4534 100.616 98.5205Z" fill="#F3E0C5"/>
<path fill-rule="evenodd" clip-rule="evenodd" d="M99.5508 94.3904C99.7797 95.1715 100.094 95.9155 100.494 96.6223C100.416 96.5907 100.349 96.534 100.295 96.452C100.056 95.9878 99.8415 95.5129 99.6503 95.0272C99.5846 94.8112 99.5515 94.5989 99.5508 94.3904Z" fill="#4C4640"/>
<path fill-rule="evenodd" clip-rule="evenodd" d="M95.7148 95.7578C95.8969 95.8793 96.026 96.051 96.1023 96.2729C95.9378 96.1384 95.8086 95.9666 95.7148 95.7578Z" fill="#61431F"/>
<path fill-rule="evenodd" clip-rule="evenodd" d="M77.3976 82.5407C77.3875 82.5168 77.3773 82.4927 77.3672 82.4688C78.4535 82.0716 79.5602 81.7452 80.6873 81.4897C80.7353 81.4694 80.7694 81.4832 80.7897 81.5312C81.4176 82.6055 81.1317 83.3346 79.9321 83.7183C79.738 83.7166 79.5447 83.7276 79.352 83.7513C78.8182 83.5176 78.3425 83.1953 77.925 82.7846C77.7585 82.6621 77.5827 82.5808 77.3976 82.5407Z" fill="#7595FF"/>
<path fill-rule="evenodd" clip-rule="evenodd" d="M107.513 67.8606C108.129 70.6585 108.044 73.438 107.261 76.1987C106.695 77.8942 106.022 79.5503 105.245 81.1666C103.711 83.8193 102.21 86.4907 100.741 89.1807C100.348 90.0989 99.9911 91.0276 99.6695 91.9672C99.4667 92.7674 99.4267 93.5763 99.5497 94.394C99.5503 94.6025 99.5834 94.8148 99.6491 95.0308C99.8964 96.2053 100.219 97.3702 100.617 98.5253C100.871 99.4582 101.102 100.407 101.311 101.372C101.36 101.526 101.385 101.685 101.386 101.849C101.38 102.862 100.996 103.024 100.234 102.336C99.838 101.924 99.481 101.481 99.1627 101.007C98.5133 99.9829 97.8787 98.9499 97.2588 97.9082C96.9908 97.4623 96.6901 97.052 96.3565 96.6772C96.2717 96.5433 96.1868 96.4095 96.1019 96.2756C96.0256 96.0537 95.8965 95.882 95.7145 95.7605C95.5038 95.5035 95.2741 95.2611 95.0253 95.0335C94.7329 94.8603 94.4533 94.6673 94.1865 94.4545C92.6247 93.6816 90.9992 93.0816 89.3099 92.6547C87.1312 92.1536 84.9579 91.6297 82.79 91.0827C81.1669 90.6033 79.5755 90.0172 78.0158 89.3244C75.9902 88.3752 74.1918 87.0987 72.6207 85.4948C73.3669 84.7461 74.2014 84.1105 75.1243 83.5879C75.87 83.2136 76.6278 82.865 77.3978 82.5421C77.5828 82.5821 77.7586 82.6634 77.9251 82.7859C78.3426 83.1966 78.8183 83.5189 79.3521 83.7526C79.5448 83.7289 79.7382 83.7179 79.9322 83.7196C81.1319 83.3359 81.4177 82.6068 80.7898 81.5325C80.8618 81.5021 80.9338 81.4717 81.0058 81.4412C83.2434 81.1377 85.494 80.9077 87.7577 80.7512C89.1772 80.587 90.5912 80.3854 91.9996 80.1462C93.8495 79.744 95.6636 79.2177 97.4422 78.567C100.034 77.3762 102.281 75.7331 104.184 73.638C104.866 72.8405 105.469 71.9918 105.993 71.0913C106.44 70.1814 106.873 69.2631 107.29 68.3368C107.256 68.1243 107.331 67.9655 107.513 67.8606Z" fill="#0025A4"/>
<path fill-rule="evenodd" clip-rule="evenodd" d="M83.0763 84.131C83.3364 84.007 83.6054 83.9074 83.8835 83.8322C85.3517 84.6868 86.8739 85.4436 88.4499 86.1027C88.6173 86.3405 88.6195 86.58 88.4566 86.8212C87.9578 87.1634 87.4132 87.2804 86.8229 87.1723C85.037 86.8549 83.3653 86.2461 81.8078 85.346C81.7765 85.2273 81.7839 85.111 81.8301 84.9972C82.2567 84.7087 82.6722 84.4199 83.0763 84.131Z" fill="#7595FF"/>
<path fill-rule="evenodd" clip-rule="evenodd" d="M97.7031 71.1556C98.9991 70.6078 100.295 70.06 101.591 69.5122C102.82 69.0984 104.06 68.6875 105.313 68.2786C106.027 68.0529 106.739 67.8649 107.45 67.7144C107.471 67.7624 107.491 67.8104 107.511 67.8584C107.329 67.9633 107.254 68.1221 107.288 68.3346C106.871 69.2609 106.439 70.1792 105.991 71.0891C105.467 71.9896 104.865 72.8384 104.183 73.6358C102.28 75.7309 100.032 77.374 97.4405 78.5648C95.6619 79.2155 93.8478 79.7418 91.9979 80.144C90.5895 80.3832 89.1755 80.5848 87.756 80.749C85.4924 80.9055 83.2417 81.1355 81.0041 81.439C82.0219 80.7367 83.0092 79.9941 83.966 79.2111C84.9888 78.5897 85.9774 77.9172 86.932 77.1936C88.8315 76.0138 90.7548 74.8755 92.7019 73.7788C93.1111 73.6267 93.4752 73.4161 93.793 73.1479C93.8412 73.1275 93.8887 73.1074 93.937 73.087C94.4753 72.8488 94.9827 72.5777 95.4601 72.2735C96.2416 71.9421 96.9895 71.5694 97.7031 71.1556Z" fill="#2E5FFF"/>
<path fill-rule="evenodd" clip-rule="evenodd" d="M105.02 61.3594C105.121 61.4396 105.208 61.5443 105.28 61.6737C105.845 62.8773 106.363 64.1012 106.832 65.3456C106.906 65.5574 106.951 65.7645 106.967 65.9672C106.413 64.391 105.764 62.8551 105.02 61.3594Z" fill="#3B3B3B"/>
<path fill-rule="evenodd" clip-rule="evenodd" d="M102.922 58C103.151 58.1879 103.334 58.4215 103.473 58.7007C103.244 58.5128 103.06 58.2792 102.922 58Z" fill="#939393"/>
<path fill-rule="evenodd" clip-rule="evenodd" d="M67.0469 72.9155C67.1341 73.1037 67.1572 73.2919 67.116 73.4803C67.0288 73.2921 67.0057 73.1039 67.0469 72.9155Z" fill="#909090"/>
<path fill-rule="evenodd" clip-rule="evenodd" d="M101.585 56.4433C102.056 56.9415 102.501 57.4602 102.921 57.9998C103.06 58.2789 103.243 58.5125 103.472 58.7004C104.079 59.5268 104.595 60.4119 105.019 61.3562C105.763 62.8519 106.412 64.3878 106.967 65.9641C107.175 66.5445 107.336 67.1269 107.451 67.7113C106.74 67.8618 106.027 68.0498 105.313 68.2755C105.002 68.294 104.688 68.3557 104.373 68.4607C104.728 68.2417 104.712 68.2057 104.327 68.3527C103.431 68.7688 102.518 69.1544 101.591 69.5091C100.295 70.0569 98.9995 70.6047 97.7035 71.1525C96.9148 71.4689 96.1669 71.8415 95.4605 72.2704C94.9104 72.4868 94.4029 72.7579 93.9374 73.0839C93.8891 73.1043 93.8416 73.1244 93.7934 73.1448C93.3946 73.3156 93.0312 73.5259 92.7023 73.7757C90.7552 74.8724 88.8319 76.0107 86.9325 77.1905C85.9778 77.9141 84.9892 78.5866 83.9665 79.208C83.0096 79.991 82.0224 80.7336 81.0045 81.4359C80.9325 81.4664 80.8605 81.4968 80.7885 81.5272C80.7682 81.4792 80.7341 81.4654 80.6861 81.4857C80.3989 81.2557 80.0972 81.0438 79.7809 80.8499C79.6945 80.6828 79.5875 80.53 79.4599 80.3916C78.6598 79.6853 77.9144 78.9256 77.2235 78.1122C76.5744 77.1807 75.9342 76.235 75.3028 75.275C74.6702 74.1003 74.1288 72.8865 73.6787 71.6335C73.5337 71.397 73.3603 71.1875 73.1584 71.0048C72.939 70.9245 72.7184 70.9045 72.4967 70.9451C72.4663 70.8731 72.4358 70.8011 72.4054 70.7291C71.222 70.9488 70.6865 71.6561 70.7988 72.8509C70.9238 73.1799 71.0488 73.509 71.1737 73.838C72.222 75.8454 73.3894 77.7705 74.6757 79.6134C75.0251 80.0119 75.4168 80.3696 75.8507 80.6867C76.3107 81.2804 76.8245 81.8269 77.3924 82.3263C77.364 82.3708 77.3553 82.417 77.366 82.4648C76.5687 82.7646 75.8209 83.1372 75.123 83.5826C74.2002 84.1052 73.3656 84.7408 72.6194 85.4895C71.4042 84.1072 70.4042 82.578 69.6195 80.9021C68.4134 78.5374 67.579 76.0614 67.1162 73.474C67.1574 73.2856 67.1343 73.0974 67.0471 72.9092C66.9529 72.3387 66.9078 71.7637 66.912 71.1842C78.4443 66.2248 90.0015 61.3113 101.585 56.4433Z" fill="#EFEFEF"/>
<path fill-rule="evenodd" clip-rule="evenodd" d="M77.3665 82.4652C77.3766 82.4892 77.3868 82.5132 77.3969 82.5372C76.627 82.8601 75.8692 83.2088 75.1234 83.5831C75.8214 83.1377 76.5691 82.7651 77.3665 82.4652Z" fill="#F8B24D"/>
<path fill-rule="evenodd" clip-rule="evenodd" d="M93.7926 73.1459C93.4749 73.4141 93.1107 73.6246 92.7015 73.7768C93.0304 73.527 93.3938 73.3167 93.7926 73.1459Z" fill="#F3CC97"/>
<path fill-rule="evenodd" clip-rule="evenodd" d="M95.4599 72.2702C94.9826 72.5744 94.4751 72.8455 93.9368 73.0838C94.4024 72.7577 94.9098 72.4866 95.4599 72.2702Z" fill="#F4D7B0"/>
<path fill-rule="evenodd" clip-rule="evenodd" d="M101.594 69.5156C102.521 69.1609 103.433 68.7753 104.33 68.3592C104.715 68.2122 104.73 68.2482 104.375 68.4672C104.691 68.3622 105.004 68.3005 105.315 68.2819C104.063 68.6908 102.822 69.1018 101.594 69.5156Z" fill="#F3E4D2"/>
<path fill-rule="evenodd" clip-rule="evenodd" d="M97.7034 71.1536C96.9898 71.5674 96.2419 71.9401 95.4604 72.2715C96.1667 71.8427 96.9147 71.47 97.7034 71.1536Z" fill="#F2DFC4"/>
<path fill-rule="evenodd" clip-rule="evenodd" d="M80.6872 81.4874C79.5601 81.743 78.4534 82.0694 77.3671 82.4665C77.3563 82.4187 77.3651 82.3726 77.3935 82.3281C76.8256 81.8287 76.3118 81.2822 75.8518 80.6885C75.4179 80.3714 75.0261 80.0136 74.6768 79.6152C73.3905 77.7723 72.2231 75.8471 71.1748 73.8398C71.0498 73.5107 70.9248 73.1817 70.7999 72.8526C70.6875 71.6578 71.2231 70.9506 72.4065 70.7309C72.4369 70.8029 72.4673 70.8749 72.4978 70.9469C72.7195 70.9063 72.9401 70.9262 73.1595 71.0066C73.3614 71.1893 73.5348 71.3988 73.6798 71.6353C74.1298 72.8882 74.6713 74.102 75.3039 75.2767C75.9353 76.2367 76.5755 77.1824 77.2245 78.114C77.9154 78.9273 78.6609 79.6871 79.461 80.3934C79.5885 80.5318 79.6956 80.6846 79.782 80.8517C80.0983 81.0456 80.4 81.2575 80.6872 81.4874Z" fill="#7595FF"/>
<path fill-rule="evenodd" clip-rule="evenodd" d="M101.585 56.45C90.0019 61.3179 78.4447 66.2315 66.9124 71.1909C72.6315 68.6603 78.395 66.1675 84.203 63.7124C89.9989 61.2625 95.7926 58.8418 101.585 56.45Z" fill="#838383"/>
<path fill-rule="evenodd" clip-rule="evenodd" d="M109.553 103.403C109.879 103.297 110.211 103.213 110.55 103.152C110.837 103.252 111.133 103.282 111.437 103.243C111.918 103.47 112.401 103.677 112.887 103.861C112.973 103.9 113.055 103.894 113.133 103.842C113.234 104.082 113.405 104.151 113.645 104.05C113.855 104.292 114.086 104.506 114.34 104.69C114.6 104.724 114.865 104.782 115.134 104.863C115.326 104.95 115.457 105.092 115.527 105.291C115.599 105.26 115.671 105.23 115.743 105.199C116.173 105.54 116.593 105.899 117.006 106.278C117.127 106.403 117.176 106.553 117.152 106.726C116.374 107.151 115.564 107.508 114.72 107.796C114.498 107.766 114.286 107.7 114.084 107.598C112.923 106.666 111.742 105.778 110.541 104.938C110.399 104.87 110.258 104.873 110.12 104.946C109.887 104.683 109.64 104.433 109.38 104.198C109.314 103.898 109.372 103.633 109.553 103.403Z" fill="#7595FF" fill-opacity="0.5"/>
<path fill-rule="evenodd" clip-rule="evenodd" d="M124.801 95.5153C125.362 96.8769 125.882 98.2415 126.361 99.6081C125.903 98.557 125.468 97.4956 125.058 96.4249C124.944 96.1178 124.858 95.8146 124.801 95.5153Z" fill="#0A1523"/>
<path fill-rule="evenodd" clip-rule="evenodd" d="M100.741 102.93C101.392 104.47 102.043 106.01 102.694 107.55C102.906 107.433 103.136 107.374 103.384 107.375C102.805 105.806 102.178 104.255 101.503 102.724C102.646 105.195 103.724 107.713 104.738 110.278C104.862 110.773 104.739 111.017 104.37 111.013C104.156 110.819 103.973 110.588 103.822 110.318C102.716 107.869 101.689 105.406 100.741 102.93Z" fill="#7595FF"/>
<path fill-rule="evenodd" clip-rule="evenodd" d="M79.2495 118.845C80.1473 120.97 80.9919 123.102 81.7837 125.242C80.8837 123.118 80.0391 120.986 79.2495 118.845Z" fill="#04284B"/>
<path fill-rule="evenodd" clip-rule="evenodd" d="M107.242 116.003C106.93 116.134 106.618 116.266 106.306 116.398C105.646 114.753 104.992 113.107 104.344 111.457C104.485 110.801 104.77 110.738 105.197 111.266C105.903 112.835 106.584 114.414 107.242 116.003Z" fill="#7595FF"/>
<path fill-rule="evenodd" clip-rule="evenodd" d="M78.7695 114.297C80.2837 117.545 81.7557 120.827 83.1853 124.141C82.848 123.456 82.4768 122.779 82.0716 122.109C81.0328 119.479 79.9323 116.876 78.7695 114.297Z" fill="#063E73"/>
<path fill-rule="evenodd" clip-rule="evenodd" d="M124.637 114.597C123.344 114.909 122.053 115.2 120.763 115.47C120.611 115.559 120.457 115.596 120.301 115.581C120.517 115.49 120.733 115.398 120.949 115.307C120.194 113.937 119.282 112.682 118.212 111.542C117.894 111.322 117.644 111.032 117.462 110.671C117.388 110.293 117.342 109.916 117.324 109.541C117.601 109.268 117.908 109.025 118.246 108.812C118.407 108.758 118.568 108.704 118.729 108.65C119.045 108.743 119.365 108.763 119.689 108.711C119.768 108.859 119.891 108.948 120.057 108.98C120.143 109.019 120.225 109.013 120.303 108.961C121.902 110.708 123.348 112.587 124.637 114.597Z" fill="#7595FF"/>
<path fill-rule="evenodd" clip-rule="evenodd" d="M86.4962 122.74C86.5973 123.292 86.6323 123.843 86.6009 124.393C86.4995 123.839 86.4646 123.288 86.4962 122.74Z" fill="#AAAAAA"/>
<path fill-rule="evenodd" clip-rule="evenodd" d="M126.055 107.711C126.219 107.812 126.338 107.96 126.412 108.154C126.249 108.052 126.129 107.904 126.055 107.711Z" fill="#969696"/>
<path fill-rule="evenodd" clip-rule="evenodd" d="M106.307 116.404C106.619 116.272 106.931 116.141 107.243 116.009C107.621 115.902 108.016 115.834 108.429 115.804C109.302 115.76 110.168 115.734 111.026 115.725C113.057 115.9 115.08 116.135 117.094 116.427C117.94 116.599 118.8 116.758 119.673 116.907C119.946 117.123 120.252 117.178 120.591 117.071C120.893 117.214 121.204 117.281 121.524 117.27C121.554 117.342 121.585 117.414 121.615 117.486C121.799 117.381 121.986 117.357 122.18 117.417C122.285 117.729 122.431 118.007 122.617 118.251C122.88 118.806 123.089 119.369 123.245 119.937C123.022 119.409 122.799 118.881 122.575 118.353C120.164 119.726 117.726 121.053 115.263 122.335C109.052 125.478 102.575 127.89 95.8339 129.572C95.848 129.375 95.912 129.192 96.0265 129.024C97.3359 126.978 98.7384 124.942 100.234 122.917C100.126 122.921 100.025 122.95 99.931 123.003C100.084 122.869 100.261 122.752 100.461 122.652C101.44 121.324 102.48 120.036 103.58 118.787C104.427 117.905 105.336 117.111 106.307 116.404Z" fill="#2E5FFF"/>
<path fill-rule="evenodd" clip-rule="evenodd" d="M128.421 109.091C128.662 109.364 128.852 109.68 128.992 110.038C128.735 109.774 128.545 109.459 128.421 109.091Z" fill="#4C4C4C"/>
<path fill-rule="evenodd" clip-rule="evenodd" d="M99.9301 122.997C100.024 122.944 100.125 122.915 100.233 122.911C98.7375 124.936 97.3349 126.972 96.0255 129.018C95.9111 129.186 95.8471 129.369 95.8329 129.566C93.4661 130.218 91.0653 130.694 88.6309 130.998C88.6209 130.974 88.6105 130.95 88.6005 130.926C91.9734 127.717 95.7497 125.074 99.9301 122.997Z" fill="#001F85"/>
<path fill-rule="evenodd" clip-rule="evenodd" d="M117.094 116.422C118.151 116.091 119.22 115.809 120.3 115.576C120.456 115.591 120.61 115.554 120.763 115.465C120.868 115.499 120.974 115.483 121.081 115.415C121.435 116.088 121.801 116.753 122.18 117.412C121.986 117.352 121.798 117.375 121.615 117.481C121.584 117.409 121.554 117.337 121.524 117.265C121.204 117.276 120.893 117.209 120.591 117.065C120.252 117.173 119.946 117.118 119.673 116.902C118.799 116.753 117.94 116.594 117.094 116.422Z" fill="#001F85"/>
<path fill-rule="evenodd" clip-rule="evenodd" d="M129.232 110.61C129.818 111.762 130.337 112.957 130.79 114.195C130.843 114.36 130.868 114.519 130.864 114.673C130.361 113.303 129.816 111.948 129.232 110.61Z" fill="#242424"/>
<path fill-rule="evenodd" clip-rule="evenodd" d="M120.762 115.469C122.051 115.199 123.343 114.907 124.636 114.595C124.926 114.533 125.221 114.494 125.519 114.476C125.237 114.544 124.967 114.643 124.712 114.775C125.021 114.713 125.036 114.749 124.757 114.883C124.996 115.405 125.244 115.922 125.499 116.437C124.541 117.028 123.581 117.633 122.616 118.249C122.43 118.005 122.283 117.728 122.179 117.416C121.8 116.757 121.434 116.092 121.08 115.419C120.973 115.487 120.867 115.503 120.762 115.469Z" fill="#2E5FFF"/>
<path fill-rule="evenodd" clip-rule="evenodd" d="M130.113 108.884C130.842 110.544 131.494 112.22 132.069 113.913C131.386 112.236 130.734 110.559 130.113 108.884Z" fill="#043460"/>
<path fill-rule="evenodd" clip-rule="evenodd" d="M125.518 114.476C126.808 114.255 128.095 114.023 129.381 113.777C129.391 113.801 129.401 113.825 129.411 113.849C128.229 114.61 127.058 115.388 125.9 116.182C125.742 116.234 125.608 116.319 125.498 116.437C125.243 115.922 124.996 115.405 124.757 114.883C125.035 114.749 125.02 114.713 124.711 114.775C124.967 114.643 125.236 114.544 125.518 114.476Z" fill="#001F85"/>
<path fill-rule="evenodd" clip-rule="evenodd" d="M88.6328 131C91.0672 130.697 93.468 130.22 95.8348 129.568C102.576 127.886 109.053 125.474 115.264 122.331C117.727 121.049 120.165 119.722 122.576 118.349C122.8 118.877 123.023 119.406 123.246 119.933C123.704 121.221 124.039 122.55 124.253 123.921C124.864 125.036 125.71 125.23 126.79 124.503C127.289 124.107 127.595 123.596 127.711 122.968C127.735 122.265 127.615 121.58 127.352 120.913C126.798 119.422 126.227 117.938 125.639 116.461C125.738 116.368 125.825 116.274 125.902 116.18C127.06 115.386 128.231 114.608 129.414 113.847C129.77 114.78 130.059 115.732 130.282 116.704C130.358 117.248 130.474 117.793 130.634 118.338C130.762 119.135 130.875 119.936 130.971 120.741C130.934 121.012 130.963 121.283 131.059 121.553C131.095 122.834 131.129 124.12 131.163 125.412C119.415 130.463 107.641 135.468 95.8424 140.427C95.1156 139.77 94.4127 139.078 93.7333 138.349C91.7229 136.117 90.0229 133.668 88.6328 131Z" fill="#0025A4"/>
<path fill-rule="evenodd" clip-rule="evenodd" d="M85.1423 128.571C86.1276 130.629 87.0682 132.721 87.9644 134.846C87.6869 134.356 87.4278 133.843 87.1869 133.308C87.1357 133.287 87.0845 133.266 87.0333 133.245C86.4529 131.673 85.8226 130.115 85.1423 128.571Z" fill="#053C6F"/>
<path fill-rule="evenodd" clip-rule="evenodd" d="M125.9 116.183C125.823 116.278 125.735 116.372 125.637 116.464C126.225 117.942 126.795 119.426 127.349 120.917C127.612 121.583 127.732 122.268 127.708 122.972C127.593 123.599 127.286 124.111 126.787 124.507C125.707 125.234 124.861 125.04 124.25 123.924C124.036 122.553 123.701 121.224 123.243 119.937C123.087 119.368 122.878 118.806 122.615 118.251C123.58 117.634 124.541 117.029 125.498 116.438C125.608 116.32 125.742 116.236 125.9 116.183Z" fill="#2E5FFF"/>
<path fill-rule="evenodd" clip-rule="evenodd" d="M130.28 116.706C130.463 117.223 130.64 117.742 130.811 118.264C130.757 118.202 130.702 118.14 130.648 118.078C130.669 118.175 130.664 118.262 130.631 118.34C130.472 117.795 130.355 117.25 130.28 116.706Z" fill="#3C2F1B"/>
<path fill-rule="evenodd" clip-rule="evenodd" d="M87.9648 134.844C89.1172 137.284 90.2202 139.759 91.2739 142.271C91.2499 142.281 91.2259 142.291 91.2019 142.301C90.1117 139.821 89.0326 137.335 87.9648 134.844Z" fill="#032B51"/>
<path fill-rule="evenodd" clip-rule="evenodd" d="M130.97 120.745C131.065 121.015 131.095 121.286 131.058 121.556C130.963 121.286 130.933 121.015 130.97 120.745Z" fill="#573E18"/>
<path fill-rule="evenodd" clip-rule="evenodd" d="M132.12 120.847C132.222 121.2 132.258 121.553 132.228 121.905C132.126 121.552 132.09 121.199 132.12 120.847Z" fill="#919191"/>
<path fill-rule="evenodd" clip-rule="evenodd" d="M134.074 121.462C134.297 121.989 134.52 122.518 134.743 123.045C135.226 124.355 135.726 125.672 136.242 126.994C135.787 127.187 135.33 127.38 134.875 127.572C134.617 126.884 134.297 126.227 133.914 125.602C133.455 125.187 132.927 125.042 132.331 125.168C132.259 124.747 132.25 124.326 132.306 123.906C132.954 123.13 133.543 122.315 134.074 121.462Z" fill="#FCFCFC"/>
<path fill-rule="evenodd" clip-rule="evenodd" d="M93.8308 140.093C94.1479 140.333 94.434 140.608 94.6889 140.918C94.5123 141.279 94.348 141.66 94.1957 142.06C94.1881 142.176 94.181 142.293 94.1734 142.409C94.3611 143.117 94.6093 143.805 94.9176 144.471C94.4616 144.663 94.0056 144.856 93.5496 145.049C93.1621 144.066 92.7325 143.117 92.2603 142.199C91.883 141.34 91.5299 140.471 91.2007 139.592C92.0586 139.84 92.9355 140.007 93.8308 140.093Z" fill="#FCFCFC"/>
<path fill-rule="evenodd" clip-rule="evenodd" d="M131.16 125.417C131.18 125.465 131.2 125.512 131.22 125.561C131.197 125.571 131.172 125.581 131.148 125.591C119.387 130.591 107.617 135.538 95.839 140.431C107.638 135.472 119.411 130.467 131.16 125.417Z" fill="#835A1A"/>
<path fill-rule="evenodd" clip-rule="evenodd" d="M135.914 123.406C136.682 123.082 137.45 122.757 138.218 122.432C138.299 122.625 138.38 122.816 138.461 123.008C138.806 123.824 139.151 124.641 139.496 125.456C138.728 125.781 137.96 126.105 137.192 126.43C136.766 125.422 136.34 124.414 135.914 123.406Z" fill="#023048"/>
<path fill-rule="evenodd" clip-rule="evenodd" d="M88.7254 142.669C88.8067 142.861 88.8876 143.053 88.9689 143.245C89.7128 142.93 90.4568 142.616 91.2008 142.301C91.2248 142.291 91.2488 142.281 91.2728 142.271C91.7232 143.298 92.1833 144.319 92.6534 145.337C91.8375 145.681 91.0215 146.026 90.2055 146.371C89.6592 145.145 89.1658 143.911 88.7254 142.669Z" fill="#022E46"/>
<path fill-rule="evenodd" clip-rule="evenodd" d="M131.151 125.584C131.174 125.574 131.199 125.564 131.223 125.553C131.251 125.701 131.225 125.839 131.144 125.969C131.183 125.995 131.222 126.02 131.261 126.046C131.287 125.91 131.331 125.779 131.392 125.652C131.417 125.764 131.469 125.855 131.549 125.925C131.576 125.851 131.604 125.782 131.632 125.72C131.667 125.901 131.714 126.079 131.773 126.254C119.846 131.296 107.918 136.338 95.9905 141.38C95.9513 141.259 95.8676 141.195 95.74 141.188C95.7442 141.153 95.7631 141.13 95.7968 141.122C95.9443 141.003 96.0923 140.884 96.2399 140.765C96.1994 140.669 96.1586 140.573 96.1181 140.477C107.828 135.555 119.505 130.591 131.151 125.584Z" fill="#19191A"/>
<path fill-rule="evenodd" clip-rule="evenodd" d="M95.4448 141.701C95.6799 141.569 95.9279 141.52 96.1896 141.556C108.296 136.381 120.407 131.204 132.524 126.028C133.047 125.969 133.371 126.2 133.495 126.72C120.775 132.097 108.056 137.473 95.3364 142.85C95.2655 142.682 95.1943 142.514 95.1234 142.346C95.0972 142.068 95.2043 141.853 95.4448 141.701Z" fill="#054E93"/>
<path fill-rule="evenodd" clip-rule="evenodd" d="M95.444 141.697C95.5907 141.553 95.7724 141.447 95.9896 141.382C107.917 136.34 119.845 131.298 131.772 126.256C132.018 126.126 132.268 126.048 132.523 126.024C120.407 131.201 108.295 136.377 96.1889 141.552C95.9271 141.516 95.6791 141.565 95.444 141.697Z" fill="#0B4075"/>
<path fill-rule="evenodd" clip-rule="evenodd" d="M95.1229 142.341C95.1938 142.509 95.265 142.677 95.3359 142.845C108.056 137.469 120.775 132.092 133.495 126.716C133.515 126.764 133.535 126.811 133.556 126.86C120.787 132.172 108.033 137.535 95.2943 142.948C95.1844 142.749 95.1274 142.547 95.1229 142.341Z" fill="#043D68"/>
<path fill-rule="evenodd" clip-rule="evenodd" d="M95.2928 142.946C108.031 137.534 120.785 132.171 133.554 126.858C133.716 127.242 133.879 127.626 134.041 128.01C121.297 133.397 108.554 138.784 95.8102 144.17C95.6376 143.762 95.4654 143.355 95.2928 142.946Z" fill="#022F47"/>
<path fill-rule="evenodd" clip-rule="evenodd" d="M92.2617 142.195C92.7339 143.112 93.1636 144.062 93.5511 145.045C94.007 144.852 94.463 144.659 94.919 144.467C94.4827 144.735 94.0127 144.962 93.5095 145.147C93.0935 144.163 92.6777 143.18 92.2617 142.195Z" fill="#9C9C9C"/>
<path fill-rule="evenodd" clip-rule="evenodd" d="M139.996 124.227C140.203 124.518 140.369 124.844 140.494 125.204C140.834 125.033 141.181 124.915 141.533 124.85C141.173 125.002 140.813 125.154 140.453 125.307C140.3 124.947 140.148 124.587 139.996 124.227Z" fill="#9F9F9F"/>
<path fill-rule="evenodd" clip-rule="evenodd" d="M135.182 121.677C135.426 122.253 135.669 122.829 135.913 123.405C136.339 124.413 136.765 125.421 137.191 126.429C137.959 126.104 138.727 125.779 139.495 125.455C139.15 124.639 138.805 123.823 138.46 123.007C138.881 123.804 139.261 124.633 139.597 125.496C138.782 125.841 137.965 126.186 137.149 126.531C136.441 124.92 135.785 123.303 135.182 121.677Z" fill="#042031"/>
<path fill-rule="evenodd" clip-rule="evenodd" d="M134.746 123.048C135.317 124.364 135.85 125.694 136.348 127.039C135.865 127.27 135.374 127.449 134.878 127.575C135.334 127.383 135.79 127.19 136.246 126.997C135.729 125.674 135.229 124.358 134.746 123.048Z" fill="#9C9C9C"/>
<path fill-rule="evenodd" clip-rule="evenodd" d="M144.648 129.215C144.465 128.783 144.283 128.351 144.1 127.919C125.645 135.72 107.189 143.521 88.7336 151.322C88.9162 151.754 89.0988 152.186 89.2814 152.618C88.8178 151.754 88.4202 150.847 88.0889 149.898C87.9957 149.196 88.2143 148.609 88.7443 148.136C106.411 140.611 124.099 133.134 141.807 125.706C142.518 125.657 143.092 125.91 143.527 126.464C143.978 127.363 144.351 128.28 144.648 129.215Z" fill="#0C6DBF"/>
<path fill-rule="evenodd" clip-rule="evenodd" d="M87.1709 150.032C87.6491 151.218 88.1701 152.383 88.7341 153.529C88.6557 153.498 88.5892 153.441 88.5348 153.359C88.0032 152.267 87.5486 151.158 87.1709 150.032Z" fill="#C6C6C6"/>
<path fill-rule="evenodd" clip-rule="evenodd" d="M144.649 129.213C144.852 129.946 144.656 130.552 144.06 131.032C126.368 138.567 108.657 146.053 90.9252 153.492C90.1844 153.572 89.6369 153.281 89.2822 152.616C89.0996 152.184 88.917 151.752 88.7344 151.32C107.19 143.519 125.645 135.718 144.101 127.917C144.283 128.349 144.466 128.781 144.649 129.213Z" fill="#2593DC"/>
<path fill-rule="evenodd" clip-rule="evenodd" d="M94.0815 149.911C98.1323 148.184 102.193 146.482 106.264 144.804C107.124 144.97 107.316 145.426 106.843 146.172C102.783 147.945 98.7033 149.669 94.603 151.346C94.154 151.218 93.8987 150.915 93.8377 150.439C93.9044 150.249 93.9856 150.073 94.0815 149.911Z" fill="#61C2F7"/>
<path fill-rule="evenodd" clip-rule="evenodd" d="M91.6328 150.95C92.4812 150.505 92.9677 150.753 93.0917 151.691C92.4473 152.622 91.914 152.565 91.4914 151.519C91.5216 151.323 91.5687 151.133 91.6328 150.95Z" fill="#5FC1F7"/>
<path fill-rule="evenodd" clip-rule="evenodd" d="M90.1894 154.356C90.2303 154.344 90.2643 154.357 90.2918 154.398C86.2667 156.184 82.2208 157.922 78.1546 159.613C82.1661 157.86 86.1779 156.108 90.1894 154.356Z" fill="#747474"/>
<path fill-rule="evenodd" clip-rule="evenodd" d="M74.6671 161.007C75.4303 160.67 76.2035 160.358 76.9863 160.069C77.4122 160.1 77.5275 160.306 77.3322 160.687C76.5606 161.07 75.7686 161.405 74.9562 161.691C74.6686 161.538 74.5725 161.31 74.6671 161.007Z" fill="#141414"/>
</g>
<defs>
<filter id="filter0_f_2074_12119" x="90.6484" y="46.375" width="53.4258" height="87.5391" filterUnits="userSpaceOnUse" color-interpolation-filters="sRGB">
<feFlood flood-opacity="0" result="BackgroundImageFix"/>
<feBlend mode="normal" in="SourceGraphic" in2="BackgroundImageFix" result="shape"/>
<feGaussianBlur stdDeviation="5" result="effect1_foregroundBlur_2074_12119"/>
</filter>
<filter id="filter1_d_2074_12119" x="96.6484" y="56.375" width="41.4258" height="75.5391" filterUnits="userSpaceOnUse" color-interpolation-filters="sRGB">
<feFlood flood-opacity="0" result="BackgroundImageFix"/>
<feColorMatrix in="SourceAlpha" type="matrix" values="0 0 0 0 0 0 0 0 0 0 0 0 0 0 0 0 0 0 127 0" result="hardAlpha"/>
<feOffset dy="4"/>
<feGaussianBlur stdDeviation="2"/>
<feComposite in2="hardAlpha" operator="out"/>
<feColorMatrix type="matrix" values="0 0 0 0 0 0 0 0 0 0 0 0 0 0 0 0 0 0 0.25 0"/>
<feBlend mode="normal" in2="BackgroundImageFix" result="effect1_dropShadow_2074_12119"/>
<feBlend mode="normal" in="SourceGraphic" in2="effect1_dropShadow_2074_12119" result="shape"/>
</filter>
<filter id="filter2_f_2074_12119" x="53.8945" y="62.4141" width="51.8633" height="89.7812" filterUnits="userSpaceOnUse" color-interpolation-filters="sRGB">
<feFlood flood-opacity="0" result="BackgroundImageFix"/>
<feBlend mode="normal" in="SourceGraphic" in2="BackgroundImageFix" result="shape"/>
<feGaussianBlur stdDeviation="5" result="effect1_foregroundBlur_2074_12119"/>
</filter>
<filter id="filter3_f_2074_12119" x="100.887" y="45.5703" width="50.168" height="81.9922" filterUnits="userSpaceOnUse" color-interpolation-filters="sRGB">
<feFlood flood-opacity="0" result="BackgroundImageFix"/>
<feBlend mode="normal" in="SourceGraphic" in2="BackgroundImageFix" result="shape"/>
<feGaussianBlur stdDeviation="5" result="effect1_foregroundBlur_2074_12119"/>
</filter>
<filter id="filter4_d_2074_12119" x="106.887" y="55.5703" width="38.168" height="69.9922" filterUnits="userSpaceOnUse" color-interpolation-filters="sRGB">
<feFlood flood-opacity="0" result="BackgroundImageFix"/>
<feColorMatrix in="SourceAlpha" type="matrix" values="0 0 0 0 0 0 0 0 0 0 0 0 0 0 0 0 0 0 127 0" result="hardAlpha"/>
<feOffset dy="4"/>
<feGaussianBlur stdDeviation="2"/>
<feComposite in2="hardAlpha" operator="out"/>
<feColorMatrix type="matrix" values="0 0 0 0 0 0 0 0 0 0 0 0 0 0 0 0 0 0 0.25 0"/>
<feBlend mode="normal" in2="BackgroundImageFix" result="effect1_dropShadow_2074_12119"/>
<feBlend mode="normal" in="SourceGraphic" in2="effect1_dropShadow_2074_12119" result="shape"/>
</filter>
<filter id="filter5_f_2074_12119" x="46.7969" y="69.4375" width="49.8281" height="80.4766" filterUnits="userSpaceOnUse" color-interpolation-filters="sRGB">
<feFlood flood-opacity="0" result="BackgroundImageFix"/>
<feBlend mode="normal" in="SourceGraphic" in2="BackgroundImageFix" result="shape"/>
<feGaussianBlur stdDeviation="5" result="effect1_foregroundBlur_2074_12119"/>
</filter>
<clipPath id="clip0_2074_12119">
<rect width="150" height="150.078" fill="white" transform="translate(0.703125 58.3984) rotate(-22.9137)"/>
</clipPath>
</defs>
</svg>
