<svg  viewBox="0 0 173 172" fill="none" xmlns="http://www.w3.org/2000/svg">
<rect x="0.5" width="172" height="172" rx="12" fill="#F6F7FF"/>
<path d="M49 48.5H61.5V61H49V48.5Z" fill="#222222"/>
<path d="M74 36V73.5H36.5V36H74ZM67.75 42.25H42.75V67.25H67.75V42.25ZM61.5 111H49V123.5H61.5V111Z" fill="#222222"/>
<path d="M74 98.5V136H36.5V98.5H74ZM42.75 104.75V129.75H67.75V104.75H42.75ZM111.5 48.5H124V61H111.5V48.5Z" fill="#222222"/>
<path d="M99 36V73.5H136.5V36H99ZM130.25 42.25V67.25H105.25V42.25H130.25ZM86.5 42.25V36H92.75V48.5H86.5V61H80.25V42.25H86.5ZM86.5 73.5V61H92.75V73.5H86.5ZM74 86V79.75H80.25V73.5H86.5V86H92.75V79.75H124V86H99V92.25H80.25V86H74ZM74 86V92.25H49V86H42.75V92.25H36.5V79.75H55.25V86H74ZM136.5 92.25H130.25V79.75H136.5V92.25ZM130.25 92.25H124V104.75H136.5V98.5H130.25V92.25ZM105.25 92.25H117.75V98.5H111.5V104.75H105.25V92.25ZM117.75 111V104.75H111.5V111H105.25V117.25H92.75V123.5H111.5V111H117.75ZM117.75 111H136.5V117.25H124V123.5H117.75V111ZM92.75 104.75V111H99V98.5H80.25V104.75H92.75Z" fill="#222222"/>
<path d="M80.25 111H86.5V129.75H111.5V136H80.25V111ZM136.5 123.5V136H117.75V129.75H130.25V123.5H136.5Z" fill="#222222"/>
</svg>
