<svg viewBox="0 0 32 32" fill="none" xmlns="http://www.w3.org/2000/svg">
<path d="M13.3276 3.33594C15.1916 3.33586 17.0185 3.85676 18.6021 4.83983C20.1858 5.82291 21.4631 7.22904 22.2901 8.89954C23.117 10.57 23.4606 12.4384 23.282 14.2938C23.1035 16.1492 22.4099 17.9178 21.2796 19.3999L27.6036 25.7266C27.8427 25.9665 27.9816 26.2885 27.9919 26.6271C28.0022 26.9657 27.8833 27.2956 27.6593 27.5496C27.4352 27.8037 27.1229 27.963 26.7856 27.9951C26.4484 28.0273 26.1116 27.9298 25.8436 27.7226L25.7183 27.6119L19.3916 21.2879C18.1289 22.2507 16.6551 22.899 15.0922 23.1791C13.5292 23.4592 11.922 23.3631 10.4036 22.8987C8.88516 22.4344 7.49913 21.6151 6.3602 20.5087C5.22127 19.4023 4.36219 18.0405 3.85404 16.5362C3.34588 15.0318 3.20327 13.4281 3.43799 11.8577C3.67272 10.2873 4.27803 8.79533 5.20386 7.50531C6.12968 6.21529 7.34939 5.16428 8.76206 4.43925C10.1747 3.71422 11.7397 3.33602 13.3276 3.33594ZM13.3276 6.0026C11.3827 6.0026 9.51742 6.77522 8.14215 8.15049C6.76688 9.52575 5.99427 11.391 5.99427 13.3359C5.99427 15.2809 6.76688 17.1461 8.14215 18.5214C9.51742 19.8967 11.3827 20.6693 13.3276 20.6693C15.2725 20.6693 17.1378 19.8967 18.513 18.5214C19.8883 17.1461 20.6609 15.2809 20.6609 13.3359C20.6609 11.391 19.8883 9.52575 18.513 8.15049C17.1378 6.77522 15.2725 6.0026 13.3276 6.0026Z" fill="#F6F7FF"/>
</svg>
