<svg viewBox="0 0 48 48" fill="none" xmlns="http://www.w3.org/2000/svg">
<rect x="0.25" y="0.25" width="47.5" height="47.5" rx="23.75" fill="url(#paint0_linear_3408_15598)" fill-opacity="0.5"/>
<rect x="0.25" y="0.25" width="47.5" height="47.5" rx="23.75" stroke="white" stroke-width="0.5"/>
<path d="M10 17C9.73478 17 9.48043 17.1054 9.29289 17.2929C9.10536 17.4805 9 17.7348 9 18C9 18.2653 9.10536 18.5196 9.29289 18.7071C9.48043 18.8947 9.73478 19 10 19H12.22L14.844 29.5C15.067 30.39 15.864 31 16.781 31H29.251C30.154 31 30.921 30.4 31.158 29.53L33.75 20H31.656L29.25 29H16.78L14.157 18.5C14.0486 18.0693 13.7989 17.6873 13.4477 17.4154C13.0965 17.1434 12.6642 16.9971 12.22 17H10ZM28 31C26.355 31 25 32.355 25 34C25 35.645 26.355 37 28 37C29.645 37 31 35.645 31 34C31 32.355 29.645 31 28 31ZM19 31C17.355 31 16 32.355 16 34C16 35.645 17.355 37 19 37C20.645 37 22 35.645 22 34C22 32.355 20.645 31 19 31ZM22 17V22H19L23 26L27 22H24V17H22ZM19 33C19.564 33 20 33.436 20 34C20 34.564 19.564 35 19 35C18.436 35 18 34.564 18 34C18 33.436 18.436 33 19 33ZM28 33C28.564 33 29 33.436 29 34C29 34.564 28.564 35 28 35C27.436 35 27 34.564 27 34C27 33.436 27.436 33 28 33Z" fill="white"/>
<circle cx="35" cy="19" r="8" fill="#5275EC"/>
<path d="M33.14 17.93H38.32V19.99H33.14V17.93Z" fill="white"/>
<defs>
<linearGradient id="paint0_linear_3408_15598" x1="0" y1="0" x2="48" y2="48" gradientUnits="userSpaceOnUse">
<stop stop-color="white" stop-opacity="0.1"/>
<stop offset="1" stop-color="white" stop-opacity="0.5"/>
</linearGradient>
</defs>
</svg>
