<svg width="47" height="49" viewBox="0 0 47 49" fill="none" xmlns="http://www.w3.org/2000/svg">
<rect x="0.0273438" y="0.703125" width="46.8721" height="48.0082" rx="12" fill="#26304E"/>
<path d="M36.2952 27.1721C36.5438 27.3546 36.7292 27.6102 36.8255 27.9031C36.9217 28.1961 36.9241 28.5118 36.8322 28.8061C36.1974 30.8323 35.1193 32.6916 33.6762 34.2491C33.4676 34.4724 33.195 34.6256 32.8958 34.6877C32.5966 34.7499 32.2855 34.7179 32.0052 34.5961L30.0502 33.7381C29.8366 33.643 29.6038 33.5992 29.3702 33.6101C29.1377 33.6246 28.9117 33.6931 28.7102 33.8101C28.5087 33.9266 28.3378 34.0892 28.2114 34.2846C28.085 34.48 28.0068 34.7026 27.9832 34.9341L27.7482 37.0641C27.7144 37.3674 27.5876 37.6527 27.3854 37.8811C27.1831 38.1095 26.9151 38.2699 26.6182 38.3401C24.5422 38.8351 22.3782 38.8351 20.3022 38.3401C20.0071 38.2693 19.7409 38.1095 19.5397 37.8823C19.3385 37.6552 19.2119 37.3716 19.1772 37.0701L18.9422 34.9441C18.9019 34.5817 18.7292 34.247 18.4572 34.0041C18.2448 33.8168 17.9837 33.6934 17.7041 33.6483C17.4245 33.6032 17.1378 33.6381 16.8772 33.7491L14.9222 34.6081C14.6427 34.7297 14.3325 34.7619 14.034 34.7006C13.7354 34.6392 13.4631 34.4871 13.2542 34.2651C11.8089 32.706 10.7293 30.8441 10.0942 28.8151C10.0027 28.5211 10.0052 28.2059 10.1012 27.9134C10.1973 27.6209 10.3822 27.3656 10.6302 27.1831L12.3552 25.9081C12.5437 25.7699 12.697 25.5893 12.8027 25.3808C12.9083 25.1723 12.9634 24.9419 12.9634 24.7081C12.9634 24.4744 12.9083 24.244 12.8027 24.0355C12.697 23.827 12.5437 23.6463 12.3552 23.5081L10.6302 22.2351C10.384 22.0532 10.2003 21.7995 10.1043 21.5088C10.0083 21.2182 10.0048 20.9049 10.0942 20.6121C10.7282 18.5843 11.8075 16.7239 13.2532 15.1671C13.3932 15.0161 13.5632 14.8961 13.7532 14.8161C13.9383 14.7377 14.1372 14.6973 14.3382 14.6973C14.5392 14.6973 14.7382 14.7377 14.9232 14.8161L16.8702 15.6741C17.0844 15.7661 17.3172 15.8067 17.5499 15.7926C17.7826 15.7785 18.0087 15.71 18.2102 15.5928C18.4117 15.4756 18.583 15.3128 18.7103 15.1175C18.8376 14.9222 18.9173 14.6998 18.9432 14.4681L19.1792 12.3461C19.2133 12.0396 19.3422 11.7514 19.548 11.5217C19.7538 11.2921 20.0263 11.1324 20.3272 11.0651C21.3608 10.8374 22.415 10.7161 23.4732 10.7031C24.5252 10.7151 25.5732 10.8361 26.6002 11.0651C26.9015 11.1328 27.174 11.2929 27.3797 11.5232C27.5853 11.7534 27.7139 12.0422 27.7472 12.3491L27.9832 14.4691C28.0083 14.7005 28.0874 14.9227 28.2141 15.1178C28.3409 15.3129 28.5118 15.4754 28.7131 15.5922C28.9143 15.709 29.1402 15.7769 29.3725 15.7902C29.6048 15.8036 29.8369 15.7621 30.0502 15.6691L31.9962 14.8121C32.2768 14.6896 32.5884 14.657 32.8882 14.719C33.188 14.781 33.4613 14.9344 33.6702 15.1581C35.116 16.7127 36.1948 18.5716 36.8272 20.5981C36.9182 20.8919 36.9154 21.2068 36.8191 21.4989C36.7229 21.791 36.538 22.0459 36.2902 22.2281L34.5702 23.5011C34.381 23.6381 34.2269 23.8179 34.1204 24.0259C34.014 24.2338 33.9583 24.464 33.9579 24.6976C33.9576 24.9312 34.0125 25.1616 34.1182 25.3699C34.2239 25.5782 34.3774 25.7585 34.5662 25.8961L36.2952 27.1721ZM23.4632 28.7001C24.5241 28.7001 25.5415 28.2787 26.2917 27.5286C27.0418 26.7784 27.4632 25.761 27.4632 24.7001C27.4632 23.6393 27.0418 22.6218 26.2917 21.8717C25.5415 21.1216 24.5241 20.7001 23.4632 20.7001C22.4024 20.7001 21.385 21.1216 20.6348 21.8717C19.8847 22.6218 19.4632 23.6393 19.4632 24.7001C19.4632 25.761 19.8847 26.7784 20.6348 27.5286C21.385 28.2787 22.4024 28.7001 23.4632 28.7001Z" fill="#5275EC"/>
</svg>
