<svg  viewBox="0 0 37 34" fill="none" xmlns="http://www.w3.org/2000/svg">
<path d="M20.0465 0.304688L10.0291 10.3221H0.0117188V23.6786H10.0291L20.0465 33.696V0.304688ZM25.4162 3.19178L24.93 5.00608C30.363 6.46173 34.1335 11.3755 34.1335 17.0003C34.1335 22.6252 30.363 27.5388 24.93 28.9946L25.4162 30.8089C31.6615 29.1355 36.0117 23.4659 36.0117 17.0003C36.0117 10.5346 31.6615 4.86521 25.4162 3.19178ZM24.1197 8.02987L23.6337 9.84417C26.8771 10.7132 29.1248 13.6426 29.1248 17.0003C29.1248 20.358 26.8771 23.2875 23.6337 24.1565L24.1197 25.9708C28.1754 24.884 31.003 21.199 31.003 17.0003C31.003 12.8017 28.1754 9.11665 24.1197 8.02987ZM22.8233 12.8677L22.3374 14.682C23.3909 14.9645 24.1161 15.9096 24.1161 17.0003C24.1161 18.0911 23.3909 19.0362 22.3372 19.3186L22.8233 21.1329C24.6895 20.6329 25.9944 18.9322 25.9944 17.0003C25.9944 15.0684 24.6895 13.3678 22.8233 12.8677Z" fill="url(#paint0_linear_1243_14029)"/>
<defs>
<linearGradient id="paint0_linear_1243_14029" x1="0.0117188" y1="0.304688" x2="33.3088" y2="36.2031" gradientUnits="userSpaceOnUse">
<stop stop-color="#97ABFF"/>
<stop offset="1" stop-color="#123597"/>
</linearGradient>
</defs>
</svg>
