<svg  viewBox="0 0 98 120" fill="none" xmlns="http://www.w3.org/2000/svg">
<g clip-path="url(#clip0_1835_13229)">
<rect x="12" y="24" width="36" height="36" rx="18" fill="#1A1F30"/>
<path opacity="0.982" fill-rule="evenodd" clip-rule="evenodd" d="M47.9648 35.5798C47.9648 39.072 47.9648 42.5641 47.9648 46.0563C47.7411 46.5248 47.3661 46.7943 46.8398 46.8649C43.957 46.8883 41.0742 46.9118 38.1914 46.9352C37.9819 47.0986 37.7475 47.2041 37.4883 47.2516C37.7669 48.3923 37.4154 49.2712 36.4336 49.8884C36.0756 50.0467 35.7006 50.1287 35.3086 50.1345C35.2314 51.2782 34.6337 51.9814 33.5156 52.2438C33.5347 53.4512 32.984 54.248 31.8633 54.6345C31.4883 54.6345 31.1133 54.6345 30.7383 54.6345C30.364 54.4879 30.0241 54.2769 29.7188 54.0016C29.3821 54.3162 28.9954 54.5272 28.5586 54.6345C28.2773 54.6345 27.9961 54.6345 27.7148 54.6345C26.8657 54.4419 26.3032 53.9263 26.0273 53.0876C25.1219 53.1727 24.3601 52.8915 23.7422 52.2438C23.5762 52.0056 23.4473 51.7478 23.3555 51.4704C22.0142 51.6081 21.1001 51.0456 20.6133 49.7829C19.0007 49.948 18.0867 49.2214 17.8711 47.6032C17.3584 47.3737 16.8427 47.151 16.3242 46.9352C15.1258 46.9301 13.9305 46.8832 12.7383 46.7946C12.3737 46.6526 12.1159 46.4065 11.9648 46.0563C11.9648 42.5641 11.9648 39.072 11.9648 35.5798C12.1454 35.2237 12.4266 34.9776 12.8086 34.8415C14.0977 34.7946 15.3867 34.7946 16.6758 34.8415C17.2724 35.016 17.6943 35.391 17.9414 35.9665C19.2539 36.0134 20.5664 36.0134 21.8789 35.9665C23.2695 35.3298 24.6523 34.6736 26.0273 33.9977C27.6677 33.4185 29.2732 33.5005 30.8438 34.2438C32.4957 33.4743 34.1715 33.4157 35.8711 34.068C37.1672 34.7395 38.4797 35.3723 39.8086 35.9665C40.5351 36.0134 41.2617 36.0134 41.9883 35.9665C42.2354 35.391 42.6573 35.016 43.2539 34.8415C44.5429 34.7946 45.8321 34.7946 47.1211 34.8415C47.503 34.9776 47.7843 35.2237 47.9648 35.5798Z" fill="#F6F7FF"/>
<path fill-rule="evenodd" clip-rule="evenodd" d="M29.0508 34.9417C28.363 35.3208 27.6599 35.6841 26.9414 36.0315C26.1692 36.4284 25.5248 36.9791 25.0078 37.6839C24.0469 39.0667 23.086 40.4495 22.125 41.8323C21.8381 42.6829 22.1076 43.2806 22.9336 43.6253C23.2327 43.7177 23.5374 43.7762 23.8477 43.801C25.1427 44.6257 26.3732 44.532 27.5391 43.5198C28.4796 42.3402 29.4523 41.1918 30.457 40.0745C30.557 40.0892 30.6507 40.1243 30.7383 40.1799C32.4727 41.3987 34.207 42.6175 35.9414 43.8362C36.6245 44.4561 36.7417 45.1475 36.293 45.9104C35.4894 45.6475 35.1964 45.9288 35.4141 46.7542C35.7201 46.9901 36.0013 47.2478 36.2578 47.5276C36.4625 48.4896 36.0758 48.9232 35.0977 48.8284C34.885 48.722 34.6975 48.5814 34.5352 48.4065C33.8859 48.0922 33.5461 48.2914 33.5156 49.0042C33.6797 49.2151 33.8438 49.426 34.0078 49.637C34.2149 50.5922 33.8282 51.0258 32.8477 50.9378C32.1424 50.473 31.7557 50.6488 31.6875 51.4651C31.7782 51.6263 31.8954 51.7669 32.0391 51.887C32.4443 52.9097 32.1045 53.4137 31.0195 53.3987C30.7553 53.2635 30.5209 53.0877 30.3164 52.8714C30.7495 51.8385 30.5385 50.9596 29.6836 50.2346C29.102 49.8826 28.4692 49.7537 27.7852 49.8479C27.3475 48.5738 26.457 48.0582 25.1133 48.301C24.9148 47.3908 24.3523 46.84 23.4258 46.6487C23.095 46.6031 22.7669 46.6149 22.4414 46.6839C22.0208 45.3876 21.1301 44.8602 19.7695 45.1018C19.4422 45.242 19.1375 45.4177 18.8555 45.6292C18.3268 45.5868 17.858 45.7274 17.4492 46.051C17.2913 45.9839 17.1273 45.937 16.957 45.9104C17.2823 43.0069 17.5869 40.1006 17.8711 37.1917C19.3479 37.2034 20.8244 37.1917 22.3008 37.1565C23.8477 36.43 25.3945 35.7034 26.9414 34.9768C27.6441 34.854 28.3472 34.8423 29.0508 34.9417Z" fill="#5275EC"/>
<path fill-rule="evenodd" clip-rule="evenodd" d="M34.6058 34.9456C34.6377 35.013 34.6845 35.0716 34.7464 35.1214C35.6393 35.5678 36.5299 36.0131 37.4183 36.4574C37.6245 36.5244 37.8354 36.5595 38.0511 36.5628C38.4137 36.7557 38.7886 36.9315 39.1761 37.0902C39.3563 37.166 39.5438 37.2012 39.7386 37.1956C40.1 37.2651 40.4751 37.2885 40.8636 37.266C41.1323 40.059 41.437 42.8481 41.7777 45.6331C40.8402 45.6331 39.9027 45.6331 38.9652 45.6331C39.0686 44.6658 38.7405 43.8806 37.9808 43.2777C35.8603 41.7837 33.7275 40.3072 31.5824 38.848C30.7713 38.5131 30.0682 38.6655 29.473 39.305C29.0789 39.2634 28.7039 39.322 28.348 39.4808C27.3503 40.6214 26.3776 41.7816 25.43 42.9613C25.352 43.0693 25.2465 43.1162 25.1136 43.1019C24.567 42.9894 24.3443 42.6613 24.4457 42.1175C25.43 40.7113 26.4144 39.305 27.3988 37.8988C27.6918 37.6058 27.9847 37.3129 28.2777 37.0199C29.5979 36.266 30.9572 35.5863 32.3558 34.9808C33.103 34.7583 33.8529 34.7467 34.6058 34.9456Z" fill="#5275EC"/>
<path fill-rule="evenodd" clip-rule="evenodd" d="M29.0504 34.9453C29.1684 34.9729 29.2857 35.008 29.402 35.0508C28.2597 35.5099 27.2871 36.2014 26.484 37.125C25.4701 38.6139 24.4388 40.0904 23.3902 41.5547C23.0374 42.4152 23.1897 43.1651 23.8473 43.8047C23.537 43.7799 23.2323 43.7213 22.9332 43.6289C22.1072 43.2842 21.8377 42.6866 22.1246 41.8359C23.0856 40.4531 24.0465 39.0703 25.0074 37.6875C25.5244 36.9828 26.1688 36.432 26.941 36.0352C27.6595 35.6877 28.3626 35.3244 29.0504 34.9453Z" fill="#1949E6"/>
<path fill-rule="evenodd" clip-rule="evenodd" d="M34.6055 34.9453C35.8004 35.3905 36.9489 35.9296 38.0508 36.5625C37.8351 36.5592 37.6241 36.524 37.418 36.457C36.5295 36.0128 35.6389 35.5675 34.7461 35.1211C34.6841 35.0713 34.6373 35.0127 34.6055 34.9453Z" fill="#1949E6"/>
<path fill-rule="evenodd" clip-rule="evenodd" d="M13.1602 36.0708C13.951 36.0482 14.7362 36.0717 15.5156 36.1411C15.5625 36.4927 15.5625 36.8442 15.5156 37.1958C15.1657 40.0051 14.8493 42.8176 14.5664 45.6333C14.0977 45.6333 13.6289 45.6333 13.1602 45.6333C13.1602 42.4458 13.1602 39.2583 13.1602 36.0708Z" fill="#26304E"/>
<path fill-rule="evenodd" clip-rule="evenodd" d="M13.1602 36.0715C14.2262 35.9899 15.3043 35.9781 16.3945 36.0363C16.5201 36.0915 16.6256 36.1735 16.7109 36.2824C16.7578 36.5637 16.7578 36.8449 16.7109 37.1262C16.4165 39.9168 16.1118 42.7059 15.7969 45.4934C15.4076 45.6287 14.9975 45.6756 14.5664 45.634C14.8493 42.8183 15.1657 40.0058 15.5156 37.1965C15.5625 36.8449 15.5625 36.4934 15.5156 36.1418C14.7362 36.0724 13.951 36.0489 13.1602 36.0715Z" fill="#26304E"/>
<path fill-rule="evenodd" clip-rule="evenodd" d="M43.5352 36.0703C44.2149 36.0703 44.8945 36.0703 45.5742 36.0703C45.5742 39.2578 45.5742 42.4453 45.5742 45.6328C45.1054 45.6328 44.6367 45.6328 44.168 45.6328C43.7869 42.5202 43.4705 39.403 43.2188 36.2812C43.2981 36.1659 43.4036 36.0956 43.5352 36.0703Z" fill="#26304E"/>
<path fill-rule="evenodd" clip-rule="evenodd" d="M43.5352 36.0712C44.601 36.0011 45.6791 35.9776 46.7695 36.0008C46.7695 39.2118 46.7695 42.4227 46.7695 45.6337C46.3711 45.6337 45.9727 45.6337 45.5742 45.6337C45.5742 42.4462 45.5742 39.2586 45.5742 36.0712C44.8945 36.0712 44.2149 36.0712 43.5352 36.0712Z" fill="#26304E"/>
<path fill-rule="evenodd" clip-rule="evenodd" d="M39.7383 37.1953C40.5117 37.1953 41.2852 37.1953 42.0586 37.1953C42.3171 39.9904 42.6217 42.7795 42.9727 45.5625C42.5769 45.6325 42.1785 45.6559 41.7773 45.6328C41.4366 42.8477 41.1319 40.0587 40.8633 37.2656C40.4747 37.2882 40.0997 37.2648 39.7383 37.1953Z" fill="#1949E6"/>
<path fill-rule="evenodd" clip-rule="evenodd" d="M29.4727 39.302C28.5207 40.4665 27.5597 41.6266 26.5898 42.7825C26.1417 43.1449 25.6495 43.2504 25.1133 43.0989C25.2462 43.1132 25.3516 43.0664 25.4297 42.9583C26.3772 41.7786 27.3499 40.6184 28.3477 39.4778C28.7035 39.319 29.0786 39.2604 29.4727 39.302Z" fill="#1949E6"/>
<path fill-rule="evenodd" clip-rule="evenodd" d="M36.293 45.914C36.7417 45.1511 36.6245 44.4597 35.9414 43.8398C34.207 42.6211 32.4727 41.4023 30.7383 40.1836C30.6507 40.128 30.557 40.0928 30.457 40.0781C30.6553 39.8488 30.8897 39.8137 31.1602 39.9726C33.3122 41.4412 35.4333 42.9529 37.5234 44.5078C37.9144 45.096 37.8325 45.6 37.2773 46.0195C36.9192 46.1841 36.5911 46.149 36.293 45.914Z" fill="#1949E6"/>
<path fill-rule="evenodd" clip-rule="evenodd" d="M18.8555 45.6324C18.6661 45.9031 18.4668 46.1609 18.2578 46.4058C17.9725 46.3074 17.7029 46.1902 17.4492 46.0542C17.858 45.7306 18.3268 45.59 18.8555 45.6324Z" fill="#5275EC"/>
<path fill-rule="evenodd" clip-rule="evenodd" d="M19.9811 46.2677C21.0327 46.1823 21.4429 46.6511 21.2116 47.6739C21.0671 48.0528 20.821 48.3457 20.4733 48.5528C19.5863 48.7201 19.1528 48.3568 19.1725 47.463C19.3394 46.9866 19.6089 46.5882 19.9811 46.2677Z" fill="#1949E6"/>
<path fill-rule="evenodd" clip-rule="evenodd" d="M22.793 47.8125C23.7653 47.8587 24.1286 48.3509 23.8828 49.2891C23.7437 49.6024 23.5444 49.872 23.2852 50.0977C22.4527 50.3787 21.9605 50.0857 21.8086 49.2188C21.9506 48.6098 22.2788 48.1411 22.793 47.8125Z" fill="#1949E6"/>
<path fill-rule="evenodd" clip-rule="evenodd" d="M25.3945 49.4327C26.4163 49.3875 26.803 49.8562 26.5547 50.8389C26.4072 51.2648 26.1377 51.5812 25.7461 51.7881C25.0003 51.8868 24.5784 51.5588 24.4805 50.8038C24.636 50.2397 24.9407 49.7827 25.3945 49.4327Z" fill="#1949E6"/>
<path fill-rule="evenodd" clip-rule="evenodd" d="M27.9961 51.0486C29.0493 50.9647 29.4595 51.4335 29.2266 52.4549C29.0499 52.9951 28.6866 53.3232 28.1367 53.4392C27.5355 53.3653 27.2074 53.0255 27.1523 52.4197C27.3015 51.874 27.5828 51.417 27.9961 51.0486Z" fill="#1949E6"/>
</g>
<rect x="12.5" y="24.5" width="35" height="35" rx="17.5" stroke="#5275EC"/>
<g filter="url(#filter0_f_1835_13229)">
<circle cx="25" cy="47" r="13" fill="#5275EC"/>
<circle cx="25" cy="47" r="12.5" stroke="#5275EC"/>
</g>
<defs>
<filter id="filter0_f_1835_13229" x="-48" y="-26" width="146" height="146" filterUnits="userSpaceOnUse" color-interpolation-filters="sRGB">
<feFlood flood-opacity="0" result="BackgroundImageFix"/>
<feBlend mode="normal" in="SourceGraphic" in2="BackgroundImageFix" result="shape"/>
<feGaussianBlur stdDeviation="30" result="effect1_foregroundBlur_1835_13229"/>
</filter>
<clipPath id="clip0_1835_13229">
<rect x="12" y="24" width="36" height="36" rx="18" fill="white"/>
</clipPath>
</defs>
</svg>
