<svg viewBox="0 0 48 48" fill="none" xmlns="http://www.w3.org/2000/svg">
<rect x="0.25" y="0.25" width="47.5" height="47.5" rx="23.75" fill="url(#paint0_linear_3433_19320)" fill-opacity="0.5"/>
<rect x="0.25" y="0.25" width="47.5" height="47.5" rx="23.75" stroke="white" stroke-width="0.5"/>
<path d="M9 17C8.73478 17 8.48043 17.1054 8.29289 17.2929C8.10536 17.4805 8 17.7348 8 18C8 18.2653 8.10536 18.5196 8.29289 18.7071C8.48043 18.8947 8.73478 19 9 19H11.22L13.844 29.5C14.067 30.39 14.864 31 15.781 31H28.251C29.154 31 29.921 30.4 30.158 29.53L32.75 20H30.656L28.25 29H15.78L13.157 18.5C13.0486 18.0693 12.7989 17.6873 12.4477 17.4154C12.0965 17.1434 11.6642 16.9971 11.22 17H9ZM27 31C25.355 31 24 32.355 24 34C24 35.645 25.355 37 27 37C28.645 37 30 35.645 30 34C30 32.355 28.645 31 27 31ZM18 31C16.355 31 15 32.355 15 34C15 35.645 16.355 37 18 37C19.645 37 21 35.645 21 34C21 32.355 19.645 31 18 31ZM21 17V22H18L22 26L26 22H23V17H21ZM18 33C18.564 33 19 33.436 19 34C19 34.564 18.564 35 18 35C17.436 35 17 34.564 17 34C17 33.436 17.436 33 18 33ZM27 33C27.564 33 28 33.436 28 34C28 34.564 27.564 35 27 35C26.436 35 26 34.564 26 34C26 33.436 26.436 33 27 33Z" fill="white"/>
<rect x="24" y="8" width="16" height="16" rx="8" fill="#5275EC"/>
<path d="M35.6007 14.7531C35.6007 14.5542 35.5374 14.3634 35.4249 14.2227C35.3123 14.0821 35.1597 14.0031 35.0005 14.0031H28.0453L29.4255 12.2856C29.5385 12.1443 29.602 11.9528 29.602 11.7531C29.602 11.5533 29.5385 11.3618 29.4255 11.2206C29.3125 11.0793 29.1593 11 28.9995 11C28.8396 11 28.6864 11.0793 28.5734 11.2206L26.1729 14.2206C26.0897 14.326 26.0333 14.46 26.0108 14.6055C25.9884 14.751 26.001 14.9015 26.0469 15.0381C26.0919 15.175 26.1684 15.2923 26.2666 15.375C26.3649 15.4578 26.4805 15.5023 26.599 15.5031H35.0005C35.1597 15.5031 35.3123 15.4241 35.4249 15.2834C35.5374 15.1427 35.6007 14.952 35.6007 14.7531ZM37.9531 17.4681C37.9081 17.3311 37.8316 17.2139 37.7334 17.1311C37.6351 17.0484 37.5195 17.0038 37.401 17.0031H28.9995C28.8403 17.0031 28.6877 17.0821 28.5751 17.2227C28.4626 17.3634 28.3993 17.5542 28.3993 17.7531C28.3993 17.952 28.4626 18.1427 28.5751 18.2834C28.6877 18.4241 28.8403 18.5031 28.9995 18.5031H35.9547L34.5745 20.2206C34.5182 20.2903 34.4736 20.3732 34.4431 20.4646C34.4126 20.556 34.397 20.6541 34.397 20.7531C34.397 20.8521 34.4126 20.9501 34.4431 21.0415C34.4736 21.1329 34.5182 21.2158 34.5745 21.2856C34.6303 21.3559 34.6966 21.4117 34.7698 21.4497C34.8429 21.4878 34.9213 21.5074 35.0005 21.5074C35.0798 21.5074 35.1582 21.4878 35.2313 21.4497C35.3045 21.4117 35.3708 21.3559 35.4266 21.2856L37.8271 18.2856C37.9103 18.1801 37.9667 18.0462 37.9892 17.9007C38.0116 17.7552 37.999 17.6047 37.9531 17.4681Z" fill="white"/>
<defs>
<linearGradient id="paint0_linear_3433_19320" x1="0" y1="0" x2="48" y2="48" gradientUnits="userSpaceOnUse">
<stop stop-color="white" stop-opacity="0.1"/>
<stop offset="1" stop-color="white" stop-opacity="0.5"/>
</linearGradient>
</defs>
</svg>
