<svg  viewBox="0 0 24 24" fill="none" xmlns="http://www.w3.org/2000/svg">
<g clip-path="url(#clip0_1109_8605)">
<path fill-rule="evenodd" clip-rule="evenodd" d="M14.5 21.5C13.144 21.5 12.206 20.648 11.605 19.447C11.083 18.402 11.034 17.147 11.008 16L6.174 16C5.75893 16.0001 5.34836 15.914 4.96826 15.7472C4.58816 15.5805 4.2468 15.3366 3.96577 15.0312C3.68474 14.7257 3.47016 14.3652 3.3356 13.9726C3.20103 13.5799 3.14941 13.1636 3.184 12.75L3.545 8.419C3.69075 6.66909 4.48885 5.03788 5.78102 3.84888C7.07319 2.65988 8.76504 1.99996 10.521 2L12.033 2C13.7444 1.99629 15.3971 2.62362 16.675 3.762C16.8111 3.88255 16.972 3.97172 17.1464 4.02322C17.3207 4.07471 17.5043 4.08727 17.684 4.06C17.9541 4.01973 18.2269 3.99968 18.5 4C19.608 4 20.528 4.62 21.124 5.608C21.704 6.568 22 7.893 22 9.5C22 11.106 21.703 12.431 21.124 13.391C20.528 14.38 19.608 15 18.5 15C18.219 15 17.921 14.95 17.623 14.866C17.165 16.066 16.839 17.303 16.993 18.601C17.165 20.046 15.984 21.5 14.5 21.5Z" fill="#F44336"/>
</g>
<defs>
<clipPath id="clip0_1109_8605">
<rect width="24" height="24" fill="white" transform="translate(24 24) rotate(-180)"/>
</clipPath>
</defs>
</svg>
