<svg  viewBox="0 0 38 37" fill="none" xmlns="http://www.w3.org/2000/svg">
<rect y="0.5" width="38" height="36" rx="6" fill="#181C1F"/>
<path d="M10 23.5H12.397C13.2009 23.4999 13.993 23.306 14.706 22.9347C15.419 22.5634 16.032 22.0256 16.493 21.367L16.67 21.114M20.33 15.887L20.507 15.633C20.968 14.9744 21.581 14.4366 22.294 14.0653C23.007 13.694 23.7991 13.5001 24.603 13.5H28" stroke="#699BF7" stroke-width="2" stroke-linecap="round" stroke-linejoin="round"/>
<path d="M25 10.5L28 13.5L25 16.5M10 13.5H12.397C13.2009 13.5001 13.993 13.694 14.706 14.0653C15.419 14.4366 16.032 14.9744 16.493 15.633L20.507 21.367C20.968 22.0256 21.581 22.5634 22.294 22.9347C23.007 23.306 23.7991 23.4999 24.603 23.5H28" stroke="#699BF7" stroke-width="2" stroke-linecap="round" stroke-linejoin="round"/>
<path d="M25 26.5L28 23.5L25 20.5" stroke="#699BF7" stroke-width="2" stroke-linecap="round" stroke-linejoin="round"/>
</svg>
