<svg  viewBox="0 0 54 54" fill="none" xmlns="http://www.w3.org/2000/svg">
<path d="M45 4.5H22.5C20.7098 4.5 18.9929 5.21116 17.727 6.47703C16.4612 7.7429 15.75 9.45979 15.75 11.25V27C15.75 28.7902 16.4612 30.5071 17.727 31.773C18.9929 33.0388 20.7098 33.75 22.5 33.75H45C46.7902 33.75 48.5071 33.0388 49.773 31.773C51.0388 30.5071 51.75 28.7902 51.75 27V11.25C51.75 9.45979 51.0388 7.7429 49.773 6.47703C48.5071 5.21116 46.7902 4.5 45 4.5ZM47.25 27C47.25 27.5967 47.0129 28.169 46.591 28.591C46.169 29.0129 45.5967 29.25 45 29.25H22.5C21.9033 29.25 21.331 29.0129 20.909 28.591C20.4871 28.169 20.25 27.5967 20.25 27V11.25C20.25 10.6533 20.4871 10.081 20.909 9.65901C21.331 9.23705 21.9033 9 22.5 9H45C45.5967 9 46.169 9.23705 46.591 9.65901C47.0129 10.081 47.25 10.6533 47.25 11.25V27ZM39.375 18C38.542 18.0028 37.7399 18.3156 37.125 18.8775C36.6412 18.4377 36.04 18.148 35.3946 18.0434C34.7492 17.9389 34.0874 18.024 33.4894 18.2886C32.8915 18.5531 32.3833 18.9856 32.0266 19.5335C31.6699 20.0814 31.48 20.7212 31.48 21.375C31.48 22.0288 31.6699 22.6686 32.0266 23.2165C32.3833 23.7644 32.8915 24.1969 33.4894 24.4614C34.0874 24.726 34.7492 24.8111 35.3946 24.7066C36.04 24.602 36.6412 24.3123 37.125 23.8725C37.5313 24.2418 38.0216 24.5064 38.5533 24.6433C39.085 24.7802 39.6421 24.7854 40.1762 24.6583C40.7104 24.5312 41.2055 24.2757 41.6185 23.9139C42.0316 23.5522 42.3501 23.0952 42.5466 22.5824C42.743 22.0697 42.8114 21.5168 42.7458 20.9717C42.6802 20.4266 42.4826 19.9057 42.1701 19.4542C41.8577 19.0027 41.4398 18.6343 40.9527 18.3809C40.4656 18.1275 39.924 17.9967 39.375 18ZM36 38.25C35.4033 38.25 34.831 38.4871 34.409 38.909C33.9871 39.331 33.75 39.9033 33.75 40.5V42.75C33.75 43.3467 33.5129 43.919 33.091 44.341C32.669 44.7629 32.0967 45 31.5 45H9C8.40326 45 7.83097 44.7629 7.40901 44.341C6.98705 43.919 6.75 43.3467 6.75 42.75V33.75H9C9.59674 33.75 10.169 33.5129 10.591 33.091C11.0129 32.669 11.25 32.0967 11.25 31.5C11.25 30.9033 11.0129 30.331 10.591 29.909C10.169 29.4871 9.59674 29.25 9 29.25H6.75V27C6.75 26.4033 6.98705 25.831 7.40901 25.409C7.83097 24.9871 8.40326 24.75 9 24.75C9.59674 24.75 10.169 24.5129 10.591 24.091C11.0129 23.669 11.25 23.0967 11.25 22.5C11.25 21.9033 11.0129 21.331 10.591 20.909C10.169 20.4871 9.59674 20.25 9 20.25C7.20979 20.25 5.4929 20.9612 4.22703 22.227C2.96116 23.4929 2.25 25.2098 2.25 27V42.75C2.25 44.5402 2.96116 46.2571 4.22703 47.523C5.4929 48.7888 7.20979 49.5 9 49.5H31.5C33.2902 49.5 35.0071 48.7888 36.273 47.523C37.5388 46.2571 38.25 44.5402 38.25 42.75V40.5C38.25 39.9033 38.0129 39.331 37.591 38.909C37.169 38.4871 36.5967 38.25 36 38.25ZM13.5 40.5H15.75C16.3467 40.5 16.919 40.2629 17.341 39.841C17.7629 39.419 18 38.8467 18 38.25C18 37.6533 17.7629 37.081 17.341 36.659C16.919 36.2371 16.3467 36 15.75 36H13.5C12.9033 36 12.331 36.2371 11.909 36.659C11.4871 37.081 11.25 37.6533 11.25 38.25C11.25 38.8467 11.4871 39.419 11.909 39.841C12.331 40.2629 12.9033 40.5 13.5 40.5Z" fill="#F6F7FF"/>
</svg>
