<svg viewBox="0 0 16 16" fill="none" xmlns="http://www.w3.org/2000/svg">
<path fill-rule="evenodd" clip-rule="evenodd" d="M1 11C1.19891 11 1.38968 11.079 1.53033 11.2197C1.67098 11.3603 1.75 11.5511 1.75 11.75V14.003C1.75 14.141 1.862 14.253 2 14.253H14C14.0663 14.253 14.1299 14.2267 14.1768 14.1798C14.2237 14.1329 14.25 14.0693 14.25 14.003V11.75C14.25 11.5511 14.329 11.3603 14.4697 11.2197C14.6103 11.079 14.8011 11 15 11C15.1989 11 15.3897 11.079 15.5303 11.2197C15.671 11.3603 15.75 11.5511 15.75 11.75V14.003C15.75 14.4671 15.5656 14.9122 15.2374 15.2404C14.9092 15.5686 14.4641 15.753 14 15.753H2C1.53587 15.753 1.09075 15.5686 0.762563 15.2404C0.434375 14.9122 0.25 14.4671 0.25 14.003V11.75C0.25 11.5511 0.329018 11.3603 0.46967 11.2197C0.610322 11.079 0.801088 11 1 11Z" fill="url(#paint0_linear_1848_15485)"/>
<path fill-rule="evenodd" clip-rule="evenodd" d="M8.20312 1.57812C8.40204 1.57813 8.5928 1.65714 8.73346 1.79779C8.87411 1.93845 8.95312 2.12921 8.95312 2.32812V10.4141C8.95312 10.613 8.87411 10.8038 8.73346 10.9445C8.5928 11.0851 8.40204 11.1641 8.20312 11.1641C8.00421 11.1641 7.81345 11.0851 7.6728 10.9445C7.53214 10.8038 7.45312 10.613 7.45312 10.4141V2.32912C7.45312 2.13021 7.53214 1.93945 7.6728 1.7988C7.81345 1.65814 8.00421 1.57813 8.20312 1.57812Z" fill="url(#paint1_linear_1848_15485)"/>
<path fill-rule="evenodd" clip-rule="evenodd" d="M7.67842 0.463415C7.81852 0.326595 8.00658 0.25 8.20241 0.25C8.39824 0.25 8.58631 0.326595 8.72641 0.463415L12.0704 3.72941C12.2098 3.86903 12.2885 4.05792 12.2896 4.25517C12.2906 4.45242 12.2139 4.64215 12.0761 4.78326C11.9383 4.92438 11.7504 5.00551 11.5532 5.0091C11.356 5.01268 11.1653 4.93843 11.0224 4.80241L8.20241 2.04841L5.38241 4.80241C5.31227 4.8727 5.22887 4.92835 5.13704 4.96615C5.04522 5.00395 4.94681 5.02313 4.84751 5.0226C4.74822 5.02206 4.65001 5.00181 4.55861 4.96303C4.4672 4.92424 4.3844 4.86769 4.31502 4.79665C4.24564 4.72561 4.19105 4.64151 4.15443 4.54921C4.11781 4.45691 4.09988 4.35826 4.10169 4.25898C4.10349 4.1597 4.12499 4.06176 4.16494 3.97086C4.20489 3.87995 4.2625 3.79788 4.33441 3.72941L7.67842 0.463415Z" fill="url(#paint2_linear_1848_15485)"/>
<defs>
<linearGradient id="paint0_linear_1848_15485" x1="0.25" y1="11" x2="2.91443" y2="19.689" gradientUnits="userSpaceOnUse">
<stop stop-color="#97ABFF"/>
<stop offset="1" stop-color="#123597"/>
</linearGradient>
<linearGradient id="paint1_linear_1848_15485" x1="7.45312" y1="1.57813" x2="10.3814" y2="2.03634" gradientUnits="userSpaceOnUse">
<stop stop-color="#97ABFF"/>
<stop offset="1" stop-color="#123597"/>
</linearGradient>
<linearGradient id="paint2_linear_1848_15485" x1="4.10156" y1="0.25" x2="8.25436" y2="7.37464" gradientUnits="userSpaceOnUse">
<stop stop-color="#97ABFF"/>
<stop offset="1" stop-color="#123597"/>
</linearGradient>
</defs>
</svg>
