<svg  viewBox="0 0 56 56" fill="none" xmlns="http://www.w3.org/2000/svg">
<path fill-rule="evenodd" clip-rule="evenodd" d="M28 55.9999C31.6796 56.0091 35.3247 55.2911 38.7259 53.8872C42.1272 52.4833 45.2175 50.4212 47.8193 47.8193C50.4212 45.2175 52.4833 42.1272 53.8872 38.7259C55.2911 35.3247 56.0091 31.6796 55.9999 28C56.0091 24.3204 55.2911 20.6753 53.8872 17.2741C52.4833 13.8728 50.4212 10.7825 47.8193 8.18065C45.2175 5.57879 42.1272 3.51669 38.7259 2.1128C35.3247 0.708919 31.6796 -0.00907006 28 8.6488e-05C24.3204 -0.00907006 20.6753 0.708919 17.2741 2.1128C13.8728 3.51669 10.7825 5.57879 8.18065 8.18065C5.57879 10.7825 3.51669 13.8728 2.1128 17.2741C0.708919 20.6753 -0.00907006 24.3204 8.6488e-05 28C-0.00907006 31.6796 0.708919 35.3247 2.1128 38.7259C3.51669 42.1272 5.57879 45.2175 8.18065 47.8193C10.7825 50.4212 13.8728 52.4833 17.2741 53.8872C20.6753 55.2911 24.3204 56.0091 28 55.9999ZM35.7013 32.4264C35.7013 28.3512 33.2513 26.9506 28.3512 26.3707C24.8517 25.9011 24.1493 24.9701 24.1493 23.3286C24.1493 21.6993 25.3213 20.6499 27.6488 20.6499C29.7518 20.6499 30.9237 21.3481 31.4995 23.0999C31.622 23.4511 31.9732 23.6757 32.3243 23.6757H34.1782C34.2855 23.679 34.3924 23.6606 34.4924 23.6215C34.5924 23.5825 34.6834 23.5236 34.7601 23.4485C34.8368 23.3733 34.8974 23.2834 34.9385 23.1843C34.9795 23.0851 35.0001 22.9786 34.999 22.8712V22.7487C34.5294 20.1762 32.4264 17.7262 29.7518 17.4975V14.9249C29.7518 14.4553 29.4006 14.1042 28.8208 13.998H27.2813C26.8117 13.998 26.3707 14.3492 26.2523 14.9249V17.4975C22.7487 17.9712 20.4212 20.6499 20.4212 23.5736C20.4212 27.4202 22.7487 28.9269 27.6488 29.5231C30.9237 30.0989 31.9732 30.8012 31.9732 32.6714C31.9732 34.5253 30.3275 35.8238 28.1225 35.8238C25.0763 35.8238 24.0268 34.5253 23.6798 32.7776C23.5736 32.3202 23.2224 32.0752 22.8712 32.0752H20.8785C20.7708 32.0741 20.664 32.0947 20.5645 32.136C20.4651 32.1773 20.375 32.2384 20.2998 32.3155C20.2246 32.3926 20.1658 32.4842 20.127 32.5847C20.0882 32.6851 20.0702 32.7924 20.0741 32.9001V33.0226C20.5274 35.9259 22.4016 37.9227 26.2523 38.4984V41.0914C26.2523 41.561 26.5994 41.8754 27.1792 41.9979H28.8575C29.3108 41.9979 29.6293 41.6835 29.7518 41.0914V38.4984C33.2513 37.9227 35.7013 35.5788 35.7013 32.4264ZM16.2153 41.1486C17.9099 42.7003 19.8904 43.9008 22.0505 44.6807C22.4016 44.9257 22.7487 45.3831 22.7487 45.7301V47.3758C22.7487 47.6044 22.7487 47.7269 22.6262 47.829C22.5242 48.3027 22.0505 48.5314 21.5768 48.3027C17.3309 46.9505 13.6252 44.2829 10.9955 40.6857C8.36584 37.0884 6.94851 32.7479 6.94851 28.292C6.94851 23.836 8.36584 19.4955 10.9955 15.8983C13.6252 12.301 17.3309 9.63338 21.5768 8.28123C21.6993 8.17506 21.928 8.17506 22.0505 8.17506C22.5242 8.28123 22.7487 8.62832 22.7487 9.102V10.7313C22.7487 11.3234 22.5242 11.6745 22.0505 11.9032C19.6642 12.7635 17.4967 14.1388 15.702 15.9314C13.9073 17.724 12.5295 19.8898 11.6664 22.2751C10.4632 25.5159 10.253 29.0417 11.0625 32.4026C11.8719 35.7634 13.6644 38.8068 16.2112 41.1445M33.3697 8.74674C33.4718 8.27715 33.9454 8.04848 34.4191 8.27715C37.6263 9.32104 40.538 11.1153 42.9123 13.5109C45.2865 15.9064 47.0547 18.8341 48.0699 22.0505C48.908 24.6777 49.2197 27.4444 48.9871 30.1922C48.7546 32.94 47.9825 35.615 46.7149 38.0641C45.4474 40.5131 43.7092 42.6881 41.6001 44.4646C39.4909 46.2411 37.0521 47.5842 34.4232 48.417C34.3007 48.5232 34.072 48.5232 33.9495 48.5232C33.4758 48.417 33.2513 48.0699 33.2513 47.5963V45.967C33.2513 45.3749 33.4758 45.0237 33.9495 44.7951C36.3358 43.9348 38.5033 42.5595 40.298 40.7669C42.0927 38.9743 43.4705 36.8084 44.3336 34.4232C45.1338 32.2716 45.4998 29.9828 45.4105 27.6889C45.3211 25.395 44.7782 23.1416 43.8131 21.0587C42.848 18.9759 41.4798 17.1049 39.7875 15.5537C38.0953 14.0026 36.1124 12.8021 33.9536 12.0216C33.6024 11.7766 33.2553 11.3193 33.2553 10.8497V9.21633C33.2553 8.97133 33.2553 8.86516 33.3778 8.74266" fill="#2775CA"/>
</svg>
