<svg width="34" height="36" viewBox="0 0 34 36" fill="none" xmlns="http://www.w3.org/2000/svg">
<rect width="34" height="35.9998" rx="6" fill="#85B6FF" fill-opacity="0.25" />
<path d="M23 12.9999C23.2652 12.9999 23.5196 12.8946 23.7071 12.707C23.8946 12.5195 24 12.2651 24 11.9999C24 11.7347 23.8946 11.4803 23.7071 11.2928C23.5196 11.1053 23.2652 10.9999 23 10.9999L15.732 10.9999C15.5565 10.6959 15.304 10.4434 15 10.2679C14.6959 10.0924 14.3511 10 14 10C13.6489 10 13.3041 10.0924 13 10.2679C12.696 10.4434 12.4435 10.6959 12.268 10.9999L11 10.9999C10.7348 10.9999 10.4804 11.1053 10.2929 11.2928C10.1054 11.4803 10 11.7347 10 11.9999C10 12.2651 10.1054 12.5195 10.2929 12.707C10.4804 12.8946 10.7348 12.9999 11 12.9999L12.268 12.9999C12.4435 13.3039 12.696 13.5564 13 13.7319C13.3041 13.9074 13.6489 13.9998 14 13.9998C14.3511 13.9998 14.6959 13.9074 15 13.7319C15.304 13.5564 15.5565 13.3039 15.732 12.9999L23 12.9999ZM23 18.9999C23.2652 18.9999 23.5196 18.8946 23.7071 18.707C23.8946 18.5195 24 18.2651 24 17.9999C24 17.7347 23.8946 17.4803 23.7071 17.2928C23.5196 17.1053 23.2652 16.9999 23 16.9999L21.732 16.9999C21.5565 16.6959 21.304 16.4434 21 16.2679C20.6959 16.0924 20.3511 16 20 16C19.6489 16 19.3041 16.0924 19 16.2679C18.696 16.4434 18.4435 16.6959 18.268 16.9999L11 16.9999C10.7348 16.9999 10.4804 17.1053 10.2929 17.2928C10.1054 17.4803 10 17.7347 10 17.9999C10 18.2651 10.1054 18.5195 10.2929 18.707C10.4804 18.8946 10.7348 18.9999 11 18.9999L18.268 18.9999C18.4435 19.3039 18.696 19.5564 19 19.7319C19.3041 19.9074 19.6489 19.9998 20 19.9998C20.3511 19.9998 20.6959 19.9074 21 19.7319C21.304 19.5564 21.5565 19.3039 21.732 18.9999L23 18.9999ZM24 23.9999C24 24.2651 23.8946 24.5195 23.7071 24.707C23.5196 24.8946 23.2652 24.9999 23 24.9999L15.732 24.9999C15.5565 25.3039 15.304 25.5564 15 25.7319C14.6959 25.9074 14.3511 25.9998 14 25.9998C13.6489 25.9998 13.3041 25.9074 13 25.7319C12.696 25.5564 12.4435 25.3039 12.268 24.9999L11 24.9999C10.7348 24.9999 10.4804 24.8946 10.2929 24.707C10.1054 24.5195 10 24.2651 10 23.9999C10 23.7347 10.1054 23.4803 10.2929 23.2928C10.4804 23.1053 10.7348 22.9999 11 22.9999L12.268 22.9999C12.4435 22.6959 12.696 22.4434 13 22.2679C13.3041 22.0924 13.6489 22 14 22C14.3511 22 14.6959 22.0924 15 22.2679C15.304 22.4434 15.5565 22.6959 15.732 22.9999L23 22.9999C23.2652 22.9999 23.5196 23.1053 23.7071 23.2928C23.8946 23.4803 24 23.7347 24 23.9999Z" fill="#85B6FF"/>
</svg>
