<svg width="160" height="111" viewBox="0 0 160 111" fill="none" xmlns="http://www.w3.org/2000/svg">
<g filter="url(#filter0_bd_1110_10349)">
<path d="M87.1494 123.48C87.5666 123.53 88.0065 123.486 88.4293 123.341L102.052 118.653C105.919 117.321 109.087 115.686 111.744 113.657C117.557 109.22 121.673 103.123 123.326 96.4843L128.777 74.6364C129.98 70.2044 125.284 64.6259 123.002 63.4744L105.577 58.2313C104.366 57.6106 102.892 57.4272 101.437 57.7117L77.2947 62.3683C74.5932 62.8856 72.3548 64.9316 71.7294 67.4502L66.2747 89.3143C64.6202 95.9425 62.0701 98.3379 65.3768 103.925C68.4486 109.508 72.5427 113.126 75.5198 115.312L86.0183 123.035C86.3436 123.277 86.733 123.426 87.1494 123.48Z" fill="#05D536" shape-rendering="crispEdges"/>
<path d="M87.0535 123.862L87.0566 123.862C87.5331 123.919 88.0382 123.87 88.5263 123.702L102.149 119.014L102.15 119.014C106.052 117.669 109.267 116.013 111.971 113.948C117.865 109.45 122.039 103.267 123.716 96.5336C123.716 96.5336 123.716 96.5335 123.716 96.5335L129.166 74.6896C129.807 72.3217 128.869 69.7148 127.547 67.601C126.221 65.4812 124.437 63.7435 123.219 63.1289C123.2 63.1195 123.18 63.1116 123.16 63.1055L105.766 57.8718C104.484 57.2238 102.932 57.0351 101.401 57.3343C101.401 57.3344 101.4 57.3344 101.4 57.3345L77.2591 61.9908C74.3919 62.5399 72.0068 64.7137 71.3393 67.4009L87.0535 123.862ZM87.0535 123.862C86.5755 123.801 86.1268 123.628 85.7512 123.349C85.7511 123.349 85.7511 123.349 85.7511 123.349L75.2542 115.627L87.0535 123.862ZM65.8846 89.265L71.3392 67.4014L75.254 115.627C72.2535 113.424 68.1215 109.774 65.0195 104.138C63.3307 101.283 63.1205 99.2013 63.5713 96.9779C63.7909 95.895 64.1661 94.784 64.58 93.5583L64.5905 93.5271C65.0106 92.2831 65.4754 90.9045 65.8846 89.265Z" stroke="url(#paint0_linear_1110_10349)" stroke-width="0.786962" stroke-linecap="round" stroke-linejoin="round" shape-rendering="crispEdges"/>
</g>
<g filter="url(#filter1_b_1110_10349)">
<mask id="path-3-outside-1_1110_10349" maskUnits="userSpaceOnUse" x="51.3457" y="43.7461" width="79.7743" height="78.4397" fill="black">
<rect fill="white" x="51.3457" y="43.7461" width="79.7743" height="78.4397"/>
<path d="M82.5067 116.238C82.9238 116.288 83.3638 116.244 83.7865 116.099L97.4097 111.411C101.276 110.079 104.444 108.444 107.101 106.415C112.914 101.978 117.03 95.8807 118.683 89.2424L124.134 67.3944C124.764 64.873 123.648 62.4083 121.366 61.2568L100.934 50.9893C99.7232 50.3686 98.2494 50.1853 96.7947 50.4697L72.652 55.1263C69.9505 55.6437 67.7121 57.6896 67.0866 60.2082L61.632 82.0723C59.9774 88.7005 60.8889 95.4269 64.1957 101.014C65.7131 103.577 67.8999 105.884 70.8771 108.07L81.3756 115.793C81.7008 116.035 82.0903 116.184 82.5067 116.238Z"/>
</mask>
<path d="M82.5067 116.238C82.9238 116.288 83.3638 116.244 83.7865 116.099L97.4097 111.411C101.276 110.079 104.444 108.444 107.101 106.415C112.914 101.978 117.03 95.8807 118.683 89.2424L124.134 67.3944C124.764 64.873 123.648 62.4083 121.366 61.2568L100.934 50.9893C99.7232 50.3686 98.2494 50.1853 96.7947 50.4697L72.652 55.1263C69.9505 55.6437 67.7121 57.6896 67.0866 60.2082L61.632 82.0723C59.9774 88.7005 60.8889 95.4269 64.1957 101.014C65.7131 103.577 67.8999 105.884 70.8771 108.07L81.3756 115.793C81.7008 116.035 82.0903 116.184 82.5067 116.238Z" fill="url(#paint1_linear_1110_10349)"/>
<path d="M82.0108 118.28C80.8582 118.142 80.1459 117.116 80.4198 115.987C80.6936 114.859 81.85 114.057 83.0025 114.195L82.0108 118.28ZM83.7865 116.099L83.268 114.169L83.2681 114.169L83.7865 116.099ZM97.4097 111.411L97.929 113.34L97.9281 113.34L97.4097 111.411ZM107.101 106.415L105.884 104.861L105.884 104.86L107.101 106.415ZM118.683 89.2424L116.6 88.9799L116.6 88.9791L118.683 89.2424ZM124.134 67.3944L122.051 67.1312L122.051 67.1308L124.134 67.3944ZM121.366 61.2568L122.521 59.4103L122.524 59.4117L121.366 61.2568ZM100.934 50.9893L99.7789 52.8358C99.7744 52.8335 99.7698 52.8312 99.7653 52.8289L100.934 50.9893ZM96.7947 50.4697L96.9938 52.4847L96.9879 52.4858L96.7947 50.4697ZM72.652 55.1263L72.8452 57.1424L72.8422 57.143L72.652 55.1263ZM67.0866 60.2082L69.1709 60.4692L69.1703 60.4715L67.0866 60.2082ZM61.632 82.0723L63.7157 82.3356L63.7156 82.3358L61.632 82.0723ZM64.1957 101.014L62.3012 102.175L62.301 102.175L64.1957 101.014ZM70.8771 108.07L72.2959 106.385L72.2972 106.386L70.8771 108.07ZM81.3756 115.793L82.7957 114.109L82.8032 114.114L81.3756 115.793ZM83.019 114.197C84.1694 114.344 84.8725 115.377 84.5896 116.504C84.3066 117.631 83.1447 118.425 81.9943 118.278L83.019 114.197ZM83.0025 114.195C83.1027 114.207 83.1943 114.195 83.268 114.169L84.3051 118.028C83.5332 118.293 82.745 118.368 82.0108 118.28L83.0025 114.195ZM83.2681 114.169L96.8913 109.482L97.9281 113.34L84.3049 118.028L83.2681 114.169ZM96.8904 109.482C100.562 108.217 103.481 106.695 105.884 104.861L108.318 107.969C105.407 110.192 101.989 111.941 97.929 113.34L96.8904 109.482ZM105.884 104.86C111.271 100.749 115.073 95.1097 116.6 88.9799L120.767 89.5048C118.987 96.6516 114.558 103.206 108.317 107.969L105.884 104.86ZM116.6 88.9791L122.051 67.1312L126.218 67.6577L120.767 89.5056L116.6 88.9791ZM122.051 67.1308C122.455 65.512 121.747 63.8779 120.208 63.1019L122.524 59.4117C125.55 60.9387 127.073 64.2339 126.218 67.6581L122.051 67.1308ZM120.211 63.1032L99.7789 52.8358L102.089 49.1428L122.521 59.4103L120.211 63.1032ZM99.7653 52.8289C98.9672 52.4197 97.9768 52.2925 96.9938 52.4847L96.5955 48.4548C98.522 48.0781 100.479 48.3176 102.102 49.1498L99.7653 52.8289ZM96.9879 52.4858L72.8452 57.1424L72.4587 53.1102L96.6014 48.4536L96.9879 52.4858ZM72.8422 57.143C71.0269 57.4907 69.5724 58.8524 69.1709 60.4692L65.0024 59.9473C65.8518 56.5268 68.8741 53.7967 72.4618 53.1096L72.8422 57.143ZM69.1703 60.4715L63.7157 82.3356L59.5483 81.8091L65.003 59.945L69.1703 60.4715ZM63.7156 82.3358C62.1878 88.4562 63.0267 94.6769 66.0903 99.8532L62.301 102.175C58.7512 96.177 57.7671 88.9448 59.5484 81.8088L63.7156 82.3358ZM66.0902 99.853C67.4622 102.17 69.4691 104.309 72.2959 106.385L69.4583 109.755C66.3308 107.459 63.964 104.983 62.3012 102.175L66.0902 99.853ZM72.2972 106.386L82.7957 114.109L79.9554 117.477L69.4569 109.754L72.2972 106.386ZM82.8032 114.114C82.8594 114.156 82.9321 114.186 83.019 114.197L81.9943 118.278C81.2485 118.183 80.5423 117.913 79.948 117.471L82.8032 114.114Z" fill="url(#paint2_linear_1110_10349)" mask="url(#path-3-outside-1_1110_10349)"/>
</g>
<g filter="url(#filter2_d_1110_10349)">
<path d="M116.102 52.2043L114.756 52.043C91.7324 49.2823 69.4554 67.8175 68.5875 90.4568L76.4642 96.1622C77.7661 97.1053 79.3924 97.5954 81.1122 97.5629L92.1908 93.1523C97.39 91.0824 102.028 87.6908 105.563 83.375L112.918 74.3931L116.102 52.2043Z" fill="#27F171"/>
</g>
<g filter="url(#filter3_b_1110_10349)">
<path d="M79.6238 99.5257L79.6269 99.5261C80.1034 99.5832 80.6085 99.5337 81.0966 99.3657L94.7198 94.6781L94.72 94.678C98.6225 93.3335 101.838 91.677 104.542 89.6116C110.435 85.1136 114.609 78.9311 116.287 72.1977C116.287 72.1976 116.287 72.1976 116.287 72.1975L121.736 50.3537C122.377 47.9858 121.439 45.3789 120.117 43.2651C118.791 41.1452 117.007 39.4076 115.789 38.793C115.77 38.7836 115.75 38.7757 115.73 38.7696L98.336 33.5359C97.0541 32.8879 95.5022 32.6992 93.9711 32.9984C93.9709 32.9984 93.9707 32.9985 93.9704 32.9985L69.8294 37.6548C66.9622 38.2039 64.5771 40.3777 63.9096 43.065L79.6238 99.5257ZM79.6238 99.5257C79.1458 99.4646 78.6971 99.2924 78.3215 99.0132C78.3215 99.0132 78.3214 99.0131 78.3214 99.0131L67.8245 91.2913L79.6238 99.5257ZM58.455 64.9291L63.9095 43.0654L67.8243 91.2911C64.8238 89.0882 60.6918 85.4382 57.5898 79.8019C55.9011 76.9468 55.6909 74.8654 56.1417 72.6419C56.3612 71.5591 56.7364 70.4481 57.1503 69.2224L57.1608 69.1912C57.581 67.9471 58.0457 66.5686 58.455 64.9291Z" fill="white" fill-opacity="0.5" stroke="url(#paint3_linear_1110_10349)" stroke-width="0.786962" stroke-linecap="round" stroke-linejoin="round"/>
</g>
<g filter="url(#filter4_b_1110_10349)">
<mask id="path-7-outside-2_1110_10349" maskUnits="userSpaceOnUse" x="44.916" y="21.4024" width="79.7743" height="78.4397" fill="black">
<rect fill="white" x="44.916" y="21.4024" width="79.7743" height="78.4397"/>
<path d="M76.077 93.8939C76.4942 93.944 76.9341 93.9003 77.3568 93.7548L90.98 89.0671C94.8462 87.7351 98.0145 86.1 100.671 84.0709C106.485 79.6339 110.6 73.5369 112.254 66.8986L117.705 45.0507C118.334 42.5292 117.219 40.0645 114.936 38.913L94.5041 28.6456C93.2935 28.0249 91.8197 27.8415 90.365 28.126L66.2223 32.7826C63.5208 33.2999 61.2824 35.3459 60.657 37.8645L55.2023 59.7286C53.5477 66.3568 54.4592 73.0832 57.766 78.6703C59.2834 81.2331 61.4702 83.5403 64.4474 85.7261L74.9459 93.4491C75.2711 93.6909 75.6606 93.8407 76.077 93.8939Z"/>
</mask>
<path d="M76.077 93.8939C76.4942 93.944 76.9341 93.9003 77.3568 93.7548L90.98 89.0671C94.8462 87.7351 98.0145 86.1 100.671 84.0709C106.485 79.6339 110.6 73.5369 112.254 66.8986L117.705 45.0507C118.334 42.5292 117.219 40.0645 114.936 38.913L94.5041 28.6456C93.2935 28.0249 91.8197 27.8415 90.365 28.126L66.2223 32.7826C63.5208 33.2999 61.2824 35.3459 60.657 37.8645L55.2023 59.7286C53.5477 66.3568 54.4592 73.0832 57.766 78.6703C59.2834 81.2331 61.4702 83.5403 64.4474 85.7261L74.9459 93.4491C75.2711 93.6909 75.6606 93.8407 76.077 93.8939Z" fill="white" fill-opacity="0.5"/>
<path d="M75.5811 95.9364C74.4285 95.7982 73.7162 94.7718 73.9901 93.6437C74.2639 92.5157 75.4203 91.7132 76.5728 91.8514L75.5811 95.9364ZM77.3568 93.7548L76.8383 91.8257L76.8384 91.8257L77.3568 93.7548ZM90.98 89.0671L91.4993 90.9959L91.4984 90.9963L90.98 89.0671ZM100.671 84.0709L99.4538 82.5169L99.4545 82.5164L100.671 84.0709ZM112.254 66.8986L110.17 66.6361L110.17 66.6354L112.254 66.8986ZM117.705 45.0507L115.621 44.7874L115.621 44.787L117.705 45.0507ZM114.936 38.913L116.091 37.0665L116.094 37.0679L114.936 38.913ZM94.5041 28.6456L93.3492 30.492C93.3447 30.4897 93.3401 30.4874 93.3356 30.4851L94.5041 28.6456ZM90.365 28.126L90.5641 30.1409L90.5582 30.1421L90.365 28.126ZM66.2223 32.7826L66.4156 34.7987L66.4125 34.7993L66.2223 32.7826ZM60.657 37.8645L62.7412 38.1255L62.7406 38.1277L60.657 37.8645ZM55.2023 59.7286L57.286 59.9918L57.2859 59.9921L55.2023 59.7286ZM57.766 78.6703L55.8715 79.8314L55.8713 79.8311L57.766 78.6703ZM64.4474 85.7261L65.8662 84.041L65.8676 84.042L64.4474 85.7261ZM74.9459 93.4491L76.3661 91.765L76.3735 91.7706L74.9459 93.4491ZM76.5894 91.8535C77.7397 92.0006 78.4429 93.0334 78.1599 94.1603C77.8769 95.2873 76.715 96.0815 75.5646 95.9344L76.5894 91.8535ZM76.5728 91.8514C76.673 91.8634 76.7647 91.8511 76.8383 91.8257L77.8754 95.6839C77.1035 95.9495 76.3153 96.0245 75.5811 95.9364L76.5728 91.8514ZM76.8384 91.8257L90.4616 87.138L91.4984 90.9963L77.8752 95.6839L76.8384 91.8257ZM90.4607 87.1383C94.1327 85.8732 97.0516 84.3517 99.4538 82.5169L101.888 85.6249C98.9774 87.8482 95.5596 89.597 91.4993 90.9959L90.4607 87.1383ZM99.4545 82.5164C104.841 78.4056 108.643 72.7659 110.17 66.6361L114.338 67.1611C112.557 74.3079 108.129 80.8623 101.888 85.6255L99.4545 82.5164ZM110.17 66.6354L115.621 44.7874L119.788 45.3139L114.337 67.1619L110.17 66.6354ZM115.621 44.787C116.025 43.1683 115.317 41.5341 113.779 40.7581L116.094 37.0679C119.121 38.5949 120.643 41.8902 119.788 45.3144L115.621 44.787ZM113.781 40.7595L93.3492 30.492L95.659 26.7991L116.091 37.0665L113.781 40.7595ZM93.3356 30.4851C92.5375 30.0759 91.5471 29.9487 90.5641 30.1409L90.1658 26.111C92.0923 25.7343 94.0495 25.9739 95.6726 26.806L93.3356 30.4851ZM90.5582 30.1421L66.4156 34.7987L66.0291 30.7665L90.1717 26.1099L90.5582 30.1421ZM66.4125 34.7993C64.5972 35.1469 63.1427 36.5086 62.7412 38.1255L58.5727 37.6035C59.4221 34.1831 62.4444 31.4529 66.0321 30.7659L66.4125 34.7993ZM62.7406 38.1277L57.286 59.9918L53.1186 59.4653L58.5733 37.6013L62.7406 38.1277ZM57.2859 59.9921C55.7581 66.1125 56.597 72.3331 59.6606 77.5095L55.8713 79.8311C52.3215 73.8332 51.3374 66.6011 53.1187 59.4651L57.2859 59.9921ZM59.6605 77.5092C61.0325 79.8265 63.0394 81.9656 65.8662 84.041L63.0286 87.4111C59.9011 85.1149 57.5343 82.6396 55.8715 79.8314L59.6605 77.5092ZM65.8676 84.042L76.366 91.765L73.5257 95.1331L63.0273 87.4101L65.8676 84.042ZM76.3735 91.7706C76.4297 91.8123 76.5024 91.8424 76.5894 91.8535L75.5646 95.9344C74.8188 95.839 74.1126 95.5695 73.5183 95.1276L76.3735 91.7706Z" fill="url(#paint4_linear_1110_10349)" mask="url(#path-7-outside-2_1110_10349)"/>
</g>
<defs>
<filter id="filter0_bd_1110_10349" x="0.00787354" y="37.9254" width="192.723" height="228.001" filterUnits="userSpaceOnUse" color-interpolation-filters="sRGB">
<feFlood flood-opacity="0" result="BackgroundImageFix"/>
<feGaussianBlur in="BackgroundImageFix" stdDeviation="9.44355"/>
<feComposite in2="SourceAlpha" operator="in" result="effect1_backgroundBlur_1110_10349"/>
<feColorMatrix in="SourceAlpha" type="matrix" values="0 0 0 0 0 0 0 0 0 0 0 0 0 0 0 0 0 0 127 0" result="hardAlpha"/>
<feOffset dy="78.6962"/>
<feGaussianBlur stdDeviation="31.4785"/>
<feComposite in2="hardAlpha" operator="out"/>
<feColorMatrix type="matrix" values="0 0 0 0 0.343982 0 0 0 0 1 0 0 0 0 0.448945 0 0 0 0.5 0"/>
<feBlend mode="normal" in2="effect1_backgroundBlur_1110_10349" result="effect2_dropShadow_1110_10349"/>
<feBlend mode="normal" in="SourceGraphic" in2="effect2_dropShadow_1110_10349" result="shape"/>
</filter>
<filter id="filter1_b_1110_10349" x="39.7926" y="29.3942" width="105.548" height="107.805" filterUnits="userSpaceOnUse" color-interpolation-filters="sRGB">
<feFlood flood-opacity="0" result="BackgroundImageFix"/>
<feGaussianBlur in="BackgroundImageFix" stdDeviation="9.44355"/>
<feComposite in2="SourceAlpha" operator="in" result="effect1_backgroundBlur_1110_10349"/>
<feBlend mode="normal" in="SourceGraphic" in2="effect1_backgroundBlur_1110_10349" result="shape"/>
</filter>
<filter id="filter2_d_1110_10349" x="37.759" y="44.7673" width="109.17" height="107.443" filterUnits="userSpaceOnUse" color-interpolation-filters="sRGB">
<feFlood flood-opacity="0" result="BackgroundImageFix"/>
<feColorMatrix in="SourceAlpha" type="matrix" values="0 0 0 0 0 0 0 0 0 0 0 0 0 0 0 0 0 0 127 0" result="hardAlpha"/>
<feOffset dy="23.8208"/>
<feGaussianBlur stdDeviation="15.4135"/>
<feComposite in2="hardAlpha" operator="out"/>
<feColorMatrix type="matrix" values="0 0 0 0 0 0 0 0 0 0.824769 0 0 0 0 0.300654 0 0 0 1 0"/>
<feBlend mode="normal" in2="BackgroundImageFix" result="effect1_dropShadow_1110_10349"/>
<feBlend mode="normal" in="SourceGraphic" in2="effect1_dropShadow_1110_10349" result="shape"/>
</filter>
<filter id="filter3_b_1110_10349" x="41.5229" y="18.4643" width="94.8331" height="95.4855" filterUnits="userSpaceOnUse" color-interpolation-filters="sRGB">
<feFlood flood-opacity="0" result="BackgroundImageFix"/>
<feGaussianBlur in="BackgroundImageFix" stdDeviation="7.00613"/>
<feComposite in2="SourceAlpha" operator="in" result="effect1_backgroundBlur_1110_10349"/>
<feBlend mode="normal" in="SourceGraphic" in2="effect1_backgroundBlur_1110_10349" result="shape"/>
</filter>
<filter id="filter4_b_1110_10349" x="47.25" y="20.9375" width="77.7734" height="80.0312" filterUnits="userSpaceOnUse" color-interpolation-filters="sRGB">
<feFlood flood-opacity="0" result="BackgroundImageFix"/>
<feGaussianBlur in="BackgroundImageFix" stdDeviation="2.5"/>
<feComposite in2="SourceAlpha" operator="in" result="effect1_backgroundBlur_1110_10349"/>
<feBlend mode="normal" in="SourceGraphic" in2="effect1_backgroundBlur_1110_10349" result="shape"/>
</filter>
<linearGradient id="paint0_linear_1110_10349" x1="121.027" y1="67.6229" x2="66.3943" y2="108.322" gradientUnits="userSpaceOnUse">
<stop stop-color="white" stop-opacity="0.25"/>
<stop offset="1" stop-color="white" stop-opacity="0"/>
</linearGradient>
<linearGradient id="paint1_linear_1110_10349" x1="98.7975" y1="50.371" x2="90.7806" y2="117.23" gradientUnits="userSpaceOnUse">
<stop stop-color="#24EF7F"/>
<stop offset="1" stop-color="#26F16D"/>
</linearGradient>
<linearGradient id="paint2_linear_1110_10349" x1="88.9716" y1="74.9875" x2="107.166" y2="110.026" gradientUnits="userSpaceOnUse">
<stop stop-color="white" stop-opacity="0.43"/>
<stop offset="0.846595" stop-color="white"/>
<stop offset="1" stop-color="white" stop-opacity="0"/>
</linearGradient>
<linearGradient id="paint3_linear_1110_10349" x1="113.598" y1="43.287" x2="58.9646" y2="83.9858" gradientUnits="userSpaceOnUse">
<stop stop-color="white" stop-opacity="0.25"/>
<stop offset="1" stop-color="white" stop-opacity="0"/>
</linearGradient>
<linearGradient id="paint4_linear_1110_10349" x1="94.4048" y1="91.2252" x2="55.7857" y2="52.8105" gradientUnits="userSpaceOnUse">
<stop stop-color="white" stop-opacity="0.79"/>
<stop offset="1" stop-color="white" stop-opacity="0"/>
</linearGradient>
</defs>
</svg>
