<svg  viewBox="0 0 24 24" fill="none" xmlns="http://www.w3.org/2000/svg">
<path d="M22.6791 1.5214C22.5016 1.47919 22.3149 1.50197 22.1527 1.58562L21.0001 2.16124L19.8376 1.57999C19.7334 1.52793 19.6186 1.50082 19.5022 1.50082C19.3857 1.50082 19.2709 1.52793 19.1668 1.57999L17.9897 2.16171L16.8282 1.57999C16.7237 1.52755 16.6085 1.50023 16.4916 1.50023C16.3748 1.50023 16.2595 1.52755 16.1551 1.57999L15.0001 2.15983L13.854 1.5814C13.7498 1.52859 13.6348 1.50084 13.518 1.50035C13.4012 1.49986 13.2859 1.52665 13.1813 1.57858L12.0001 2.16218L10.8376 1.57952C10.7332 1.52748 10.6183 1.50039 10.5017 1.50039C10.3851 1.50039 10.2702 1.52748 10.1658 1.57952L9.00006 2.16124L7.83569 1.57952C7.68558 1.50428 7.51456 1.48158 7.35003 1.51507C7.18549 1.54855 7.03695 1.63628 6.92819 1.76421C6.81096 1.90393 6.74776 2.08106 6.75006 2.26343V13.5003L6.7524 13.5026H15.7501C16.1479 13.5026 16.5294 13.6607 16.8107 13.942C17.092 14.2233 17.2501 14.6048 17.2501 15.0026V19.8753C17.2501 21.3251 18.8002 22.5003 20.2501 22.5003H20.8126C21.459 22.5003 22.079 22.2435 22.5361 21.7864C22.9933 21.3293 23.2501 20.7093 23.2501 20.0628V2.2503C23.2502 2.08244 23.194 1.91938 23.0905 1.78723C22.987 1.65508 22.8421 1.56147 22.6791 1.5214ZM19.5001 11.2503H13.5235C13.1185 11.2503 12.7688 10.9391 12.751 10.5341C12.7464 10.4328 12.7624 10.3317 12.798 10.2369C12.8336 10.142 12.888 10.0554 12.958 9.98211C13.028 9.90886 13.1122 9.85056 13.2053 9.81072C13.2985 9.77088 13.3987 9.75033 13.5001 9.7503H19.4766C19.8816 9.7503 20.2313 10.0616 20.2491 10.4666C20.2537 10.5678 20.2377 10.6689 20.2021 10.7637C20.1665 10.8586 20.1121 10.9453 20.0421 11.0185C19.9721 11.0917 19.888 11.15 19.7948 11.1899C19.7016 11.2297 19.6014 11.2503 19.5001 11.2503ZM19.5001 7.5003H10.5235C10.1185 7.5003 9.76881 7.18905 9.751 6.78405C9.74644 6.68284 9.76243 6.58175 9.79802 6.48689C9.83361 6.39202 9.88804 6.30535 9.95805 6.23211C10.028 6.15886 10.1122 6.10056 10.2053 6.06072C10.2985 6.02088 10.3987 6.00033 10.5001 6.0003H19.4766C19.8816 6.0003 20.2313 6.31155 20.2491 6.71655C20.2537 6.81777 20.2377 6.91886 20.2021 7.01372C20.1665 7.10858 20.1121 7.19525 20.0421 7.2685C19.9721 7.34174 19.888 7.40005 19.7948 7.43989C19.7016 7.47973 19.6014 7.50028 19.5001 7.5003Z" fill="#699BF7"/>
<path d="M15.75 19.875V15.75C15.75 15.5511 15.671 15.3603 15.5303 15.2197C15.3897 15.079 15.1989 15 15 15H2.25C1.85215 15.0012 1.47098 15.16 1.18988 15.4415C0.908777 15.7231 0.750618 16.1045 0.75 16.5023C0.75 18.8719 1.02094 19.8572 1.42781 20.6072C2.11828 21.8808 3.36844 22.5 5.25 22.5H16.7663C16.8032 22.5 16.8394 22.4891 16.8702 22.4686C16.901 22.4481 16.9251 22.419 16.9394 22.3849C16.9536 22.3508 16.9575 22.3132 16.9505 22.2769C16.9435 22.2405 16.9258 22.2071 16.8998 22.1808C16.4564 21.7359 15.75 21.1406 15.75 19.875Z" fill="#699BF7"/>
</svg>
