<svg width="115" height="43" viewBox="0 0 115 43" fill="none" xmlns="http://www.w3.org/2000/svg">
<rect x="1" y="1" width="113" height="41" rx="6" fill="#26304E"/>
<rect x="1" y="1" width="113" height="41" rx="6" stroke="#5275EC" stroke-width="2"/>
<path fill-rule="evenodd" clip-rule="evenodd" d="M25.8654 29.4154L29.8467 16.2881H33.3991L29.4176 29.4154H25.8654ZM24.2774 16.2916L21.0819 21.8563C20.2684 23.3138 19.793 24.0499 19.5643 24.9709H19.5157C19.5723 23.8033 19.4094 22.37 19.394 21.5598L19.0412 16.2916H13.0615L13 16.6447C14.5363 16.6447 15.4473 17.4165 15.698 18.995L16.8635 29.4154H20.5437L27.985 16.2916H24.2774ZM51.9027 29.4154L51.8047 27.463L47.3689 27.4594L46.4617 29.4151H42.6051L49.598 16.3129H54.3319L55.5161 29.4151L51.9027 29.4154ZM51.4953 21.672C51.4559 20.7018 51.4229 19.385 51.4889 18.5881H51.4365C51.2204 19.2398 50.2917 21.1968 49.8833 22.1592L48.5615 25.0367H51.6761L51.4953 21.672ZM37.1285 29.7885C34.6205 29.7885 32.9562 28.9929 31.7678 28.2837L33.4601 25.6994C34.5268 26.296 35.3643 26.9845 37.2913 26.9845C37.911 26.9845 38.5081 26.8234 38.8471 26.2363C39.3412 25.3824 38.7331 24.923 37.3453 24.1375L36.6602 23.692C34.6031 22.2862 33.7133 20.9512 34.6817 18.6207C35.3013 17.1299 36.9357 16 39.6319 16C41.4913 16 43.2345 16.8042 44.2502 17.5901L42.3047 19.8717C41.3136 19.07 40.4919 18.6644 39.5517 18.6644C38.802 18.6644 38.2325 18.9535 38.0359 19.3435C37.6659 20.0765 38.1555 20.5764 39.2365 21.2475L40.0513 21.7657C42.5488 23.3409 43.1438 24.9927 42.5178 26.5369C41.4414 29.1949 39.3336 29.7885 37.1285 29.7885ZM56.4878 18.3185H56.2538V16.8954H56.7938C57.1374 16.8954 57.3128 17.0157 57.3128 17.3046C57.3128 17.5622 57.1543 17.6687 56.9412 17.6927L57.3399 18.3185H57.0754L56.7077 17.7101H56.4878V18.3185ZM56.7487 17.5107C56.9243 17.5107 57.0787 17.4935 57.0787 17.2872C57.0787 17.1153 56.9103 17.0946 56.7697 17.0946H56.4875V17.5107H56.7487ZM56.7418 18.8685C56.0031 18.8685 55.4772 18.3152 55.4772 17.5829C55.4772 16.8094 56.0612 16.2973 56.7418 16.2973C57.416 16.2973 58 16.8094 58 17.5829C58 18.3562 57.416 18.8685 56.7418 18.8685ZM56.7418 16.5208C56.1851 16.5208 55.7522 16.9571 55.7522 17.5829C55.7522 18.1672 56.1303 18.645 56.7418 18.645C57.2918 18.645 57.725 18.212 57.725 17.5829C57.725 16.9571 57.2918 16.5208 56.7418 16.5208Z" fill="#1D5B99"/>
<g clip-path="url(#clip0_1141_10525)">
<path d="M69.3637 32.5623V31.3276C69.3637 30.8541 69.0755 30.5455 68.5816 30.5455C68.3346 30.5455 68.0671 30.6278 67.8818 30.8954C67.7378 30.669 67.532 30.5455 67.2233 30.5455C67.0174 30.5455 66.8118 30.6072 66.647 30.8336V30.5867H66.2148V32.5623H66.647V31.4716C66.647 31.1218 66.8323 30.9571 67.1205 30.9571C67.4085 30.9571 67.5527 31.1423 67.5527 31.4716V32.5623H67.9848V31.4716C67.9848 31.1218 68.1905 30.9571 68.4581 30.9571C68.7463 30.9571 68.8903 31.1423 68.8903 31.4716V32.5623H69.3637ZM75.7641 30.5867H75.0645V29.9898H74.6323V30.5867H74.2413V30.9776H74.6322V31.8832C74.6322 32.336 74.8174 32.6035 75.3114 32.6035C75.4967 32.6035 75.7023 32.5418 75.8465 32.4595L75.723 32.089C75.5995 32.1713 75.4555 32.1919 75.3526 32.1919C75.1468 32.1919 75.0645 32.0685 75.0645 31.8626V30.9776H75.7641V30.5867ZM79.4275 30.5454C79.1806 30.5454 79.0159 30.669 78.913 30.8336V30.5867H78.4808V32.5623H78.913V31.451C78.913 31.1218 79.057 30.9365 79.3246 30.9365C79.4069 30.9365 79.5098 30.9572 79.5921 30.9777L79.7156 30.5661C79.6333 30.5455 79.5098 30.5455 79.4275 30.5455M73.8914 30.7514C73.6855 30.6073 73.3974 30.5456 73.0887 30.5456C72.5948 30.5456 72.2656 30.7925 72.2656 31.1836C72.2656 31.5129 72.5125 31.6981 72.9447 31.7598L73.1505 31.7805C73.3769 31.8215 73.5003 31.8833 73.5003 31.9863C73.5003 32.1303 73.3357 32.2332 73.0475 32.2332C72.7594 32.2332 72.533 32.1302 72.3889 32.0274L72.1832 32.3567C72.4096 32.5213 72.7183 32.6036 73.0269 32.6036C73.6032 32.6036 73.9325 32.3361 73.9325 31.9656C73.9325 31.6158 73.665 31.4305 73.2533 31.3688L73.0475 31.3482C72.8623 31.3276 72.7183 31.2865 72.7183 31.163C72.7183 31.0189 72.8623 30.9366 73.0887 30.9366C73.3357 30.9366 73.5827 31.0395 73.7061 31.1013L73.8914 30.7514ZM85.3753 30.5456C85.1283 30.5456 84.9636 30.6691 84.8607 30.8337V30.5868H84.4285V32.5624H84.8607V31.4511C84.8607 31.1219 85.0048 30.9366 85.2723 30.9366C85.3547 30.9366 85.4576 30.9572 85.5399 30.9778L85.6634 30.5662C85.5811 30.5456 85.4576 30.5456 85.3753 30.5456ZM79.8597 31.5746C79.8597 32.1714 80.2712 32.6036 80.9093 32.6036C81.1974 32.6036 81.4032 32.5419 81.609 32.3773L81.4032 32.0274C81.2386 32.1509 81.0739 32.2126 80.8887 32.2126C80.5388 32.2126 80.2919 31.9656 80.2919 31.5746C80.2919 31.2042 80.5388 30.9572 80.8887 30.9366C81.0739 30.9366 81.2386 30.9983 81.4032 31.1219L81.609 30.772C81.4032 30.6073 81.1974 30.5456 80.9093 30.5456C80.2712 30.5456 79.8597 30.9778 79.8597 31.5746ZM83.8523 31.5746V30.5868H83.4201V30.8337C83.276 30.6485 83.0703 30.5456 82.8027 30.5456C82.247 30.5456 81.8148 30.9778 81.8148 31.5746C81.8148 32.1714 82.247 32.6036 82.8027 32.6036C83.0908 32.6036 83.2967 32.5008 83.4201 32.3155V32.5624H83.8523V31.5746ZM82.2676 31.5746C82.2676 31.2247 82.494 30.9366 82.8644 30.9366C83.2143 30.9366 83.4613 31.2042 83.4613 31.5746C83.4613 31.9245 83.2143 32.2126 82.8644 32.2126C82.494 32.1919 82.2676 31.9245 82.2676 31.5746ZM77.1019 30.5456C76.5257 30.5456 76.114 30.9572 76.114 31.5746C76.114 32.192 76.5256 32.6036 77.1225 32.6036C77.4106 32.6036 77.6988 32.5213 77.9252 32.3361L77.7193 32.0274C77.5547 32.1509 77.3489 32.2332 77.1431 32.2332C76.8755 32.2332 76.608 32.1097 76.5462 31.7598H78.0075V31.5952C78.0281 30.9572 77.6577 30.5456 77.1019 30.5456ZM77.1018 30.916C77.3693 30.916 77.5547 31.0807 77.5957 31.3894H76.5667C76.6079 31.1219 76.7931 30.916 77.1018 30.916ZM87.8242 31.5746V29.8047H87.392V30.8337C87.2479 30.6485 87.0422 30.5456 86.7746 30.5456C86.2189 30.5456 85.7868 30.9778 85.7868 31.5746C85.7868 32.1714 86.2189 32.6036 86.7746 32.6036C87.0628 32.6036 87.2686 32.5008 87.392 32.3155V32.5624H87.8242V31.5746ZM86.2396 31.5746C86.2396 31.2247 86.4659 30.9366 86.8364 30.9366C87.1863 30.9366 87.4332 31.2042 87.4332 31.5746C87.4332 31.9245 87.1863 32.2126 86.8364 32.2126C86.4659 32.1919 86.2396 31.9245 86.2396 31.5746ZM71.792 31.5746V30.5868H71.3598V30.8337C71.2158 30.6485 71.01 30.5456 70.7424 30.5456C70.1867 30.5456 69.7546 30.9778 69.7546 31.5746C69.7546 32.1714 70.1867 32.6036 70.7424 32.6036C71.0306 32.6036 71.2364 32.5008 71.3598 32.3155V32.5624H71.792V31.5746ZM70.1867 31.5746C70.1867 31.2247 70.4132 30.9366 70.7836 30.9366C71.1334 30.9366 71.3805 31.2042 71.3805 31.5746C71.3805 31.9245 71.1334 32.2126 70.7836 32.2126C70.4132 32.1919 70.1867 31.9245 70.1867 31.5746Z" fill="black"/>
<path d="M73.7461 15.5859H80.2289V27.2345H73.7461V15.5859Z" fill="#FF5F00"/>
<path d="M74.1583 21.409C74.1583 19.0422 75.2697 16.943 76.9778 15.5847C75.7225 14.5968 74.1378 14 72.4091 14C68.3134 14 65 17.3134 65 21.409C65 25.5044 68.3134 28.8179 72.409 28.8179C74.1377 28.8179 75.7224 28.2211 76.9778 27.2332C75.2697 25.8955 74.1583 23.7757 74.1583 21.409Z" fill="#EB001B"/>
<path d="M88.9778 21.409C88.9778 25.5044 85.6644 28.8179 81.5688 28.8179C79.8401 28.8179 78.2554 28.2211 77 27.2332C78.7288 25.8749 79.8195 23.7757 79.8195 21.409C79.8195 19.0422 78.7081 16.943 77 15.5847C78.2553 14.5968 79.8401 14 81.5688 14C85.6644 14 88.9778 17.334 88.9778 21.409Z" fill="#F79E1B"/>
</g>
<defs>
<clipPath id="clip0_1141_10525">
<rect width="24" height="18.6562" fill="white" transform="translate(65 14)"/>
</clipPath>
</defs>
</svg>
