<svg  viewBox="0 0 18 12" fill="none" xmlns="http://www.w3.org/2000/svg">
<path d="M17.6819 8.48897C17.729 8.54584 17.7645 8.61145 17.7863 8.68204C17.8081 8.75264 17.8158 8.82684 17.8089 8.9004C17.8021 8.97397 17.7808 9.04546 17.7462 9.11079C17.7117 9.17612 17.6647 9.23401 17.6078 9.28116C16.0262 10.5937 14.6078 11.0624 13.3187 11.0624C11.6134 11.0624 10.119 10.2505 8.7306 9.49584C6.2931 8.17209 4.18935 7.02928 1.10779 9.58959C1.05048 9.63675 0.984445 9.67215 0.913453 9.69378C0.842461 9.71541 0.767904 9.72285 0.694037 9.71567C0.620171 9.70849 0.548443 9.68683 0.482948 9.65192C0.417453 9.61702 0.359474 9.56956 0.312322 9.51225C0.265169 9.45494 0.229766 9.3889 0.208134 9.31791C0.186502 9.24692 0.179064 9.17236 0.186246 9.0985C0.193428 9.02463 0.215089 8.9529 0.249992 8.88741C0.284894 8.82191 0.332355 8.76393 0.389665 8.71678C4.0581 5.67366 6.8256 7.1774 9.26685 8.50397C11.7081 9.83053 13.8081 10.9705 16.8897 8.41022C16.9468 8.36332 17.0127 8.32815 17.0834 8.30673C17.1542 8.2853 17.2285 8.27804 17.3021 8.28535C17.3757 8.29267 17.4471 8.31441 17.5122 8.34935C17.5774 8.38429 17.635 8.43173 17.6819 8.48897ZM1.10779 3.58116C4.18935 1.02459 6.29404 2.16741 8.7306 3.48741C10.119 4.23741 11.6134 5.05397 13.3187 5.05397C14.6115 5.05397 16.0262 4.58522 17.6078 3.27272C17.7227 3.17749 17.795 3.04053 17.8089 2.89196C17.8228 2.7434 17.7771 2.5954 17.6819 2.48053C17.5866 2.36566 17.4497 2.29332 17.3011 2.27943C17.1525 2.26554 17.0045 2.31124 16.8897 2.40647C13.8081 4.96303 11.7034 3.82022 9.26685 2.50022C6.83029 1.18022 4.0581 -0.328219 0.389665 2.71678C0.274793 2.81201 0.202456 2.94897 0.188567 3.09754C0.174677 3.2461 0.220374 3.3941 0.315603 3.50897C0.410832 3.62384 0.547794 3.69618 0.696358 3.71007C0.844922 3.72396 0.992919 3.67826 1.10779 3.58303V3.58116Z" fill="#85B6FF"/>
</svg>
