<svg  viewBox="0 0 18 24" fill="none" xmlns="http://www.w3.org/2000/svg">
<path d="M0.25 5.37597V1.49941C0.25 1.3005 0.329018 1.10973 0.469669 0.969078C0.610321 0.828426 0.801088 0.749409 1 0.749409C1.19891 0.749409 1.38968 0.828426 1.53033 0.969078C1.67098 1.10973 1.75 1.3005 1.75 1.49941V5.37597C1.75349 6.33864 1.95505 7.29028 2.34213 8.1717C2.72922 9.05312 3.29354 9.84546 4 10.4994V5.0291C4.00014 4.86769 4.05234 4.71064 4.14885 4.58127C4.24536 4.4519 4.38103 4.35712 4.5357 4.311C4.69037 4.26488 4.8558 4.26989 5.0074 4.32528C5.159 4.38068 5.28868 4.4835 5.37719 4.61847L6.37844 6.14754C6.38594 6.15878 6.39344 6.17097 6.4 6.18316C6.54707 6.44287 6.79129 6.63351 7.07892 6.71315C7.36655 6.7928 7.67405 6.75492 7.93375 6.60785C8.19346 6.46078 8.3841 6.21656 8.46374 5.92893C8.54339 5.64129 8.50551 5.3338 8.35844 5.0741L6.28375 1.90628C6.17485 1.73982 6.13653 1.53691 6.17723 1.34219C6.21793 1.14748 6.33432 0.976908 6.50078 0.868002C6.66725 0.759098 6.87016 0.720783 7.06487 0.761484C7.25959 0.802185 7.43016 0.91857 7.53906 1.08503L9.62594 4.27253L9.64844 4.30816C9.68406 4.37004 9.71688 4.43285 9.74688 4.49566H16.75C16.9489 4.49566 17.1397 4.57468 17.2803 4.71533C17.421 4.85598 17.5 5.04675 17.5 5.24566L17.5 14.9994C17.5 15.3972 17.342 15.7788 17.0607 16.0601C16.7794 16.3414 16.3978 16.4994 16 16.4994H11.5L11.5 11.9994C11.5 11.8005 11.421 11.6097 11.2803 11.4691C11.1397 11.3284 10.9489 11.2494 10.75 11.2494C10.5511 11.2494 10.3603 11.3284 10.2197 11.4691C10.079 11.6097 10 11.8005 10 11.9994L10 16.4994H5.5C5.10218 16.4994 4.72064 16.3414 4.43934 16.0601C4.15804 15.7788 4 15.3972 4 14.9994V12.41C2.84884 11.6321 1.90536 10.5845 1.25176 9.35855C0.59815 8.13254 0.254244 6.76531 0.25 5.37597ZM10 20.6891L8.28063 18.9688C8.13989 18.8281 7.94902 18.749 7.75 18.749C7.55098 18.749 7.36011 18.8281 7.21937 18.9688C7.07864 19.1095 6.99958 19.3004 6.99958 19.4994C6.99958 19.6984 7.07864 19.8893 7.21937 20.03L10.2194 23.03C10.289 23.0998 10.3717 23.1551 10.4628 23.1928C10.5538 23.2306 10.6514 23.25 10.75 23.25C10.8486 23.25 10.9462 23.2306 11.0372 23.1928C11.1283 23.1551 11.211 23.0998 11.2806 23.03L14.2806 20.03C14.4214 19.8893 14.5004 19.6984 14.5004 19.4994C14.5004 19.3004 14.4214 19.1095 14.2806 18.9688C14.1399 18.8281 13.949 18.749 13.75 18.749C13.551 18.749 13.3601 18.8281 13.2194 18.9688L11.5 20.6891V16.4994H10V20.6891Z" fill="#699BF7"/>
</svg>
