<svg width="94" height="94" viewBox="0 0 94 94" fill="none" xmlns="http://www.w3.org/2000/svg">
<rect width="94.0014" height="94.0014" rx="47.0007" fill="#0025A4"/>
<path d="M33.0788 43.2829C33.3073 43.2829 33.5622 43.3181 33.8434 43.3884C34.1247 43.4587 34.4059 43.5554 34.6872 43.6784C34.9684 43.8015 35.2497 43.9157 35.5309 44.0212C35.8122 44.1267 36.0671 44.2321 36.2956 44.3376L35.8737 44.3903C35.7331 44.4079 35.5837 44.4167 35.4255 44.4167C35.1267 44.4167 34.8542 44.3727 34.6081 44.2849C34.362 44.197 34.1335 44.0827 33.9226 43.9421C33.7116 43.8015 33.5007 43.696 33.2897 43.6257C33.0788 43.5554 32.8854 43.5026 32.7097 43.4675C32.5339 43.4675 32.3757 43.5026 32.2351 43.5729C32.0944 43.6433 31.9538 43.7224 31.8132 43.8102C31.8132 43.7399 31.7517 43.7048 31.6286 43.7048C31.7517 43.5817 31.9802 43.4851 32.3142 43.4147C32.6481 43.3444 32.903 43.3005 33.0788 43.2829ZM36.6384 44.4694C37.3591 44.4694 38.0183 44.5925 38.6159 44.8386C38.3698 44.9265 38.1237 44.9968 37.8776 45.0495C37.6315 45.1022 37.3767 45.1374 37.113 45.155C36.7614 45.155 36.445 45.1198 36.1638 45.0495C36.2517 44.9089 36.3395 44.821 36.4274 44.7858C36.5153 44.7507 36.5856 44.6452 36.6384 44.4694ZM47.0007 20.0007C49.4792 20.0007 51.861 20.3259 54.1462 20.9763C56.4313 21.6267 58.5759 22.5319 60.5798 23.6921C62.5837 24.8522 64.4118 26.2673 66.0642 27.9372C67.7165 29.6071 69.1227 31.4265 70.2829 33.3952C71.4431 35.364 72.3571 37.5085 73.0251 39.8288C73.6931 42.1491 74.0183 44.5397 74.0007 47.0007C74.0007 49.4792 73.6755 51.861 73.0251 54.1462C72.3747 56.4313 71.4694 58.5759 70.3093 60.5798C69.1491 62.5837 67.7341 64.4118 66.0642 66.0642C64.3942 67.7165 62.5749 69.1227 60.6061 70.2829C58.6374 71.4431 56.4929 72.3571 54.1726 73.0251C51.8522 73.6931 49.4616 74.0183 47.0007 74.0007C44.5222 74.0007 42.1403 73.6755 39.8552 73.0251C37.57 72.3747 35.4255 71.4694 33.4216 70.3093C31.4177 69.1491 29.5895 67.7341 27.9372 66.0642C26.2849 64.3942 24.8786 62.5749 23.7184 60.6061C22.5583 58.6374 21.6442 56.4929 20.9763 54.1726C20.3083 51.8522 19.9831 49.4616 20.0007 47.0007C20.0007 44.5222 20.3259 42.1403 20.9763 39.8552C21.6267 37.57 22.5319 35.4255 23.6921 33.4216C24.8522 31.4177 26.2673 29.5895 27.9372 27.9372C29.6071 26.2849 31.4265 24.8786 33.3952 23.7184C35.364 22.5583 37.5085 21.6442 39.8288 20.9763C42.1491 20.3083 44.5397 19.9831 47.0007 20.0007ZM67.0925 34.6345C66.8464 34.2477 66.6003 33.8786 66.3542 33.527C66.1081 33.1755 65.8532 32.8151 65.5895 32.446C65.5544 32.6042 65.5104 32.7184 65.4577 32.7888C65.405 32.8591 65.3698 33.0173 65.3522 33.2634C65.3522 33.4216 65.4138 33.571 65.5368 33.7116C65.6599 33.8522 65.8181 33.9929 66.0114 34.1335C66.2048 34.2741 66.3981 34.3796 66.5915 34.4499C66.7849 34.5202 66.9518 34.5817 67.0925 34.6345ZM65.2731 32.0505C65.2731 32.1911 65.2468 32.2878 65.194 32.3405H65.3522C65.4226 32.3405 65.4753 32.3493 65.5104 32.3669L65.2731 32.0505ZM47.0007 70.6257C49.0046 70.6257 50.9645 70.3708 52.8806 69.861C54.7966 69.3513 56.6071 68.6306 58.3122 67.6989C60.0173 66.7673 61.5993 65.6247 63.0583 64.2712C64.5173 62.9177 65.7917 61.4059 66.8815 59.736C66.653 59.2087 66.4333 58.6726 66.2224 58.1276C66.0114 57.5827 65.9059 57.0202 65.9059 56.4401C65.9059 55.8073 65.9323 55.2976 65.9851 54.9108C66.0378 54.5241 66.0993 54.1813 66.1696 53.8825C66.2399 53.5837 66.2751 53.3288 66.2751 53.1179C66.2751 52.9069 66.2487 52.6345 66.196 52.3005C66.1433 51.9665 65.9938 51.6061 65.7477 51.2194C65.5017 50.8327 65.1765 50.2878 64.7722 49.5847C64.7897 49.4616 64.8161 49.2946 64.8513 49.0837C64.8864 48.8727 64.9216 48.653 64.9567 48.4245C64.9919 48.196 65.0007 47.9851 64.9831 47.7917C64.9655 47.5983 64.9216 47.4313 64.8513 47.2907C64.3942 47.238 63.9196 47.1413 63.4274 47.0007C62.9352 46.8601 62.4958 46.6491 62.1091 46.3679L62.2673 46.236C62.0388 46.2888 61.8102 46.3591 61.5817 46.447C61.3532 46.5349 61.1335 46.6315 60.9226 46.737C60.7116 46.8425 60.4831 46.9128 60.237 46.9479C59.9909 46.9831 59.7536 47.0183 59.5251 47.0534L59.1032 47.0007L59.1823 46.8161C58.9362 46.8864 58.6726 46.9743 58.3913 47.0798C58.1101 47.1852 57.8376 47.238 57.5739 47.238C57.3981 47.238 57.1433 47.1765 56.8093 47.0534C56.4753 46.9304 56.1413 46.7809 55.8073 46.6052C55.4733 46.4294 55.1745 46.236 54.9108 46.0251C54.6472 45.8142 54.5153 45.612 54.5153 45.4186L54.5681 45.3395C54.4802 45.2341 54.3659 45.1374 54.2253 45.0495C54.0847 44.9616 53.9528 44.8737 53.8298 44.7858C53.7067 44.6979 53.5925 44.6013 53.487 44.4958C53.3815 44.3903 53.3376 44.2673 53.3552 44.1267L53.6452 43.8893L53.0388 43.8102L52.8278 43.0192C52.863 43.1071 52.9421 43.1423 53.0651 43.1247C53.1882 43.1071 53.2849 43.072 53.3552 43.0192L52.4059 42.5183L53.0651 40.8308C52.819 39.9167 52.7575 39.2136 52.8806 38.7214C53.0036 38.2292 53.2409 37.8249 53.5925 37.5085C53.944 37.1921 54.3308 36.8757 54.7526 36.5593C55.1745 36.2429 55.6052 35.8122 56.0446 35.2673L55.9655 34.9509L57.7058 32.8415L58.1013 32.7888C58.5934 32.7888 59.1472 32.7712 59.7624 32.736C60.3776 32.7009 61.0017 32.6393 61.6345 32.5515C62.2673 32.4636 62.8913 32.3757 63.5065 32.2878C64.1218 32.1999 64.6843 32.0856 65.194 31.945C64.6315 31.277 64.0427 30.6442 63.4274 30.0466C62.8122 29.4489 62.153 28.8776 61.4499 28.3327C61.2565 28.403 61.0192 28.4997 60.738 28.6227C60.4567 28.7458 60.1755 28.904 59.8942 29.0974C59.613 29.2907 59.3933 29.5017 59.2351 29.7302C59.0768 29.9587 58.9802 30.196 58.945 30.4421L59.1032 30.9431C58.7868 31.4528 58.4352 31.7692 58.0485 31.8923C57.6618 32.0153 57.2663 32.0856 56.862 32.1032C56.4577 32.1208 56.0358 32.1208 55.5964 32.1032C55.1569 32.0856 54.7351 32.1647 54.3308 32.3405L53.9089 31.444L54.3044 29.9147L53.8561 29.2556L58.4177 27.8317C58.2243 27.3395 57.9079 26.9704 57.4684 26.7243C57.029 26.4782 56.5456 26.3552 56.0183 26.3552V26.0915L57.4948 25.8542C55.8601 25.0456 54.1638 24.4304 52.4059 24.0085C50.6481 23.5866 48.8464 23.3757 47.0007 23.3757C45.4714 23.3757 43.9597 23.5251 42.4655 23.8239C40.9714 24.1227 39.53 24.5534 38.1413 25.1159C36.7526 25.6784 35.4079 26.3815 34.1071 27.2253C32.8063 28.069 31.6198 29.0183 30.5476 30.0729C31.0046 30.0729 31.3561 30.1872 31.6022 30.4157C31.8483 30.6442 32.0768 30.8991 32.2878 31.1804C32.4987 31.4616 32.7184 31.7165 32.947 31.945C33.1755 32.1735 33.4831 32.2966 33.8698 32.3142L34.2917 31.9977L34.239 31.4177L35.1091 30.1784L34.4235 28.2272C34.5114 28.1745 34.6433 28.0866 34.819 27.9636C34.9948 27.8405 35.1442 27.779 35.2673 27.779C35.7946 27.779 36.1989 27.8054 36.4802 27.8581C36.7614 27.9108 37.0075 28.0075 37.2184 28.1481C37.4294 28.2888 37.614 28.4909 37.7722 28.7546C37.9304 29.0183 38.1765 29.3522 38.5104 29.7565L39.4597 29.0183C39.6354 29.0886 39.9167 29.2028 40.3034 29.361C40.6901 29.5192 41.0856 29.7126 41.4899 29.9411C41.8942 30.1696 42.237 30.4069 42.5183 30.653C42.7995 30.8991 42.9489 31.1276 42.9665 31.3386C42.9665 31.6022 42.8698 31.8132 42.6765 31.9714C42.4831 32.1296 42.2282 32.2614 41.9118 32.3669C41.5954 32.4724 41.2702 32.5515 40.9362 32.6042C40.6022 32.6569 40.2683 32.7272 39.9343 32.8151C39.6003 32.903 39.3454 32.9909 39.1696 33.0788C38.9938 33.1667 38.8884 33.3161 38.8532 33.527L40.3825 34.028C40.0309 34.3268 39.653 34.5993 39.2487 34.8454C38.8444 35.0915 38.4226 35.32 37.9831 35.5309L38.0886 35.9792L35.6628 36.9284V37.6667L35.4782 37.7458L35.6101 36.8229L35.5046 36.7966C35.3815 36.7966 35.3112 36.8229 35.2936 36.8757C35.2761 36.9284 35.2673 36.9899 35.2673 37.0602C35.2673 37.1306 35.2849 37.2009 35.32 37.2712C35.3552 37.3415 35.364 37.3942 35.3464 37.4294L35.0036 37.2448L35.0563 37.3503C35.0563 37.403 35.0827 37.4821 35.1354 37.5876C35.1882 37.6931 35.2585 37.7897 35.3464 37.8776C35.4343 37.9655 35.5046 38.0534 35.5573 38.1413C35.6101 38.2292 35.6452 38.2731 35.6628 38.2731C35.6628 38.3259 35.6276 38.3786 35.5573 38.4313C35.487 38.4841 35.3991 38.5192 35.2936 38.5368C35.1882 38.5544 35.1179 38.5808 35.0827 38.6159C35.0476 38.6511 35.0476 38.6599 35.0827 38.6423C35.3288 38.6423 35.3815 38.6599 35.2409 38.695C35.1003 38.7302 34.8806 38.8181 34.5817 38.9587C34.2829 39.0993 34.0104 39.3015 33.7643 39.5651C33.5183 39.8288 33.3776 40.2155 33.3425 40.7253C33.3425 41.0241 33.3513 41.3142 33.3688 41.5954C33.3864 41.8767 33.3776 42.1667 33.3425 42.4655C33.0964 41.7976 32.7272 41.2878 32.2351 40.9362C31.7429 40.5847 31.1452 40.4089 30.4421 40.4089L29.3083 40.5143L29.862 40.8835C29.5632 40.8483 29.2556 40.8132 28.9392 40.778C28.6227 40.7429 28.2976 40.7341 27.9636 40.7517C27.6296 40.7692 27.3308 40.8395 27.0671 40.9626C26.8034 41.0856 26.5397 41.2702 26.2761 41.5163L26.1179 42.7028C26.1179 43.2653 26.2409 43.7224 26.487 44.0739C26.7331 44.4255 27.1638 44.6101 27.779 44.6276C28.3063 44.6276 28.8249 44.5485 29.3347 44.3903C29.8444 44.2321 30.3454 44.0476 30.8376 43.8366C30.6794 44.2233 30.5036 44.5925 30.3102 44.944C30.1169 45.2956 29.9763 45.6823 29.8884 46.1042L30.2311 46.2624C30.653 45.9811 31.0397 45.9372 31.3913 46.1306C31.7429 46.3239 32.0856 46.6052 32.4196 46.9743C32.7536 47.3434 33.0964 47.7214 33.4479 48.1081C33.7995 48.4948 34.1774 48.7761 34.5817 48.9518L33.6852 49.4265L31.5759 48.2399C31.5934 48.2751 31.611 48.3542 31.6286 48.4772C31.6462 48.6003 31.6374 48.6267 31.6022 48.5563L30.653 46.9479C30.0905 46.9304 29.4929 46.8425 28.8601 46.6843C28.2272 46.5261 27.5856 46.3151 26.9352 46.0515C26.2849 45.7878 25.6784 45.4977 25.1159 45.1813C24.5534 44.8649 24.0349 44.5309 23.5602 44.1794L23.3757 47.0007C23.3757 49.1452 23.6657 51.237 24.2458 53.2761C24.8259 55.3151 25.6433 57.2311 26.6979 59.0241C27.7526 60.8171 29.0446 62.4518 30.5739 63.9284C32.1032 65.405 33.7995 66.6618 35.6628 67.6989C35.5749 67.3298 35.5661 66.9606 35.6364 66.5915C35.7067 66.2224 35.7946 65.8532 35.9001 65.4841C36.0056 65.1149 36.1198 64.7458 36.2429 64.3767C36.3659 64.0075 36.4274 63.6296 36.4274 63.2429C36.4274 62.6804 36.3395 62.0915 36.1638 61.4763C35.988 60.861 35.777 60.237 35.5309 59.6042C35.2849 58.9714 35.0124 58.3474 34.7136 57.7321C34.4147 57.1169 34.1774 56.5368 34.0017 55.9919C33.8259 55.447 33.6852 54.9372 33.5798 54.4626C33.4743 53.988 33.527 53.5749 33.738 53.2233L33.3425 53.0388C33.4479 52.7927 33.5886 52.5554 33.7643 52.3268C33.9401 52.0983 34.1247 51.8698 34.3181 51.6413C34.5114 51.4128 34.6608 51.1667 34.7663 50.903C34.8718 50.6393 34.9333 50.3757 34.9509 50.112C34.9509 49.9362 34.9157 49.7517 34.8454 49.5583C34.7751 49.3649 34.7136 49.1804 34.6608 49.0046L35.2145 49.1364C35.5134 48.4509 35.9177 47.9851 36.4274 47.739C36.9372 47.4929 37.5788 47.361 38.3522 47.3434C38.4401 47.3434 38.6247 47.3786 38.9059 47.4489C39.1872 47.5192 39.486 47.6159 39.8024 47.739C40.1188 47.862 40.4177 47.9587 40.6989 48.029C40.9802 48.0993 41.1911 48.1696 41.3317 48.2399C41.3317 48.363 41.402 48.4421 41.5427 48.4772C41.6833 48.5124 41.7624 48.5739 41.78 48.6618L41.7272 48.8727C41.78 48.8903 41.903 48.9518 42.0964 49.0573C42.2897 49.1628 42.5007 49.2946 42.7292 49.4528C42.9577 49.611 43.1599 49.7517 43.3356 49.8747C43.5114 49.9977 43.6345 50.0944 43.7048 50.1647C44.0212 50.1647 44.4518 50.2702 44.9968 50.4811C45.5417 50.6921 46.1393 50.9558 46.7897 51.2722C47.4401 51.5886 48.0817 51.9665 48.7145 52.4059C49.3474 52.8454 49.945 53.2849 50.5075 53.7243C51.07 54.1638 51.5007 54.6032 51.7995 55.0427C52.0983 55.4821 52.2741 55.8688 52.3268 56.2028L51.4304 57.152C51.5007 58.0485 51.4392 58.7341 51.2458 59.2087C51.0524 59.6833 50.7536 60.0788 50.3493 60.3952C49.945 60.7116 49.4792 60.9753 48.9518 61.1862C48.4245 61.3972 47.8532 61.696 47.238 62.0827C47.238 62.4343 47.1501 62.8122 46.9743 63.2165C46.7985 63.6208 46.5788 64.0075 46.3151 64.3767C46.0515 64.7458 45.7351 65.0534 45.3659 65.2995C44.9968 65.5456 44.6276 65.6686 44.2585 65.6686L43.1511 64.8249C43.1862 64.8601 43.1862 64.9216 43.1511 65.0095C43.1159 65.0974 43.072 65.1149 43.0192 65.0622C43.195 65.3962 43.239 65.7829 43.1511 66.2224C43.0632 66.6618 42.9138 67.1101 42.7028 67.5671C42.4919 68.0241 42.2546 68.4548 41.9909 68.8591C41.7272 69.2634 41.4899 69.6061 41.279 69.8874C42.2282 70.1335 43.1774 70.3181 44.1267 70.4411C45.0759 70.5642 46.0339 70.6257 47.0007 70.6257Z" fill="#F6F7FF"/>
</svg>
